<?xml version="1.0" encoding="UTF-8" standalone="no"?>
<!-- Created with Inkscape (http://www.inkscape.org/) -->

<svg
   xmlns:dc="http://purl.org/dc/elements/1.1/"
   xmlns:cc="http://creativecommons.org/ns#"
   xmlns:rdf="http://www.w3.org/1999/02/22-rdf-syntax-ns#"
   xmlns:svg="http://www.w3.org/2000/svg"
   xmlns="http://www.w3.org/2000/svg"
   xmlns:xlink="http://www.w3.org/1999/xlink"
   xmlns:sodipodi="http://sodipodi.sourceforge.net/DTD/sodipodi-0.dtd"
   xmlns:inkscape="http://www.inkscape.org/namespaces/inkscape"
   width="22"
   height="22"
   id="svg4230"
   version="1.1"
   inkscape:version="0.48.0 r9654"
   sodipodi:docname="plank.svg">
  <defs
     id="defs4232">
    <linearGradient
       inkscape:collect="always"
       xlink:href="#linearGradient8265-821-176-38-919-66-249-7-7-8"
       id="linearGradient3289"
       gradientUnits="userSpaceOnUse"
       gradientTransform="matrix(0.41248924,0,0,0.59639877,1.5809418,8.5932434)"
       x1="16.626165"
       y1="15.298182"
       x2="20.054544"
       y2="24.627615" />
    <linearGradient
       id="linearGradient8265-821-176-38-919-66-249-7-7-8">
      <stop
         id="stop2687-1-9-6"
         style="stop-color:#ffffff;stop-opacity:1"
         offset="0" />
      <stop
         id="stop2689-5-4-8"
         style="stop-color:#ffffff;stop-opacity:0"
         offset="1" />
    </linearGradient>
    <linearGradient
       y2="43"
       x2="23.99999"
       y1="4.999989"
       x1="23.99999"
       gradientTransform="matrix(0.48648648,0,0,0.45945947,-0.17442829,9.9717329)"
       gradientUnits="userSpaceOnUse"
       id="linearGradient3302"
       xlink:href="#linearGradient3924"
       inkscape:collect="always" />
    <linearGradient
       id="linearGradient3924">
      <stop
         id="stop3926"
         style="stop-color:#ffffff;stop-opacity:1"
         offset="0" />
      <stop
         id="stop3928"
         style="stop-color:#ffffff;stop-opacity:0.23529412"
         offset="0.06316455" />
      <stop
         id="stop3930"
         style="stop-color:#ffffff;stop-opacity:0.15686275"
         offset="0.95056331" />
      <stop
         id="stop3932"
         style="stop-color:#ffffff;stop-opacity:0.39215687"
         offset="1" />
    </linearGradient>
    <radialGradient
       inkscape:collect="always"
       xlink:href="#linearGradient2867-449-88-871-390-598-476-591-434-148-57-177"
       id="radialGradient3295"
       gradientUnits="userSpaceOnUse"
       gradientTransform="matrix(0,1.1385337,-1.2678239,-2.0976135e-8,22.212873,3.2497108)"
       cx="7.4956832"
       cy="8.4497671"
       fx="7.4956832"
       fy="8.4497671"
       r="19.99999" />
    <linearGradient
       id="linearGradient2867-449-88-871-390-598-476-591-434-148-57-177">
      <stop
         offset="0"
         style="stop-color:#90dbec;stop-opacity:1;"
         id="stop3750" />
      <stop
         offset="0.26238"
         style="stop-color:#55c1ec;stop-opacity:1;"
         id="stop3752" />
      <stop
         offset="0.704952"
         style="stop-color:#3689e6;stop-opacity:1;"
         id="stop3754" />
      <stop
         offset="1"
         style="stop-color:#2b63a0;stop-opacity:1;"
         id="stop3756" />
    </linearGradient>
    <linearGradient
       inkscape:collect="always"
       xlink:href="#linearGradient3707-319-631-407-324"
       id="linearGradient3297"
       gradientUnits="userSpaceOnUse"
       gradientTransform="matrix(0.5128205,0,0,0.48717951,-0.80769251,9.3076898)"
       x1="24"
       y1="44"
       x2="24"
       y2="3.8990016" />
    <linearGradient
       id="linearGradient3707-319-631-407-324">
      <stop
         offset="0"
         style="stop-color:#185f9a;stop-opacity:1;"
         id="stop3760" />
      <stop
         offset="1"
         style="stop-color:#599ec9;stop-opacity:1;"
         id="stop3762" />
    </linearGradient>
    <linearGradient
       id="linearGradient3707-319-631-407-1-846-5-4-5-17">
      <stop
         id="stop3788-4-8-9-5"
         style="stop-color:#365a7c;stop-opacity:1"
         offset="0" />
      <stop
         id="stop3790-2-1-9-9"
         style="stop-color:#5ea1ca;stop-opacity:1;"
         offset="1" />
    </linearGradient>
    <linearGradient
       inkscape:collect="always"
       xlink:href="#linearGradient3707-319-631-407-1-846-5-4-5-17"
       id="linearGradient3198"
       gradientUnits="userSpaceOnUse"
       gradientTransform="matrix(-0.25000001,0,0,0.25000001,25.21574,20.750001)"
       x1="19.874987"
       y1="38.245197"
       x2="19.874987"
       y2="-61.256123" />
  </defs>
  <sodipodi:namedview
     id="base"
     pagecolor="#ffffff"
     bordercolor="#666666"
     borderopacity="1.0"
     inkscape:pageopacity="0.0"
     inkscape:pageshadow="2"
     inkscape:zoom="11.3125"
     inkscape:cx="12"
     inkscape:cy="12"
     inkscape:current-layer="layer1"
     showgrid="true"
     inkscape:grid-bbox="true"
     inkscape:document-units="px"
     inkscape:window-width="1280"
     inkscape:window-height="753"
     inkscape:window-x="0"
     inkscape:window-y="24"
     inkscape:window-maximized="1" />
  <metadata
     id="metadata4235">
    <rdf:RDF>
      <cc:Work
         rdf:about="">
        <dc:format>image/svg+xml</dc:format>
        <dc:type
           rdf:resource="http://purl.org/dc/dcmitype/StillImage" />
        <dc:title></dc:title>
      </cc:Work>
    </rdf:RDF>
  </metadata>
  <g
     id="layer1"
     inkscape:label="Layer 1"
     inkscape:groupmode="layer"
     transform="translate(0,-10)">
    <rect
       style="color:#000000;fill:url(#radialGradient3295);fill-opacity:1;fill-rule:nonzero;stroke:url(#linearGradient3297);stroke-width:1;stroke-linecap:round;stroke-linejoin:round;stroke-miterlimit:4;stroke-opacity:1;stroke-dasharray:none;stroke-dashoffset:0;marker:none;visibility:visible;display:inline;overflow:visible;enable-background:accumulate"
       id="rect5505-21"
       y="11.499998"
       x="1.5"
       ry="1"
       rx="1"
       height="19.000002"
       width="20" />
    <rect
       style="opacity:0.5;fill:none;stroke:url(#linearGradient3302);stroke-width:0.99999982;stroke-linecap:round;stroke-linejoin:round;stroke-miterlimit:4;stroke-opacity:1;stroke-dasharray:none;stroke-dashoffset:0"
       id="rect6741-9"
       y="12.498756"
       x="2.5012453"
       height="17"
       width="18" />
    <path
       inkscape:connector-curvature="0"
       style="opacity:0.2;fill:url(#linearGradient3289);fill-opacity:1;fill-rule:evenodd;stroke:none"
       id="path3333"
       d="M 2.6084582,12 C 2.2688634,12 2,12.418213 2,12.824999 L 2.006365,23 C 2.5529449,22.988917 20.585131,18.945168 21,18.750658 l 0,-5.925659 C 21,12.514064 20.734408,12 20.440355,12 L 2.6084993,12 z"
       sodipodi:nodetypes="ccccccc" />
    <path
       style="opacity:0.7;fill:#ffffff;fill-opacity:0.58823529;stroke:#ffffff;stroke-width:0.99999994px;stroke-linecap:butt;stroke-linejoin:miter;stroke-opacity:1"
       d="m 3.4999997,28.500001 15.9999993,0 -0.914285,-3 -14.1714287,0 z"
       id="path4306"
       inkscape:connector-curvature="0"
       sodipodi:nodetypes="ccccc" />
    <path
       id="path3118-2"
       style="opacity:0.3;color:#000000;fill:url(#linearGradient3198);fill-opacity:1;fill-rule:nonzero;stroke:none;stroke-width:1;marker:none;visibility:visible;display:inline;overflow:visible;enable-background:accumulate"
       d="m 19.265336,23 -3.530672,0 C 15.32766,23 15,23.32766 15,23.734664 l 0,3.530672 C 15,27.67234 15.32766,28 15.734664,28 l 3.530672,0 C 19.67234,28 20,27.67234 20,27.265336 l 0,-3.530672 C 20,23.32766 19.67234,23 19.265336,23 z m -4,0 -3.530672,0 C 11.32766,23 11,23.32766 11,23.734664 l 0,3.530672 C 11,27.67234 11.32766,28 11.734664,28 l 3.530672,0 C 15.67234,28 16,27.67234 16,27.265336 l 0,-3.530672 C 16,23.32766 15.67234,23 15.265336,23 z m -4,0 -3.5306717,0 C 7.3276603,23 7,23.32766 7,23.734664 l 0,3.530672 C 7,27.67234 7.3276603,28 7.7346643,28 l 3.5306717,0 C 11.67234,28 12,27.67234 12,27.265336 l 0,-3.530672 C 12,23.32766 11.67234,23 11.265336,23 z M 7.2653357,23 3.7346643,23 C 3.3276603,23 3,23.32766 3,23.734664 l 0,3.530672 C 3,27.67234 3.3276603,28 3.7346643,28 l 3.5306714,0 C 7.67234,28 8,27.67234 8,27.265336 L 8,23.734664 C 8,23.32766 7.67234,23 7.2653357,23 z"
       inkscape:connector-curvature="0" />
    <path
       id="path3067-7"
       style="color:#000000;fill:#f7f7f7;fill-opacity:1;fill-rule:nonzero;stroke:#ffffff;stroke-width:0.98542708;stroke-linecap:butt;stroke-linejoin:miter;stroke-miterlimit:4;stroke-opacity:1;stroke-dashoffset:0;marker:none;visibility:visible;display:inline;overflow:visible;enable-background:accumulate"
       d="m 18.306415,24.492713 -1.61283,0 c -0.111283,0 -0.200871,0.08959 -0.200871,0.200872 l 0,1.612829 c 0,0.111283 0.08959,0.200872 0.200871,0.200872 l 1.61283,0 c 0.111283,0 0.200871,-0.08959 0.200871,-0.200872 l 0,-1.612829 c 0,-0.111284 -0.08959,-0.200872 -0.200871,-0.200872 z m -4,0 -1.61283,0 c -0.111283,0 -0.200871,0.08959 -0.200871,0.200872 l 0,1.612829 c 0,0.111283 0.08959,0.200872 0.200871,0.200872 l 1.61283,0 c 0.111283,0 0.200871,-0.08959 0.200871,-0.200872 l 0,-1.612829 c 0,-0.111284 -0.08959,-0.200872 -0.200871,-0.200872 z m -4,0 -1.6128296,0 c -0.1112829,0 -0.2008718,0.08959 -0.2008718,0.200872 l 0,1.612829 c 0,0.111283 0.089589,0.200872 0.2008718,0.200872 l 1.6128296,0 c 0.111283,0 0.200871,-0.08959 0.200871,-0.200872 l 0,-1.612829 c 0,-0.111284 -0.08959,-0.200872 -0.200871,-0.200872 z m -4.0000004,0 -1.6128292,0 c -0.1112829,0 -0.2008718,0.08959 -0.2008718,0.200872 l 0,1.612829 c 0,0.111283 0.089589,0.200872 0.2008718,0.200872 l 1.6128292,0 c 0.111283,0 0.2008718,-0.08959 0.2008718,-0.200872 l 0,-1.612829 c 0,-0.111284 -0.089589,-0.200872 -0.2008718,-0.200872 z"
       inkscape:connector-curvature="0" />
  </g>
</svg>
