<?xml version="1.0" encoding="UTF-8" standalone="no"?>
<!-- Created with Inkscape (http://www.inkscape.org/) -->

<svg
   xmlns:dc="http://purl.org/dc/elements/1.1/"
   xmlns:cc="http://creativecommons.org/ns#"
   xmlns:rdf="http://www.w3.org/1999/02/22-rdf-syntax-ns#"
   xmlns:svg="http://www.w3.org/2000/svg"
   xmlns="http://www.w3.org/2000/svg"
   xmlns:xlink="http://www.w3.org/1999/xlink"
   xmlns:sodipodi="http://sodipodi.sourceforge.net/DTD/sodipodi-0.dtd"
   xmlns:inkscape="http://www.inkscape.org/namespaces/inkscape"
   width="64px"
   height="64px"
   id="svg4087"
   version="1.1"
   inkscape:version="0.48.0 r9654"
   sodipodi:docname="plank.svg">
  <defs
     id="defs4089">
    <linearGradient
       inkscape:collect="always"
       xlink:href="#linearGradient3994"
       id="linearGradient4000"
       x1="32.333332"
       y1="53.110497"
       x2="32.333332"
       y2="55.825985"
       gradientUnits="userSpaceOnUse" />
    <linearGradient
       inkscape:collect="always"
       id="linearGradient3994">
      <stop
         style="stop-color:#f7f7f7;stop-opacity:1;"
         offset="0"
         id="stop3996" />
      <stop
         style="stop-color:#f7f7f7;stop-opacity:0;"
         offset="1"
         id="stop3998" />
    </linearGradient>
    <linearGradient
       inkscape:collect="always"
       xlink:href="#linearGradient4002"
       id="linearGradient4008"
       x1="32.333332"
       y1="53.110497"
       x2="32.333332"
       y2="55.825985"
       gradientUnits="userSpaceOnUse" />
    <linearGradient
       inkscape:collect="always"
       id="linearGradient4002">
      <stop
         style="stop-color:#ffffff;stop-opacity:1;"
         offset="0"
         id="stop4004" />
      <stop
         style="stop-color:#ffffff;stop-opacity:0;"
         offset="1"
         id="stop4006" />
    </linearGradient>
    <linearGradient
       inkscape:collect="always"
       xlink:href="#linearGradient3707-319-631-407-324"
       id="linearGradient4009"
       x1="33.076294"
       y1="52.347813"
       x2="33.076294"
       y2="8.136672"
       gradientUnits="userSpaceOnUse"
       gradientTransform="translate(0,-5.999999)" />
    <linearGradient
       id="linearGradient3707-319-631-407-324">
      <stop
         offset="0"
         style="stop-color:#185f9a;stop-opacity:1;"
         id="stop3760" />
      <stop
         offset="1"
         style="stop-color:#599ec9;stop-opacity:1;"
         id="stop3762" />
    </linearGradient>
    <linearGradient
       y2="-61.256123"
       x2="19.874987"
       y1="38.245197"
       x1="19.874987"
       gradientTransform="matrix(-0.5,0,0,0.5,41.431481,39.500001)"
       gradientUnits="userSpaceOnUse"
       id="linearGradient3153-4"
       xlink:href="#linearGradient3707-319-631-407-1-846-5-4-5-2"
       inkscape:collect="always" />
    <linearGradient
       id="linearGradient3707-319-631-407-1-846-5-4-5-2">
      <stop
         id="stop3788-4-8-9-54"
         style="stop-color:#365a7c;stop-opacity:1"
         offset="0" />
      <stop
         id="stop3790-2-1-9-7"
         style="stop-color:#5ea1ca;stop-opacity:1;"
         offset="1" />
    </linearGradient>
    <linearGradient
       inkscape:collect="always"
       xlink:href="#linearGradient8265-821-176-38-919-66-249-7-7"
       id="linearGradient3158"
       gradientUnits="userSpaceOnUse"
       gradientTransform="matrix(1.1723404,0,0,1.8434143,3.8089875,-5.5299719)"
       x1="16.626165"
       y1="15.298182"
       x2="20.054544"
       y2="24.627615" />
    <linearGradient
       id="linearGradient8265-821-176-38-919-66-249-7-7">
      <stop
         id="stop2687-1-9"
         style="stop-color:#ffffff;stop-opacity:1"
         offset="0" />
      <stop
         id="stop2689-5-4"
         style="stop-color:#ffffff;stop-opacity:0"
         offset="1" />
    </linearGradient>
    <linearGradient
       y2="43"
       x2="23.99999"
       y1="4.999989"
       x1="23.99999"
       gradientTransform="matrix(1.4324324,0,0,1.4324324,-2.3783747,-2.3783644)"
       gradientUnits="userSpaceOnUse"
       id="linearGradient3107"
       xlink:href="#linearGradient3924"
       inkscape:collect="always" />
    <linearGradient
       id="linearGradient3924">
      <stop
         id="stop3926"
         style="stop-color:#ffffff;stop-opacity:1"
         offset="0" />
      <stop
         id="stop3928"
         style="stop-color:#ffffff;stop-opacity:0.23529412"
         offset="0.06316455" />
      <stop
         id="stop3930"
         style="stop-color:#ffffff;stop-opacity:0.15686275"
         offset="0.95056331" />
      <stop
         id="stop3932"
         style="stop-color:#ffffff;stop-opacity:0.39215687"
         offset="1" />
    </linearGradient>
    <radialGradient
       inkscape:collect="always"
       xlink:href="#linearGradient2867-449-88-871-390-598-476-591-434-148-57-177"
       id="radialGradient3164"
       gradientUnits="userSpaceOnUse"
       gradientTransform="matrix(2.7399122e-8,3.2957553,-3.4865161,-6.0720391e-8,61.460404,-19.38241)"
       cx="7.4956832"
       cy="8.4497671"
       fx="7.4956832"
       fy="8.4497671"
       r="19.99999" />
    <linearGradient
       id="linearGradient2867-449-88-871-390-598-476-591-434-148-57-177">
      <stop
         offset="0"
         style="stop-color:#90dbec;stop-opacity:1;"
         id="stop3750" />
      <stop
         offset="0.26238"
         style="stop-color:#55c1ec;stop-opacity:1;"
         id="stop3752" />
      <stop
         offset="0.704952"
         style="stop-color:#3689e6;stop-opacity:1;"
         id="stop3754" />
      <stop
         offset="1"
         style="stop-color:#2b63a0;stop-opacity:1;"
         id="stop3756" />
    </linearGradient>
    <linearGradient
       inkscape:collect="always"
       xlink:href="#linearGradient3707-319-631-407-324"
       id="linearGradient3166"
       gradientUnits="userSpaceOnUse"
       gradientTransform="matrix(1.4102565,0,0,1.4102565,-1.8461544,-1.8461542)"
       x1="24"
       y1="44"
       x2="24"
       y2="3.8990016" />
    <radialGradient
       cx="4.9929786"
       cy="43.5"
       r="2.5"
       fx="4.9929786"
       fy="43.5"
       id="radialGradient2873-966-168"
       xlink:href="#linearGradient3688-166-749"
       gradientUnits="userSpaceOnUse"
       gradientTransform="matrix(2.003784,0,0,1.4,27.98813,-17.4)" />
    <linearGradient
       id="linearGradient3688-166-749">
      <stop
         id="stop2883"
         style="stop-color:#181818;stop-opacity:1"
         offset="0" />
      <stop
         id="stop2885"
         style="stop-color:#181818;stop-opacity:0"
         offset="1" />
    </linearGradient>
    <radialGradient
       cx="4.9929786"
       cy="43.5"
       r="2.5"
       fx="4.9929786"
       fy="43.5"
       id="radialGradient2875-742-326"
       xlink:href="#linearGradient3688-464-309"
       gradientUnits="userSpaceOnUse"
       gradientTransform="matrix(2.003784,0,0,1.4,-20.01187,-104.4)" />
    <linearGradient
       id="linearGradient3688-464-309">
      <stop
         id="stop2889"
         style="stop-color:#181818;stop-opacity:1"
         offset="0" />
      <stop
         id="stop2891"
         style="stop-color:#181818;stop-opacity:0"
         offset="1" />
    </linearGradient>
    <linearGradient
       x1="25.058096"
       y1="47.027729"
       x2="25.058096"
       y2="39.999443"
       id="linearGradient2877-634-617"
       xlink:href="#linearGradient3702-501-757"
       gradientUnits="userSpaceOnUse" />
    <linearGradient
       id="linearGradient3702-501-757">
      <stop
         id="stop2895"
         style="stop-color:#181818;stop-opacity:0"
         offset="0" />
      <stop
         id="stop2897"
         style="stop-color:#181818;stop-opacity:1"
         offset="0.5" />
      <stop
         id="stop2899"
         style="stop-color:#181818;stop-opacity:0"
         offset="1" />
    </linearGradient>
  </defs>
  <sodipodi:namedview
     id="base"
     pagecolor="#ffffff"
     bordercolor="#666666"
     borderopacity="1.0"
     inkscape:pageopacity="0.0"
     inkscape:pageshadow="2"
     inkscape:zoom="5.5"
     inkscape:cx="32"
     inkscape:cy="32"
     inkscape:current-layer="layer1"
     showgrid="true"
     inkscape:document-units="px"
     inkscape:grid-bbox="true"
     inkscape:window-width="1280"
     inkscape:window-height="691"
     inkscape:window-x="0"
     inkscape:window-y="24"
     inkscape:window-maximized="1" />
  <metadata
     id="metadata4092">
    <rdf:RDF>
      <cc:Work
         rdf:about="">
        <dc:format>image/svg+xml</dc:format>
        <dc:type
           rdf:resource="http://purl.org/dc/dcmitype/StillImage" />
        <dc:title />
      </cc:Work>
    </rdf:RDF>
  </metadata>
  <g
     id="layer1"
     inkscape:label="Layer 1"
     inkscape:groupmode="layer">
    <g
       style="display:inline"
       id="g2036"
       transform="matrix(1.5000021,0,0,0.5555561,-4.0000114,35.888881)">
      <g
         style="opacity:0.4"
         id="g3712"
         transform="matrix(1.052632,0,0,1.285713,-1.263158,-13.42854)">
        <rect
           style="fill:url(#radialGradient2873-966-168);fill-opacity:1;stroke:none"
           id="rect2801"
           y="40"
           x="38"
           height="7"
           width="5" />
        <rect
           style="fill:url(#radialGradient2875-742-326);fill-opacity:1;stroke:none"
           id="rect3696"
           transform="scale(-1,-1)"
           y="-47"
           x="-10"
           height="7"
           width="5" />
        <rect
           style="fill:url(#linearGradient2877-634-617);fill-opacity:1;stroke:none"
           id="rect3700"
           y="40"
           x="10"
           height="7.0000005"
           width="28" />
      </g>
    </g>
    <rect
       style="color:#000000;fill:url(#radialGradient3164);fill-opacity:1;fill-rule:nonzero;stroke:url(#linearGradient3166);stroke-width:0.99999994;stroke-linecap:round;stroke-linejoin:round;stroke-miterlimit:4;stroke-opacity:1;stroke-dasharray:none;stroke-dashoffset:0;marker:none;visibility:visible;display:inline;overflow:visible;enable-background:accumulate"
       id="rect5505-21"
       y="4.5"
       x="4.5"
       ry="3"
       rx="3"
       height="55"
       width="55" />
    <rect
       style="opacity:0.5;fill:none;stroke:url(#linearGradient3107);stroke-width:1;stroke-linecap:round;stroke-linejoin:round;stroke-miterlimit:4;stroke-opacity:1;stroke-dasharray:none;stroke-dashoffset:0"
       id="rect6741"
       y="5.5"
       x="5.5"
       ry="2"
       rx="2"
       height="53"
       width="53" />
    <path
       inkscape:connector-curvature="0"
       style="opacity:0.2;fill:url(#linearGradient3158);fill-opacity:1;fill-rule:evenodd;stroke:none"
       id="path3333"
       d="M 6.7293031,5 C 5.7641384,5 5,6.2926588 5,7.5499999 L 5.0179665,39 C 6.5714146,38.965765 57.820897,26.466881 59,25.865671 L 59,7.5499999 C 59,6.5889276 58.245161,5 57.40943,5 L 6.7293072,5 z"
       sodipodi:nodetypes="ccccccc" />
    <path
       inkscape:connector-curvature="0"
       d="m 32.000001,9 c -2.350414,0 -4.250707,1.888119 -4.25,4.21875 -5.49e-4,1.811097 1.63423,3.306999 3.25,3.90625 0.002,0.291642 -0.0018,0.58336 0,0.875 l -7.53125,0 c -0.261067,0 -0.46875,0.207682 -0.46875,0.46875 l 0,1.0625 c 0,0.261067 0.207682,0.46875 0.46875,0.46875 l 7.53125,0 c 0.0345,6.81187 0.04251,13.625459 0,20.4375 0.01068,0.168053 -0.550586,0.338231 -0.6875,0.4375 -0.387579,0.28766 -0.836231,0.392845 -1.3125,0.40625 -0.75734,-0.0046 -1.244148,-0.207075 -1.96875,-0.40625 -1.63639,-0.475379 -3.187834,-1.142022 -4.6875,-1.9375 -0.631403,-0.34777 -1.250704,-0.673775 -1.8125,-1.125 -0.242144,-0.205232 -0.525735,-0.504569 -0.5,-0.84375 0.03271,-0.256759 0.152848,-0.515526 0.4375,-0.5625 0.256554,-0.04037 0.49189,0.07118 0.71875,0.15625 0.195566,0.08379 0.343782,-0.119756 0.3125,-0.28125 -0.03148,-0.425445 -0.184394,-0.819238 -0.40625,-1.1875 -0.461583,-0.754282 -1.168988,-1.330087 -1.90625,-1.8125 -0.787155,-0.499404 -1.626308,-1.045014 -2.125,-1.84375 -0.0992,-0.14762 -0.215243,-0.390985 -0.4375,-0.3125 -0.308974,0.09957 -0.473668,0.39692 -0.625,0.65625 -0.425789,0.804986 -0.651779,1.679428 -0.84375,2.5625 -0.157814,0.702621 -0.180124,1.44033 -0.125,2.15625 0.05707,0.716329 0.114232,1.424802 0.40625,2.09375 0.183903,0.439604 0.521342,0.81225 0.84375,1.15625 0.205729,-0.216096 0.383283,-0.444577 0.59375,-0.65625 0.272745,-0.272017 0.632074,-0.459046 1.03125,-0.40625 0.543299,0.06947 1.041795,0.406091 1.46875,0.71875 0.601395,0.464605 1.168498,0.955148 1.78125,1.40625 0.969599,0.736143 2.026359,1.258553 3.125,1.78125 0.915321,0.422285 1.86264,0.84407 2.8125,1.1875 0.170105,0.07381 0.358067,0.06351 0.53125,0.125 1.709529,0.70633 3.160436,1.526682 4.34375,3 0.0016,0.02022 -0.0017,0.07448 0,0.09375 0.01357,-0.01747 0.0176,-0.01397 0.03125,-0.03125 0.01365,0.01728 0.01767,0.01378 0.03125,0.03125 0.0089,-0.04069 -0.0087,-0.08414 0,-0.125 1.179608,-1.45623 2.644591,-2.266705 4.34375,-2.96875 0.173184,-0.06149 0.361147,-0.05119 0.53125,-0.125 0.949861,-0.34343 1.89718,-0.765215 2.8125,-1.1875 1.098642,-0.522697 2.1554,-1.045107 3.125,-1.78125 0.612751,-0.451102 1.179854,-0.941644 1.78125,-1.40625 0.426953,-0.31266 0.925451,-0.649276 1.46875,-0.71875 0.399173,-0.0528 0.758505,0.134232 1.03125,0.40625 0.210468,0.211674 0.388022,0.440155 0.59375,0.65625 0.322409,-0.344001 0.659847,-0.716646 0.84375,-1.15625 0.292018,-0.668948 0.349182,-1.377421 0.40625,-2.09375 0.05512,-0.71592 0.03281,-1.45363 -0.125,-2.15625 -0.19197,-0.883071 -0.417962,-1.757515 -0.84375,-2.5625 -0.151333,-0.259329 -0.316024,-0.556684 -0.625,-0.65625 -0.222256,-0.07848 -0.3383,0.164881 -0.4375,0.3125 -0.498694,0.798735 -1.337846,1.344347 -2.125,1.84375 -0.737263,0.482412 -1.444666,1.058219 -1.90625,1.8125 -0.221854,0.368261 -0.374774,0.762056 -0.40625,1.1875 -0.03128,0.161493 0.116935,0.365038 0.3125,0.28125 0.22686,-0.08507 0.462194,-0.196617 0.71875,-0.15625 0.284652,0.04697 0.404789,0.30574 0.4375,0.5625 0.02574,0.339182 -0.257858,0.638517 -0.5,0.84375 -0.561799,0.451226 -1.181097,0.77723 -1.8125,1.125 -1.499668,0.795478 -3.05111,1.462121 -4.6875,1.9375 -0.724604,0.199175 -1.211412,0.401599 -1.96875,0.40625 -0.476269,-0.0134 -0.924921,-0.11859 -1.3125,-0.40625 -0.136914,-0.09927 -0.69818,-0.269448 -0.6875,-0.4375 0,-13.125935 0,-15.813681 0,-20.4375 l 7.53125,0 c 0.261067,0 0.46875,-0.207682 0.46875,-0.46875 l 0,-1.0625 C 41.000001,18.207683 40.792319,18 40.531251,18 l -7.53125,0 c 0,-0.211663 0,-0.654577 0,-0.875 1.615768,-0.599251 3.250551,-2.095154 3.25,-3.90625 C 36.250708,10.88812 34.350407,9 32.000001,9 z m -0.09375,2.0625 c 1.140975,10e-7 2.094095,0.899876 2.09375,2.03125 3.42e-4,1.131374 -0.952775,2.0625 -2.09375,2.0625 -1.140978,-10e-7 -2.062843,-0.931123 -2.0625,-2.0625 -3.44e-4,-1.131375 0.921522,-2.03125 2.0625,-2.03125 z"
       id="path1919"
       style="opacity:0.4;fill:#ffffff;fill-opacity:1;fill-rule:nonzero;stroke:none" />
    <path
       style="opacity:0.7;fill:#ffffff;fill-opacity:0.58823529;stroke:#ffffff;stroke-width:0.99999994px;stroke-linecap:butt;stroke-linejoin:miter;stroke-opacity:1"
       d="m 6.5,55.5 51.000001,0 -3.000001,-6 -45,0 z"
       id="path4306"
       inkscape:connector-curvature="0"
       sodipodi:nodetypes="ccccc" />
    <path
       inkscape:connector-curvature="0"
       id="path3130-43"
       style="opacity:0.3;color:#000000;fill:url(#linearGradient3153-4);fill-opacity:1;fill-rule:nonzero;stroke:none;stroke-width:1;marker:none;visibility:visible;display:inline;overflow:visible;enable-background:accumulate"
       d="m 29.530672,44 -7.061343,0 C 21.655322,44 21,44.655321 21,45.469329 l 0,7.061343 C 21,53.34468 21.655322,54 22.469329,54 l 7.061343,0 C 30.34468,54 31,53.34468 31,52.530672 l 0,-7.061343 C 31,44.655321 30.34468,44 29.530672,44 z m 11,0 -7.061343,0 C 32.655322,44 32,44.655321 32,45.469329 l 0,7.061343 C 32,53.34468 32.655322,54 33.469329,54 l 7.061343,0 C 41.34468,54 42,53.34468 42,52.530672 l 0,-7.061343 C 42,44.655321 41.34468,44 40.530672,44 z m 12,0 -7.061343,0 C 44.655322,44 44,44.655321 44,45.469329 l 0,7.061343 C 44,53.34468 44.655322,54 45.469329,54 l 7.061343,0 C 53.34468,54 54,53.34468 54,52.530672 l 0,-7.061343 C 54,44.655321 53.34468,44 52.530672,44 z m -34,0 -7.061343,0 C 10.655322,44 10,44.655321 10,45.469329 l 0,7.061343 C 10,53.34468 10.655322,54 11.469329,54 l 7.061343,0 C 19.34468,54 20,53.34468 20,52.530672 l 0,-7.061343 C 20,44.655321 19.34468,44 18.530672,44 z" />
    <path
       inkscape:connector-curvature="0"
       d="m 32.000001,8 c -2.350414,0 -4.250707,1.888119 -4.25,4.21875 -5.49e-4,1.811097 1.63423,3.306999 3.25,3.90625 0.002,0.291642 -0.0018,0.58336 0,0.875 l -7.53125,0 c -0.261067,0 -0.46875,0.207682 -0.46875,0.46875 l 0,1.0625 c 0,0.261067 0.207682,0.46875 0.46875,0.46875 l 7.53125,0 c 0.0345,6.81187 0.04251,13.625459 0,20.4375 0.01068,0.168053 -0.550586,0.338231 -0.6875,0.4375 -0.387579,0.28766 -0.836231,0.392845 -1.3125,0.40625 -0.75734,-0.0046 -1.244148,-0.207075 -1.96875,-0.40625 -1.63639,-0.475379 -3.187834,-1.142022 -4.6875,-1.9375 -0.631403,-0.34777 -1.250704,-0.673775 -1.8125,-1.125 -0.242144,-0.205232 -0.525735,-0.504569 -0.5,-0.84375 0.03271,-0.256759 0.152848,-0.515526 0.4375,-0.5625 0.256554,-0.04037 0.49189,0.07118 0.71875,0.15625 0.195566,0.08379 0.343782,-0.119756 0.3125,-0.28125 -0.03148,-0.425445 -0.184394,-0.819238 -0.40625,-1.1875 -0.461583,-0.754282 -1.168988,-1.330087 -1.90625,-1.8125 -0.787155,-0.499404 -1.626308,-1.045014 -2.125,-1.84375 -0.0992,-0.14762 -0.215243,-0.390985 -0.4375,-0.3125 -0.308974,0.09957 -0.473668,0.39692 -0.625,0.65625 -0.425789,0.804986 -0.651779,1.679428 -0.84375,2.5625 -0.157814,0.702621 -0.180124,1.44033 -0.125,2.15625 0.05707,0.716329 0.114232,1.424802 0.40625,2.09375 0.183903,0.439604 0.521342,0.81225 0.84375,1.15625 0.205729,-0.216096 0.383283,-0.444577 0.59375,-0.65625 0.272745,-0.272017 0.632074,-0.459046 1.03125,-0.40625 0.543299,0.06947 1.041795,0.406091 1.46875,0.71875 0.601395,0.464605 1.168498,0.955148 1.78125,1.40625 0.969599,0.736143 2.026359,1.258553 3.125,1.78125 0.915321,0.422285 1.86264,0.84407 2.8125,1.1875 0.170105,0.07381 0.358067,0.06351 0.53125,0.125 1.709529,0.70633 3.160436,1.526682 4.34375,3 0.0016,0.02022 -0.0017,0.07448 0,0.09375 0.01357,-0.01747 0.0176,-0.01397 0.03125,-0.03125 0.01365,0.01728 0.01767,0.01378 0.03125,0.03125 0.0089,-0.04069 -0.0087,-0.08414 0,-0.125 1.179608,-1.45623 2.644591,-2.266705 4.34375,-2.96875 0.173184,-0.06149 0.361147,-0.05119 0.53125,-0.125 0.949861,-0.34343 1.89718,-0.765215 2.8125,-1.1875 1.098642,-0.522697 2.1554,-1.045107 3.125,-1.78125 0.612751,-0.451102 1.179854,-0.941644 1.78125,-1.40625 0.426953,-0.31266 0.925451,-0.649276 1.46875,-0.71875 0.399173,-0.0528 0.758505,0.134232 1.03125,0.40625 0.210468,0.211674 0.388022,0.440155 0.59375,0.65625 0.322409,-0.344001 0.659847,-0.716646 0.84375,-1.15625 0.292018,-0.668948 0.349182,-1.377421 0.40625,-2.09375 0.05512,-0.71592 0.03281,-1.45363 -0.125,-2.15625 -0.19197,-0.883071 -0.417962,-1.757515 -0.84375,-2.5625 -0.151333,-0.259329 -0.316024,-0.556684 -0.625,-0.65625 -0.222256,-0.07848 -0.3383,0.164881 -0.4375,0.3125 -0.498694,0.798735 -1.337846,1.344347 -2.125,1.84375 -0.737263,0.482412 -1.444666,1.058219 -1.90625,1.8125 -0.221854,0.368261 -0.374774,0.762056 -0.40625,1.1875 -0.03128,0.161493 0.116935,0.365038 0.3125,0.28125 0.22686,-0.08507 0.462194,-0.196617 0.71875,-0.15625 0.284652,0.04697 0.404789,0.30574 0.4375,0.5625 0.02574,0.339182 -0.257858,0.638517 -0.5,0.84375 -0.561799,0.451226 -1.181097,0.77723 -1.8125,1.125 -1.499668,0.795478 -3.05111,1.462121 -4.6875,1.9375 -0.724604,0.199175 -1.211412,0.401599 -1.96875,0.40625 -0.476269,-0.0134 -0.924921,-0.11859 -1.3125,-0.40625 -0.136914,-0.09927 -0.69818,-0.269448 -0.6875,-0.4375 0,-13.125935 0,-15.813681 0,-20.4375 l 7.53125,0 c 0.261067,0 0.46875,-0.207682 0.46875,-0.46875 l 0,-1.0625 C 41.000001,17.207683 40.792319,17 40.531251,17 l -7.53125,0 c 0,-0.211663 0,-0.654577 0,-0.875 1.615768,-0.599251 3.250551,-2.095154 3.25,-3.90625 C 36.250708,9.88812 34.350407,8 32.000001,8 z m -0.09375,2.0625 c 1.140975,10e-7 2.094095,0.899876 2.09375,2.03125 3.42e-4,1.131374 -0.952775,2.0625 -2.09375,2.0625 -1.140978,-10e-7 -2.062843,-0.931123 -2.0625,-2.0625 -3.44e-4,-1.131375 0.921522,-2.03125 2.0625,-2.03125 z"
       id="path3504"
       style="fill:url(#linearGradient4009);fill-opacity:1;fill-rule:nonzero;stroke:none" />
    <path
       inkscape:connector-curvature="0"
       id="path3090-3"
       style="color:#000000;fill:#f7f7f7;fill-opacity:1;fill-rule:nonzero;stroke:#ffffff;stroke-width:0.98542726;stroke-linecap:butt;stroke-linejoin:miter;stroke-miterlimit:4;stroke-opacity:1;stroke-dashoffset:0;marker:none;visibility:visible;display:inline;overflow:visible;enable-background:accumulate"
       d="m 51.807868,45.492711 -5.615734,0 c -0.387479,0 -0.69942,0.311942 -0.69942,0.69942 l 0,5.615736 c 0,0.387478 0.311941,0.699419 0.69942,0.699419 l 5.615734,0 c 0.387479,0 0.699419,-0.311941 0.699419,-0.699419 l 0,-5.615736 c 0,-0.387478 -0.31194,-0.69942 -0.699419,-0.69942 z m -12,0 -5.615734,0 c -0.387479,0 -0.69942,0.311942 -0.69942,0.69942 l 0,5.615736 c 0,0.387478 0.311941,0.699419 0.69942,0.699419 l 5.615734,0 c 0.387479,0 0.699419,-0.311941 0.699419,-0.699419 l 0,-5.615736 c 0,-0.387478 -0.31194,-0.69942 -0.699419,-0.69942 z m -11,0 -5.615734,0 c -0.387479,0 -0.69942,0.311942 -0.69942,0.69942 l 0,5.615736 c 0,0.387478 0.311941,0.699419 0.69942,0.699419 l 5.615734,0 c 0.387479,0 0.699419,-0.311941 0.699419,-0.699419 l 0,-5.615736 c 0,-0.387478 -0.31194,-0.69942 -0.699419,-0.69942 z m -11,0 -5.615734,0 c -0.387479,0 -0.69942,0.311942 -0.69942,0.69942 l 0,5.615736 c 0,0.387478 0.311941,0.699419 0.69942,0.699419 l 5.615734,0 c 0.387479,0 0.699419,-0.311941 0.699419,-0.699419 l 0,-5.615736 c 0,-0.387478 -0.31194,-0.69942 -0.699419,-0.69942 z" />
    <path
       inkscape:connector-curvature="0"
       id="path3090-3-6"
       style="opacity:0.3;color:#000000;fill:url(#linearGradient4000);fill-opacity:1;fill-rule:nonzero;stroke:url(#linearGradient4008);stroke-width:0.98542726;stroke-linecap:butt;stroke-linejoin:miter;stroke-miterlimit:4;stroke-opacity:1;stroke-dashoffset:0;marker:none;visibility:visible;display:inline;overflow:visible;enable-background:accumulate"
       d="m 51.807868,60.507286 -5.615734,0 c -0.387479,0 -0.69942,-0.311942 -0.69942,-0.69942 l 0,-5.615736 c 0,-0.387478 0.311941,-0.699419 0.69942,-0.699419 l 5.615734,0 c 0.387479,0 0.699419,0.311941 0.699419,0.699419 l 0,5.615736 c 0,0.387478 -0.31194,0.69942 -0.699419,0.69942 z m -12,0 -5.615734,0 c -0.387479,0 -0.69942,-0.311942 -0.69942,-0.69942 l 0,-5.615736 c 0,-0.387478 0.311941,-0.699419 0.69942,-0.699419 l 5.615734,0 c 0.387479,0 0.699419,0.311941 0.699419,0.699419 l 0,5.615736 c 0,0.387478 -0.31194,0.69942 -0.699419,0.69942 z m -11,0 -5.615734,0 c -0.387479,0 -0.69942,-0.311942 -0.69942,-0.69942 l 0,-5.615736 c 0,-0.387478 0.311941,-0.699419 0.69942,-0.699419 l 5.615734,0 c 0.387479,0 0.699419,0.311941 0.699419,0.699419 l 0,5.615736 c 0,0.387478 -0.31194,0.69942 -0.699419,0.69942 z m -11,0 -5.615734,0 c -0.387479,0 -0.69942,-0.311942 -0.69942,-0.69942 l 0,-5.615736 c 0,-0.387478 0.311941,-0.699419 0.69942,-0.699419 l 5.615734,0 c 0.387479,0 0.699419,0.311941 0.699419,0.699419 l 0,5.615736 c 0,0.387478 -0.31194,0.69942 -0.699419,0.69942 z" />
  </g>
</svg>
