<?xml version="1.0" encoding="UTF-8" standalone="no"?>
<!-- Created with Inkscape (http://www.inkscape.org/) -->

<svg
   xmlns:dc="http://purl.org/dc/elements/1.1/"
   xmlns:cc="http://creativecommons.org/ns#"
   xmlns:rdf="http://www.w3.org/1999/02/22-rdf-syntax-ns#"
   xmlns:svg="http://www.w3.org/2000/svg"
   xmlns="http://www.w3.org/2000/svg"
   xmlns:xlink="http://www.w3.org/1999/xlink"
   xmlns:sodipodi="http://sodipodi.sourceforge.net/DTD/sodipodi-0.dtd"
   xmlns:inkscape="http://www.inkscape.org/namespaces/inkscape"
   width="64px"
   height="64px"
   id="svg4238"
   version="1.1"
   inkscape:version="0.48.0 r9654"
   sodipodi:docname="plank.svg">
  <defs
     id="defs4240">
    <linearGradient
       inkscape:collect="always"
       id="linearGradient4002">
      <stop
         style="stop-color:#ffffff;stop-opacity:1;"
         offset="0"
         id="stop4004" />
      <stop
         style="stop-color:#ffffff;stop-opacity:0;"
         offset="1"
         id="stop4006" />
    </linearGradient>
    <linearGradient
       inkscape:collect="always"
       id="linearGradient3994">
      <stop
         style="stop-color:#f7f7f7;stop-opacity:1;"
         offset="0"
         id="stop3996" />
      <stop
         style="stop-color:#f7f7f7;stop-opacity:0;"
         offset="1"
         id="stop3998" />
    </linearGradient>
    <linearGradient
       inkscape:collect="always"
       xlink:href="#linearGradient8265-821-176-38-919-66-249-7-7"
       id="linearGradient3158"
       gradientUnits="userSpaceOnUse"
       gradientTransform="matrix(1.1723404,0,0,1.8434143,3.8089875,-5.5299719)"
       x1="16.626165"
       y1="15.298182"
       x2="20.054544"
       y2="24.627615" />
    <linearGradient
       id="linearGradient8265-821-176-38-919-66-249-7-7">
      <stop
         id="stop2687-1-9"
         style="stop-color:#ffffff;stop-opacity:1"
         offset="0" />
      <stop
         id="stop2689-5-4"
         style="stop-color:#ffffff;stop-opacity:0"
         offset="1" />
    </linearGradient>
    <linearGradient
       y2="43"
       x2="23.99999"
       y1="4.999989"
       x1="23.99999"
       gradientTransform="matrix(1.4324324,0,0,1.4324324,-2.3783747,-2.3783644)"
       gradientUnits="userSpaceOnUse"
       id="linearGradient3107"
       xlink:href="#linearGradient3924"
       inkscape:collect="always" />
    <linearGradient
       id="linearGradient3924">
      <stop
         id="stop3926"
         style="stop-color:#ffffff;stop-opacity:1"
         offset="0" />
      <stop
         id="stop3928"
         style="stop-color:#ffffff;stop-opacity:0.23529412"
         offset="0.06316455" />
      <stop
         id="stop3930"
         style="stop-color:#ffffff;stop-opacity:0.15686275"
         offset="0.95056331" />
      <stop
         id="stop3932"
         style="stop-color:#ffffff;stop-opacity:0.39215687"
         offset="1" />
    </linearGradient>
    <radialGradient
       inkscape:collect="always"
       xlink:href="#linearGradient2867-449-88-871-390-598-476-591-434-148-57-177"
       id="radialGradient3164"
       gradientUnits="userSpaceOnUse"
       gradientTransform="matrix(2.7399122e-8,3.2957553,-3.4865161,-6.0720391e-8,61.460404,-19.38241)"
       cx="7.4956832"
       cy="8.4497671"
       fx="7.4956832"
       fy="8.4497671"
       r="19.99999" />
    <linearGradient
       id="linearGradient2867-449-88-871-390-598-476-591-434-148-57-177">
      <stop
         offset="0"
         style="stop-color:#90dbec;stop-opacity:1;"
         id="stop3750" />
      <stop
         offset="0.26238"
         style="stop-color:#55c1ec;stop-opacity:1;"
         id="stop3752" />
      <stop
         offset="0.704952"
         style="stop-color:#3689e6;stop-opacity:1;"
         id="stop3754" />
      <stop
         offset="1"
         style="stop-color:#2b63a0;stop-opacity:1;"
         id="stop3756" />
    </linearGradient>
    <linearGradient
       inkscape:collect="always"
       xlink:href="#linearGradient3707-319-631-407-324"
       id="linearGradient3166"
       gradientUnits="userSpaceOnUse"
       gradientTransform="matrix(1.4102565,0,0,1.4102565,-1.8461544,-1.8461542)"
       x1="24"
       y1="44"
       x2="24"
       y2="3.8990016" />
    <linearGradient
       id="linearGradient3707-319-631-407-324">
      <stop
         offset="0"
         style="stop-color:#185f9a;stop-opacity:1;"
         id="stop3760" />
      <stop
         offset="1"
         style="stop-color:#599ec9;stop-opacity:1;"
         id="stop3762" />
    </linearGradient>
    <radialGradient
       cx="4.9929786"
       cy="43.5"
       r="2.5"
       fx="4.9929786"
       fy="43.5"
       id="radialGradient2873-966-168"
       xlink:href="#linearGradient3688-166-749"
       gradientUnits="userSpaceOnUse"
       gradientTransform="matrix(2.003784,0,0,1.4,27.98813,-17.4)" />
    <linearGradient
       id="linearGradient3688-166-749">
      <stop
         id="stop2883"
         style="stop-color:#181818;stop-opacity:1"
         offset="0" />
      <stop
         id="stop2885"
         style="stop-color:#181818;stop-opacity:0"
         offset="1" />
    </linearGradient>
    <radialGradient
       cx="4.9929786"
       cy="43.5"
       r="2.5"
       fx="4.9929786"
       fy="43.5"
       id="radialGradient2875-742-326"
       xlink:href="#linearGradient3688-464-309"
       gradientUnits="userSpaceOnUse"
       gradientTransform="matrix(2.003784,0,0,1.4,-20.01187,-104.4)" />
    <linearGradient
       id="linearGradient3688-464-309">
      <stop
         id="stop2889"
         style="stop-color:#181818;stop-opacity:1"
         offset="0" />
      <stop
         id="stop2891"
         style="stop-color:#181818;stop-opacity:0"
         offset="1" />
    </linearGradient>
    <linearGradient
       x1="25.058096"
       y1="47.027729"
       x2="25.058096"
       y2="39.999443"
       id="linearGradient2877-634-617"
       xlink:href="#linearGradient3702-501-757"
       gradientUnits="userSpaceOnUse" />
    <linearGradient
       id="linearGradient3702-501-757">
      <stop
         id="stop2895"
         style="stop-color:#181818;stop-opacity:0"
         offset="0" />
      <stop
         id="stop2897"
         style="stop-color:#181818;stop-opacity:1"
         offset="0.5" />
      <stop
         id="stop2899"
         style="stop-color:#181818;stop-opacity:0"
         offset="1" />
    </linearGradient>
    <linearGradient
       id="linearGradient3707-319-631-407-1-846-5-4-5-2">
      <stop
         id="stop3788-4-8-9-54"
         style="stop-color:#365a7c;stop-opacity:1"
         offset="0" />
      <stop
         id="stop3790-2-1-9-7"
         style="stop-color:#5ea1ca;stop-opacity:1;"
         offset="1" />
    </linearGradient>
    <linearGradient
       y2="-61.256123"
       x2="19.874987"
       y1="38.245197"
       x1="19.874987"
       gradientTransform="matrix(-0.5,0,0,0.5,41.431481,39.500001)"
       gradientUnits="userSpaceOnUse"
       id="linearGradient3153-4"
       xlink:href="#linearGradient3707-319-631-407-1-846-5-4-5-2"
       inkscape:collect="always" />
    <linearGradient
       inkscape:collect="always"
       xlink:href="#linearGradient3994"
       id="linearGradient4000"
       x1="32.333332"
       y1="53.110497"
       x2="32.333332"
       y2="55.825985"
       gradientUnits="userSpaceOnUse" />
    <linearGradient
       inkscape:collect="always"
       xlink:href="#linearGradient4002"
       id="linearGradient4008"
       x1="32.333332"
       y1="53.110497"
       x2="32.333332"
       y2="55.825985"
       gradientUnits="userSpaceOnUse" />
  </defs>
  <sodipodi:namedview
     id="base"
     pagecolor="#ffffff"
     bordercolor="#666666"
     borderopacity="1.0"
     inkscape:pageopacity="0.0"
     inkscape:pageshadow="2"
     inkscape:zoom="1"
     inkscape:cx="32"
     inkscape:cy="32"
     inkscape:current-layer="layer1"
     showgrid="true"
     inkscape:document-units="px"
     inkscape:grid-bbox="true"
     inkscape:window-width="1280"
     inkscape:window-height="753"
     inkscape:window-x="0"
     inkscape:window-y="24"
     inkscape:window-maximized="1" />
  <metadata
     id="metadata4243">
    <rdf:RDF>
      <cc:Work
         rdf:about="">
        <dc:format>image/svg+xml</dc:format>
        <dc:type
           rdf:resource="http://purl.org/dc/dcmitype/StillImage" />
        <dc:title />
      </cc:Work>
    </rdf:RDF>
  </metadata>
  <g
     id="layer1"
     inkscape:label="Layer 1"
     inkscape:groupmode="layer">
    <g
       style="display:inline"
       id="g2036"
       transform="matrix(1.5000021,0,0,0.5555561,-4.0000114,35.888881)">
      <g
         style="opacity:0.4"
         id="g3712"
         transform="matrix(1.052632,0,0,1.285713,-1.263158,-13.42854)">
        <rect
           style="fill:url(#radialGradient2873-966-168);fill-opacity:1;stroke:none"
           id="rect2801"
           y="40"
           x="38"
           height="7"
           width="5" />
        <rect
           style="fill:url(#radialGradient2875-742-326);fill-opacity:1;stroke:none"
           id="rect3696"
           transform="scale(-1,-1)"
           y="-47"
           x="-10"
           height="7"
           width="5" />
        <rect
           style="fill:url(#linearGradient2877-634-617);fill-opacity:1;stroke:none"
           id="rect3700"
           y="40"
           x="10"
           height="7.0000005"
           width="28" />
      </g>
    </g>
    <rect
       style="color:#000000;fill:url(#radialGradient3164);fill-opacity:1;fill-rule:nonzero;stroke:url(#linearGradient3166);stroke-width:0.99999994;stroke-linecap:round;stroke-linejoin:round;stroke-miterlimit:4;stroke-opacity:1;stroke-dasharray:none;stroke-dashoffset:0;marker:none;visibility:visible;display:inline;overflow:visible;enable-background:accumulate"
       id="rect5505-21"
       y="4.5"
       x="4.5"
       ry="3"
       rx="3"
       height="55"
       width="55" />
    <rect
       style="opacity:0.5;fill:none;stroke:url(#linearGradient3107);stroke-width:1;stroke-linecap:round;stroke-linejoin:round;stroke-miterlimit:4;stroke-opacity:1;stroke-dasharray:none;stroke-dashoffset:0"
       id="rect6741"
       y="5.5"
       x="5.5"
       ry="2"
       rx="2"
       height="53"
       width="53" />
    <path
       inkscape:connector-curvature="0"
       style="opacity:0.2;fill:url(#linearGradient3158);fill-opacity:1;fill-rule:evenodd;stroke:none"
       id="path3333"
       d="M 6.7293031,5 C 5.7641384,5 5,6.2926588 5,7.5499999 L 5.0179665,39 C 6.5714146,38.965765 57.820897,26.466881 59,25.865671 L 59,7.5499999 C 59,6.5889276 58.245161,5 57.40943,5 L 6.7293072,5 z"
       sodipodi:nodetypes="ccccccc" />
    <path
       style="opacity:0.7;fill:#ffffff;fill-opacity:0.58823529;stroke:#ffffff;stroke-width:0.99999994px;stroke-linecap:butt;stroke-linejoin:miter;stroke-opacity:1"
       d="m 6.5,55.5 51.000001,0 -3.000001,-6 -45,0 z"
       id="path4306"
       inkscape:connector-curvature="0"
       sodipodi:nodetypes="ccccc" />
    <path
       id="path3130-43"
       style="opacity:0.3;color:#000000;fill:url(#linearGradient3153-4);fill-opacity:1;fill-rule:nonzero;stroke:none;stroke-width:1;marker:none;visibility:visible;display:inline;overflow:visible;enable-background:accumulate"
       d="m 29.530672,44 -7.061343,0 C 21.655322,44 21,44.655321 21,45.469329 l 0,7.061343 C 21,53.34468 21.655322,54 22.469329,54 l 7.061343,0 C 30.34468,54 31,53.34468 31,52.530672 l 0,-7.061343 C 31,44.655321 30.34468,44 29.530672,44 z m 11,0 -7.061343,0 C 32.655322,44 32,44.655321 32,45.469329 l 0,7.061343 C 32,53.34468 32.655322,54 33.469329,54 l 7.061343,0 C 41.34468,54 42,53.34468 42,52.530672 l 0,-7.061343 C 42,44.655321 41.34468,44 40.530672,44 z m 12,0 -7.061343,0 C 44.655322,44 44,44.655321 44,45.469329 l 0,7.061343 C 44,53.34468 44.655322,54 45.469329,54 l 7.061343,0 C 53.34468,54 54,53.34468 54,52.530672 l 0,-7.061343 C 54,44.655321 53.34468,44 52.530672,44 z m -34,0 -7.061343,0 C 10.655322,44 10,44.655321 10,45.469329 l 0,7.061343 C 10,53.34468 10.655322,54 11.469329,54 l 7.061343,0 C 19.34468,54 20,53.34468 20,52.530672 l 0,-7.061343 C 20,44.655321 19.34468,44 18.530672,44 z" />
    <path
       id="path3090-3"
       style="color:#000000;fill:#f7f7f7;fill-opacity:1;fill-rule:nonzero;stroke:#ffffff;stroke-width:0.98542726;stroke-linecap:butt;stroke-linejoin:miter;stroke-miterlimit:4;stroke-opacity:1;stroke-dashoffset:0;marker:none;visibility:visible;display:inline;overflow:visible;enable-background:accumulate"
       d="m 51.807868,45.492711 -5.615734,0 c -0.387479,0 -0.69942,0.311942 -0.69942,0.69942 l 0,5.615736 c 0,0.387478 0.311941,0.699419 0.69942,0.699419 l 5.615734,0 c 0.387479,0 0.699419,-0.311941 0.699419,-0.699419 l 0,-5.615736 c 0,-0.387478 -0.31194,-0.69942 -0.699419,-0.69942 z m -12,0 -5.615734,0 c -0.387479,0 -0.69942,0.311942 -0.69942,0.69942 l 0,5.615736 c 0,0.387478 0.311941,0.699419 0.69942,0.699419 l 5.615734,0 c 0.387479,0 0.699419,-0.311941 0.699419,-0.699419 l 0,-5.615736 c 0,-0.387478 -0.31194,-0.69942 -0.699419,-0.69942 z m -11,0 -5.615734,0 c -0.387479,0 -0.69942,0.311942 -0.69942,0.69942 l 0,5.615736 c 0,0.387478 0.311941,0.699419 0.69942,0.699419 l 5.615734,0 c 0.387479,0 0.699419,-0.311941 0.699419,-0.699419 l 0,-5.615736 c 0,-0.387478 -0.31194,-0.69942 -0.699419,-0.69942 z m -11,0 -5.615734,0 c -0.387479,0 -0.69942,0.311942 -0.69942,0.69942 l 0,5.615736 c 0,0.387478 0.311941,0.699419 0.69942,0.699419 l 5.615734,0 c 0.387479,0 0.699419,-0.311941 0.699419,-0.699419 l 0,-5.615736 c 0,-0.387478 -0.31194,-0.69942 -0.699419,-0.69942 z" />
    <path
       inkscape:connector-curvature="0"
       id="path3090-3-6"
       style="color:#000000;fill:url(#linearGradient4000);fill-opacity:1;fill-rule:nonzero;stroke:url(#linearGradient4008);stroke-width:0.98542726000000003;stroke-linecap:butt;stroke-linejoin:miter;stroke-miterlimit:4;stroke-opacity:1;stroke-dashoffset:0;marker:none;visibility:visible;display:inline;overflow:visible;enable-background:accumulate;opacity:0.3"
       d="m 51.807868,60.507286 -5.615734,0 c -0.387479,0 -0.69942,-0.311942 -0.69942,-0.69942 l 0,-5.615736 c 0,-0.387478 0.311941,-0.699419 0.69942,-0.699419 l 5.615734,0 c 0.387479,0 0.699419,0.311941 0.699419,0.699419 l 0,5.615736 c 0,0.387478 -0.31194,0.69942 -0.699419,0.69942 z m -12,0 -5.615734,0 c -0.387479,0 -0.69942,-0.311942 -0.69942,-0.69942 l 0,-5.615736 c 0,-0.387478 0.311941,-0.699419 0.69942,-0.699419 l 5.615734,0 c 0.387479,0 0.699419,0.311941 0.699419,0.699419 l 0,5.615736 c 0,0.387478 -0.31194,0.69942 -0.699419,0.69942 z m -11,0 -5.615734,0 c -0.387479,0 -0.69942,-0.311942 -0.69942,-0.69942 l 0,-5.615736 c 0,-0.387478 0.311941,-0.699419 0.69942,-0.699419 l 5.615734,0 c 0.387479,0 0.699419,0.311941 0.699419,0.699419 l 0,5.615736 c 0,0.387478 -0.31194,0.69942 -0.699419,0.69942 z m -11,0 -5.615734,0 c -0.387479,0 -0.69942,-0.311942 -0.69942,-0.69942 l 0,-5.615736 c 0,-0.387478 0.311941,-0.699419 0.69942,-0.699419 l 5.615734,0 c 0.387479,0 0.699419,0.311941 0.699419,0.699419 l 0,5.615736 c 0,0.387478 -0.31194,0.69942 -0.699419,0.69942 z" />
  </g>
</svg>
