<?xml version="1.0" encoding="UTF-8" standalone="no"?>
<!-- Created with Inkscape (http://www.inkscape.org/) -->

<svg
   xmlns:dc="http://purl.org/dc/elements/1.1/"
   xmlns:cc="http://creativecommons.org/ns#"
   xmlns:rdf="http://www.w3.org/1999/02/22-rdf-syntax-ns#"
   xmlns:svg="http://www.w3.org/2000/svg"
   xmlns="http://www.w3.org/2000/svg"
   xmlns:xlink="http://www.w3.org/1999/xlink"
   xmlns:sodipodi="http://sodipodi.sourceforge.net/DTD/sodipodi-0.dtd"
   xmlns:inkscape="http://www.inkscape.org/namespaces/inkscape"
   width="48px"
   height="48px"
   id="svg3142"
   version="1.1"
   inkscape:version="0.48.0 r9654"
   sodipodi:docname="plank.svg">
  <defs
     id="defs3144">
    <linearGradient
       inkscape:collect="always"
       xlink:href="#linearGradient3707-319-631-407-324"
       id="linearGradient4021"
       x1="24.345343"
       y1="36.065216"
       x2="24.345343"
       y2="5.5151925"
       gradientUnits="userSpaceOnUse"
       gradientTransform="translate(0,-1)" />
    <linearGradient
       id="linearGradient3707-319-631-407-324">
      <stop
         id="stop3760"
         style="stop-color:#185f9a;stop-opacity:1;"
         offset="0" />
      <stop
         id="stop3762"
         style="stop-color:#599ec9;stop-opacity:1;"
         offset="1" />
    </linearGradient>
    <linearGradient
       inkscape:collect="always"
       xlink:href="#linearGradient3707-319-631-407-1-846-5-4-5"
       id="linearGradient3057"
       gradientUnits="userSpaceOnUse"
       gradientTransform="matrix(-0.4,0,0,0.4,24.345184,29.400001)"
       x1="19.874987"
       y1="38.245197"
       x2="19.874987"
       y2="-61.256123" />
    <linearGradient
       id="linearGradient3707-319-631-407-1-846-5-4-5">
      <stop
         id="stop3788-4-8-9"
         style="stop-color:#365a7c;stop-opacity:1"
         offset="0" />
      <stop
         id="stop3790-2-1-9"
         style="stop-color:#5ea1ca;stop-opacity:1;"
         offset="1" />
    </linearGradient>
    <linearGradient
       inkscape:collect="always"
       xlink:href="#linearGradient8265-821-176-38-919-66-249-7-7"
       id="linearGradient3568"
       gradientUnits="userSpaceOnUse"
       gradientTransform="matrix(0.82498024,0,0,1.3012336,4.1618797,-1.4329212)"
       x1="16.626165"
       y1="15.298182"
       x2="20.054544"
       y2="24.627615" />
    <linearGradient
       id="linearGradient8265-821-176-38-919-66-249-7-7">
      <stop
         offset="0"
         style="stop-color:#ffffff;stop-opacity:1"
         id="stop2687-1-9" />
      <stop
         offset="1"
         style="stop-color:#ffffff;stop-opacity:0"
         id="stop2689-5-4" />
    </linearGradient>
    <linearGradient
       inkscape:collect="always"
       xlink:href="#linearGradient3924"
       id="linearGradient2959"
       gradientUnits="userSpaceOnUse"
       gradientTransform="translate(3.7e-6,1.00001)"
       x1="23.99999"
       y1="4.999989"
       x2="23.99999"
       y2="43" />
    <linearGradient
       id="linearGradient3924">
      <stop
         offset="0"
         style="stop-color:#ffffff;stop-opacity:1;"
         id="stop3926" />
      <stop
         id="stop3928"
         style="stop-color:#ffffff;stop-opacity:0.23529412;"
         offset="0.06316455" />
      <stop
         offset="0.95056331"
         style="stop-color:#ffffff;stop-opacity:0.15686275;"
         id="stop3930" />
      <stop
         offset="1"
         style="stop-color:#ffffff;stop-opacity:0.39215687;"
         id="stop3932" />
    </linearGradient>
    <radialGradient
       r="19.99999"
       fy="8.4497671"
       fx="7.4956832"
       cy="8.4497671"
       cx="7.4956832"
       gradientTransform="matrix(1.9428467e-8,2.33699,-2.4722567,-4.3056275e-8,44.890104,-11.434799)"
       gradientUnits="userSpaceOnUse"
       id="radialGradient2874"
       xlink:href="#linearGradient2867-449-88-871-390-598-476-591-434-148-57-177"
       inkscape:collect="always" />
    <linearGradient
       id="linearGradient2867-449-88-871-390-598-476-591-434-148-57-177">
      <stop
         id="stop3750"
         style="stop-color:#90dbec;stop-opacity:1;"
         offset="0" />
      <stop
         id="stop3752"
         style="stop-color:#55c1ec;stop-opacity:1;"
         offset="0.26238" />
      <stop
         id="stop3754"
         style="stop-color:#3689e6;stop-opacity:1;"
         offset="0.704952" />
      <stop
         id="stop3756"
         style="stop-color:#2b63a0;stop-opacity:1;"
         offset="1" />
    </linearGradient>
    <linearGradient
       y2="3.8990016"
       x2="24"
       y1="44"
       x1="24"
       gradientTransform="translate(1.2e-6,1)"
       gradientUnits="userSpaceOnUse"
       id="linearGradient2876"
       xlink:href="#linearGradient3707-319-631-407-324"
       inkscape:collect="always" />
    <radialGradient
       inkscape:collect="always"
       xlink:href="#linearGradient3688-166-749"
       id="radialGradient3013"
       gradientUnits="userSpaceOnUse"
       gradientTransform="matrix(2.003784,0,0,1.4,27.98813,-17.4)"
       cx="4.9929786"
       cy="43.5"
       fx="4.9929786"
       fy="43.5"
       r="2.5" />
    <linearGradient
       id="linearGradient3688-166-749">
      <stop
         offset="0"
         style="stop-color:#181818;stop-opacity:1"
         id="stop2883" />
      <stop
         offset="1"
         style="stop-color:#181818;stop-opacity:0"
         id="stop2885" />
    </linearGradient>
    <radialGradient
       inkscape:collect="always"
       xlink:href="#linearGradient3688-464-309"
       id="radialGradient3015"
       gradientUnits="userSpaceOnUse"
       gradientTransform="matrix(2.003784,0,0,1.4,-20.01187,-104.4)"
       cx="4.9929786"
       cy="43.5"
       fx="4.9929786"
       fy="43.5"
       r="2.5" />
    <linearGradient
       id="linearGradient3688-464-309">
      <stop
         offset="0"
         style="stop-color:#181818;stop-opacity:1"
         id="stop2889" />
      <stop
         offset="1"
         style="stop-color:#181818;stop-opacity:0"
         id="stop2891" />
    </linearGradient>
    <linearGradient
       id="linearGradient3702-501-757">
      <stop
         offset="0"
         style="stop-color:#181818;stop-opacity:0"
         id="stop2895" />
      <stop
         offset="0.5"
         style="stop-color:#181818;stop-opacity:1"
         id="stop2897" />
      <stop
         offset="1"
         style="stop-color:#181818;stop-opacity:0"
         id="stop2899" />
    </linearGradient>
    <linearGradient
       y2="39.999443"
       x2="25.058096"
       y1="47.027729"
       x1="25.058096"
       gradientUnits="userSpaceOnUse"
       id="linearGradient3140"
       xlink:href="#linearGradient3702-501-757"
       inkscape:collect="always" />
  </defs>
  <sodipodi:namedview
     id="base"
     pagecolor="#ffffff"
     bordercolor="#666666"
     borderopacity="1.0"
     inkscape:pageopacity="0.0"
     inkscape:pageshadow="2"
     inkscape:zoom="7"
     inkscape:cx="1.9285714"
     inkscape:cy="24"
     inkscape:current-layer="layer1"
     showgrid="true"
     inkscape:grid-bbox="true"
     inkscape:document-units="px"
     inkscape:window-width="1280"
     inkscape:window-height="691"
     inkscape:window-x="0"
     inkscape:window-y="24"
     inkscape:window-maximized="1" />
  <metadata
     id="metadata3147">
    <rdf:RDF>
      <cc:Work
         rdf:about="">
        <dc:format>image/svg+xml</dc:format>
        <dc:type
           rdf:resource="http://purl.org/dc/dcmitype/StillImage" />
        <dc:title />
      </cc:Work>
    </rdf:RDF>
  </metadata>
  <g
     id="layer1"
     inkscape:label="Layer 1"
     inkscape:groupmode="layer">
    <g
       style="opacity:0.4"
       id="g3712"
       transform="matrix(1.1578952,0,0,0.57142859,-3.789484,19.142856)">
      <rect
         style="fill:url(#radialGradient3013);fill-opacity:1;stroke:none"
         id="rect2801"
         y="40"
         x="38"
         height="7"
         width="5" />
      <rect
         style="fill:url(#radialGradient3015);fill-opacity:1;stroke:none"
         id="rect3696"
         transform="scale(-1,-1)"
         y="-47"
         x="-10"
         height="7"
         width="5" />
      <rect
         style="fill:url(#linearGradient3140);fill-opacity:1;stroke:none"
         id="rect3700"
         y="40"
         x="10"
         height="7.0000005"
         width="28" />
    </g>
    <rect
       style="color:#000000;fill:url(#radialGradient2874);fill-opacity:1;fill-rule:nonzero;stroke:url(#linearGradient2876);stroke-width:1;stroke-linecap:round;stroke-linejoin:round;stroke-miterlimit:4;stroke-opacity:1;stroke-dasharray:none;stroke-dashoffset:0;marker:none;visibility:visible;display:inline;overflow:visible;enable-background:accumulate"
       id="rect5505-21"
       y="5.5"
       x="4.5"
       ry="2"
       rx="2"
       height="39"
       width="39" />
    <rect
       style="opacity:0.5;fill:none;stroke:url(#linearGradient2959);stroke-width:1;stroke-linecap:round;stroke-linejoin:round;stroke-miterlimit:4;stroke-opacity:1;stroke-dasharray:none;stroke-dashoffset:0"
       id="rect6741"
       y="6.5"
       x="5.5"
       ry="1"
       rx="1"
       height="37"
       width="37" />
    <path
       inkscape:connector-curvature="0"
       style="opacity:0.2;fill:url(#linearGradient3568);fill-opacity:1;fill-rule:evenodd;stroke:none"
       id="path3333"
       d="M 6.2169167,6 C 5.5377266,6 5,6.9124652 5,7.8 L 5.0126445,30 C 6.1058123,29.975834 42.170261,21.153092 43,20.728709 L 43,7.8 C 43,7.1215957 42.468817,6 41.88071,6 L 6.2169214,6 z"
       sodipodi:nodetypes="ccccccc" />
    <path
       inkscape:connector-curvature="0"
       d="m 24,9.000001 c -1.657273,0 -3.000498,1.344024 -3,3 -3.87e-4,1.286831 0.829473,2.355466 1.96875,2.781249 8.09e-4,0.409336 0.0038,0.825647 0,1.21875 l -4.4375,0 C 18.235536,16 18,16.235535 18,16.53125 l 0,0.9375 C 18,17.764464 18.235535,18 18.53125,18 l 4.40625,0 c -0.0063,3.217046 0.03125,6.650423 0.03125,11.125 0.0079,0.738048 0.02882,1.480992 0,2.21875 0.0075,0.119405 -0.05971,0.241968 -0.15625,0.3125 -0.273281,0.20439 -0.601683,0.271726 -0.9375,0.28125 -0.533998,-0.0033 -0.864084,-0.13973 -1.375,-0.28125 -1.153816,-0.337769 -2.255088,-0.809792 -3.3125,-1.375 -0.445202,-0.2471 -0.885128,-0.491892 -1.28125,-0.8125 -0.170735,-0.145823 -0.361896,-0.352753 -0.34375,-0.59375 0.02306,-0.182435 0.111792,-0.372873 0.3125,-0.40625 0.180897,-0.02868 0.340041,0.06455 0.5,0.125 0.137893,0.05953 0.240807,-0.104004 0.21875,-0.21875 -0.02219,-0.302288 -0.12482,-0.58209 -0.28125,-0.84375 -0.325462,-0.535935 -0.823908,-0.938483 -1.34375,-1.28125 -0.555021,-0.354838 -1.148372,-0.744976 -1.5,-1.3125 -0.06995,-0.104887 -0.155787,-0.274515 -0.3125,-0.21875 -0.217858,0.07074 -0.330796,0.28449 -0.4375,0.46875 -0.300222,0.571963 -0.458391,1.185055 -0.59375,1.8125 -0.111274,0.499231 -0.132618,1.022571 -0.09375,1.53125 0.04024,0.508972 0.07535,1.024696 0.28125,1.5 0.12967,0.312351 0.366421,0.568079 0.59375,0.8125 0.145058,-0.15354 0.2891,-0.318351 0.4375,-0.46875 0.192312,-0.193275 0.437292,-0.318762 0.71875,-0.28125 0.383079,0.04936 0.730205,0.277848 1.03125,0.5 0.424043,0.330115 0.81795,0.67948 1.25,1 0.683663,0.523049 1.4441,0.909861 2.21875,1.28125 0.645391,0.300045 1.299005,0.599734 1.96875,0.84375 0.11994,0.05244 0.252889,0.05006 0.375,0.09375 1.205386,0.501866 2.228147,1.07817 3.0625,2.125 0.0012,0.01437 -0.0012,0.04881 0,0.0625 0.0096,-0.01241 0.02162,-0.01897 0.03125,-0.03125 0.0096,0.01228 0.02168,0.01884 0.03125,0.03125 0.0063,-0.02891 -0.0062,-0.06472 0,-0.09375 0.831739,-1.034689 1.864425,-1.594929 3.0625,-2.09375 0.122111,-0.04369 0.25506,-0.04131 0.375,-0.09375 0.669745,-0.244016 1.323359,-0.543705 1.96875,-0.84375 0.77465,-0.371389 1.535087,-0.758201 2.21875,-1.28125 0.43205,-0.32052 0.825957,-0.669885 1.25,-1 0.301045,-0.222152 0.648171,-0.450637 1.03125,-0.5 0.281458,-0.03751 0.526438,0.08797 0.71875,0.28125 0.1484,0.150399 0.292442,0.31521 0.4375,0.46875 0.227329,-0.244421 0.46408,-0.500149 0.59375,-0.8125 0.205902,-0.475304 0.241012,-0.991028 0.28125,-1.5 C 36.00762,28.022571 35.98627,27.499231 35.875,27 c -0.135359,-0.627445 -0.293528,-1.240537 -0.59375,-1.8125 -0.106704,-0.18426 -0.219642,-0.398005 -0.4375,-0.46875 -0.156713,-0.05577 -0.242554,0.113863 -0.3125,0.21875 -0.351628,0.567524 -0.944979,0.957662 -1.5,1.3125 -0.519842,0.342767 -1.018288,0.745315 -1.34375,1.28125 -0.15643,0.26166 -0.259056,0.541461 -0.28125,0.84375 -0.02206,0.114746 0.08086,0.278284 0.21875,0.21875 0.159959,-0.06045 0.319103,-0.153682 0.5,-0.125 0.200708,0.03338 0.289436,0.223815 0.3125,0.40625 0.01815,0.240997 -0.173015,0.447927 -0.34375,0.59375 -0.396122,0.320608 -0.836048,0.5654 -1.28125,0.8125 -1.057412,0.565208 -2.158684,1.037231 -3.3125,1.375 -0.510916,0.14152 -0.841002,0.277946 -1.375,0.28125 -0.335817,-0.0095 -0.664219,-0.07686 -0.9375,-0.28125 -0.09654,-0.07053 -0.163781,-0.193095 -0.15625,-0.3125 -0.02882,-0.737758 -0.0079,-1.480702 0,-2.21875 1e-6,-4.474577 0.03755,-7.907954 0.03125,-11.125 l 4.40625,0 C 29.764465,18 30,17.764464 30,17.46875 l 0,-0.9375 C 30,16.235535 29.764464,16 29.46875,16 l -4.4375,0 c -0.0038,-0.393103 -8.09e-4,-0.809414 0,-1.21875 1.139275,-0.425783 1.969138,-1.494418 1.96875,-2.781249 4.99e-4,-1.655976 -1.342733,-3 -3,-3 z m -0.0625,1.46875 c 0.8045,0 1.468993,0.633629 1.46875,1.4375 2.42e-4,0.803871 -0.66425,1.46875 -1.46875,1.46875 -0.804502,0 -1.468992,-0.664877 -1.46875,-1.46875 -2.42e-4,-0.803871 0.664248,-1.4375 1.46875,-1.4375 z"
       id="path1919"
       style="opacity:0.4;fill:#ffffff;fill-opacity:1;fill-rule:nonzero;stroke:none" />
    <path
       style="opacity:0.7;fill:#ffffff;fill-opacity:0.58823529;stroke:#ffffff;stroke-width:0.99999994px;stroke-linecap:butt;stroke-linejoin:miter;stroke-opacity:1"
       d="m 6.5,41.5 35,0 -2,-4 -31,0 z"
       id="path4306"
       inkscape:connector-curvature="0"
       sodipodi:nodetypes="ccccc" />
    <path
       inkscape:connector-curvature="0"
       id="rect3038-4-4-9"
       style="opacity:0.3;color:#000000;fill:url(#linearGradient3057);fill-opacity:1;fill-rule:nonzero;stroke:none;stroke-width:1;marker:none;visibility:visible;display:inline;overflow:visible;enable-background:accumulate"
       d="m 38.824537,33 -5.649074,0 C 32.524256,33 32,33.524256 32,34.175463 l 0,5.649074 C 32,40.475744 32.524256,41 33.175463,41 l 5.649074,0 C 39.475744,41 40,40.475744 40,39.824537 l 0,-5.649074 C 40,33.524256 39.475744,33 38.824537,33 z m -16,0 -5.649074,0 C 16.524256,33 16,33.524256 16,34.175463 l 0,5.649074 C 16,40.475744 16.524256,41 17.175463,41 l 5.649074,0 C 23.475744,41 24,40.475744 24,39.824537 l 0,-5.649074 C 24,33.524256 23.475744,33 22.824537,33 z m -8,0 -5.649074,0 C 8.5242565,33 8,33.524256 8,34.175463 l 0,5.649074 C 8,40.475744 8.5242565,41 9.175463,41 l 5.649074,0 C 15.475744,41 16,40.475744 16,39.824537 l 0,-5.649074 C 16,33.524256 15.475744,33 14.824537,33 z m 16,0 -5.649074,0 C 24.524256,33 24,33.524256 24,34.175463 l 0,5.649074 C 24,40.475744 24.524256,41 25.175463,41 l 5.649074,0 C 31.475744,41 32,40.475744 32,39.824537 l 0,-5.649074 C 32,33.524256 31.475744,33 30.824537,33 z" />
    <path
       inkscape:connector-curvature="0"
       d="m 24,8.000001 c -1.657273,0 -3.000498,1.344024 -3,3 -3.87e-4,1.286831 0.829473,2.355466 1.96875,2.78125 8.09e-4,0.409336 0.0038,0.825647 0,1.218749 l -4.4375,0 C 18.235536,15 18,15.235535 18,15.53125 l 0,0.9375 C 18,16.764464 18.235535,17 18.53125,17 l 4.40625,0 c -0.0063,3.217046 0.03125,6.650423 0.03125,11.125 0.0079,0.738048 0.02882,1.480992 0,2.21875 0.0075,0.119405 -0.05971,0.241968 -0.15625,0.3125 -0.273281,0.20439 -0.601683,0.271726 -0.9375,0.28125 -0.533998,-0.0033 -0.864084,-0.13973 -1.375,-0.28125 -1.153816,-0.337769 -2.255088,-0.809792 -3.3125,-1.375 -0.445202,-0.2471 -0.885128,-0.491893 -1.28125,-0.8125 -0.170735,-0.145824 -0.361896,-0.352753 -0.34375,-0.59375 0.02306,-0.182435 0.111792,-0.372873 0.3125,-0.40625 0.180897,-0.02868 0.340041,0.06455 0.5,0.125 0.137893,0.05953 0.240807,-0.104004 0.21875,-0.21875 -0.02219,-0.302288 -0.12482,-0.58209 -0.28125,-0.84375 -0.325462,-0.535935 -0.823908,-0.938483 -1.34375,-1.28125 -0.555021,-0.354838 -1.148372,-0.744976 -1.5,-1.3125 -0.06995,-0.104887 -0.155787,-0.274515 -0.3125,-0.21875 -0.217858,0.07074 -0.330796,0.28449 -0.4375,0.46875 -0.300222,0.571963 -0.458391,1.185055 -0.59375,1.8125 -0.111274,0.499231 -0.132618,1.022571 -0.09375,1.53125 0.04024,0.508971 0.07535,1.024696 0.28125,1.5 0.12967,0.312351 0.366421,0.568079 0.59375,0.8125 0.145058,-0.15354 0.2891,-0.318351 0.4375,-0.46875 0.192312,-0.193275 0.437292,-0.318762 0.71875,-0.28125 0.383079,0.04936 0.730205,0.277848 1.03125,0.5 0.424043,0.330115 0.81795,0.67948 1.25,1 0.683663,0.523049 1.4441,0.909861 2.21875,1.28125 0.645391,0.300045 1.299005,0.599734 1.96875,0.84375 0.11994,0.05244 0.252889,0.05006 0.375,0.09375 1.205386,0.501866 2.228147,1.07817 3.0625,2.125 0.0012,0.01437 -0.0012,0.04881 0,0.0625 0.0096,-0.01241 0.02162,-0.01897 0.03125,-0.03125 0.0096,0.01228 0.02168,0.01884 0.03125,0.03125 0.0063,-0.02891 -0.0062,-0.06472 0,-0.09375 0.831739,-1.034689 1.864425,-1.594929 3.0625,-2.09375 0.122111,-0.04369 0.25506,-0.04131 0.375,-0.09375 0.669745,-0.244016 1.323359,-0.543705 1.96875,-0.84375 0.77465,-0.371389 1.535087,-0.758201 2.21875,-1.28125 0.43205,-0.32052 0.825957,-0.669885 1.25,-1 0.301045,-0.222152 0.648171,-0.450637 1.03125,-0.5 0.281458,-0.03751 0.526438,0.08797 0.71875,0.28125 0.1484,0.150399 0.292442,0.31521 0.4375,0.46875 0.227329,-0.244421 0.46408,-0.500149 0.59375,-0.8125 0.205902,-0.475304 0.241012,-0.991029 0.28125,-1.5 C 36.00762,27.022571 35.98627,26.499231 35.875,26 c -0.135359,-0.627445 -0.293528,-1.240537 -0.59375,-1.8125 -0.106704,-0.18426 -0.219642,-0.398005 -0.4375,-0.46875 -0.156713,-0.05577 -0.242554,0.113863 -0.3125,0.21875 -0.351628,0.567524 -0.944979,0.957662 -1.5,1.3125 -0.519842,0.342767 -1.018288,0.745315 -1.34375,1.28125 -0.15643,0.26166 -0.259056,0.541461 -0.28125,0.84375 -0.02206,0.114746 0.08086,0.278284 0.21875,0.21875 0.159959,-0.06045 0.319103,-0.153682 0.5,-0.125 0.200708,0.03338 0.289436,0.223815 0.3125,0.40625 0.01815,0.240997 -0.173015,0.447926 -0.34375,0.59375 -0.396122,0.320607 -0.836048,0.5654 -1.28125,0.8125 -1.057412,0.565208 -2.158684,1.037231 -3.3125,1.375 -0.510916,0.14152 -0.841002,0.277946 -1.375,0.28125 -0.335817,-0.0095 -0.664219,-0.07686 -0.9375,-0.28125 -0.09654,-0.07053 -0.163781,-0.193095 -0.15625,-0.3125 -0.02882,-0.737758 -0.0079,-1.480702 0,-2.21875 1e-6,-4.474577 0.03755,-7.907954 0.03125,-11.125 l 4.40625,0 C 29.764465,17 30,16.764464 30,16.46875 l 0,-0.9375 C 30,15.235535 29.764464,15 29.46875,15 l -4.4375,0 c -0.0038,-0.393102 -8.09e-4,-0.809413 0,-1.218749 1.139275,-0.425784 1.969138,-1.494419 1.96875,-2.78125 4.99e-4,-1.655976 -1.342733,-3 -3,-3 z m -0.0625,1.46875 c 0.8045,0 1.468993,0.633629 1.46875,1.4375 2.42e-4,0.803871 -0.66425,1.46875 -1.46875,1.46875 -0.804502,0 -1.468992,-0.664877 -1.46875,-1.46875 -2.42e-4,-0.803871 0.664248,-1.4375 1.46875,-1.4375 z"
       id="path3361"
       style="fill:url(#linearGradient4021);fill-opacity:1;fill-rule:nonzero;stroke:none" />
    <path
       inkscape:connector-curvature="0"
       id="rect3038-44-1"
       style="color:#000000;fill:#f7f7f7;fill-opacity:1;fill-rule:nonzero;stroke:#ffffff;stroke-width:0.98542726;stroke-linecap:butt;stroke-linejoin:miter;stroke-miterlimit:4;stroke-opacity:1;stroke-dashoffset:0;marker:none;visibility:visible;display:inline;overflow:visible;enable-background:accumulate"
       d="m 38.007286,34.492714 -4.014573,0 c -0.277,0 -0.5,0.223 -0.5,0.5 l 0,4.014573 c 0,0.277 0.223,0.5 0.5,0.5 l 4.014573,0 c 0.277,0 0.5,-0.223 0.5,-0.5 l 0,-4.014573 c 0,-0.277 -0.223,-0.5 -0.5,-0.5 z m -16,0 -4.014573,0 c -0.277,0 -0.5,0.223 -0.5,0.5 l 0,4.014573 c 0,0.277 0.223,0.5 0.5,0.5 l 4.014573,0 c 0.277,0 0.5,-0.223 0.5,-0.5 l 0,-4.014573 c 0,-0.277 -0.223,-0.5 -0.5,-0.5 z m -8,0 -4.0145725,0 c -0.277,0 -0.5,0.223 -0.5,0.5 l 0,4.014573 c 0,0.277 0.223,0.5 0.5,0.5 l 4.0145725,0 c 0.277,0 0.5,-0.223 0.5,-0.5 l 0,-4.014573 c 0,-0.277 -0.223,-0.5 -0.5,-0.5 z m 16,0 -4.014573,0 c -0.277,0 -0.5,0.223 -0.5,0.5 l 0,4.014573 c 0,0.277 0.223,0.5 0.5,0.5 l 4.014573,0 c 0.277,0 0.5,-0.223 0.5,-0.5 l 0,-4.014573 c 0,-0.277 -0.223,-0.5 -0.5,-0.5 z" />
  </g>
</svg>
