<?xml version="1.0" encoding="UTF-8" standalone="no"?>
<!-- Created with Inkscape (http://www.inkscape.org/) -->

<svg
   xmlns:dc="http://purl.org/dc/elements/1.1/"
   xmlns:cc="http://creativecommons.org/ns#"
   xmlns:rdf="http://www.w3.org/1999/02/22-rdf-syntax-ns#"
   xmlns:svg="http://www.w3.org/2000/svg"
   xmlns="http://www.w3.org/2000/svg"
   xmlns:xlink="http://www.w3.org/1999/xlink"
   xmlns:sodipodi="http://sodipodi.sourceforge.net/DTD/sodipodi-0.dtd"
   xmlns:inkscape="http://www.inkscape.org/namespaces/inkscape"
   width="128"
   height="128"
   id="svg3249"
   version="1.1"
   inkscape:version="0.48.0 r9654"
   sodipodi:docname="plank.svg">
  <defs
     id="defs3251">
    <linearGradient
       inkscape:collect="always"
       id="linearGradient4212">
      <stop
         style="stop-color:#ffffff;stop-opacity:1;"
         offset="0"
         id="stop4214" />
      <stop
         style="stop-color:#ffffff;stop-opacity:0;"
         offset="1"
         id="stop4216" />
    </linearGradient>
    <linearGradient
       inkscape:collect="always"
       id="linearGradient4204">
      <stop
         style="stop-color:#f7f7f7;stop-opacity:1;"
         offset="0"
         id="stop4206" />
      <stop
         style="stop-color:#f7f7f7;stop-opacity:0;"
         offset="1"
         id="stop4208" />
    </linearGradient>
    <linearGradient
       inkscape:collect="always"
       xlink:href="#linearGradient8265-821-176-38-919-66-249-7-7"
       id="linearGradient3165"
       gradientUnits="userSpaceOnUse"
       gradientTransform="matrix(2.2144204,0,0,3.4699564,10.750311,-67.821123)"
       x1="16.626165"
       y1="15.298182"
       x2="20.054544"
       y2="24.627615" />
    <linearGradient
       id="linearGradient8265-821-176-38-919-66-249-7-7">
      <stop
         offset="0"
         style="stop-color:#ffffff;stop-opacity:1"
         id="stop2687-1-9" />
      <stop
         offset="1"
         style="stop-color:#ffffff;stop-opacity:0"
         id="stop2689-5-4" />
    </linearGradient>
    <linearGradient
       y2="43"
       x2="23.99999"
       y1="4.999989"
       x1="23.99999"
       gradientTransform="matrix(2.7297298,0,0,2.7297298,-1.5135111,-62.513486)"
       gradientUnits="userSpaceOnUse"
       id="linearGradient3128"
       xlink:href="#linearGradient3924"
       inkscape:collect="always" />
    <linearGradient
       id="linearGradient3924">
      <stop
         id="stop3926"
         style="stop-color:#ffffff;stop-opacity:1;"
         offset="0" />
      <stop
         offset="0.06316455"
         style="stop-color:#ffffff;stop-opacity:0.23529412;"
         id="stop3928" />
      <stop
         id="stop3930"
         style="stop-color:#ffffff;stop-opacity:0.15686275;"
         offset="0.95056331" />
      <stop
         id="stop3932"
         style="stop-color:#ffffff;stop-opacity:0.39215687;"
         offset="1" />
    </linearGradient>
    <radialGradient
       inkscape:collect="always"
       xlink:href="#linearGradient2867-449-88-871-390-598-476-591-434-148-57-177"
       id="radialGradient3171"
       gradientUnits="userSpaceOnUse"
       gradientTransform="matrix(5.1311087e-8,6.1720513,-6.5292943,-1.1371274e-7,119.17132,-93.225249)"
       cx="7.4956832"
       cy="8.4497671"
       fx="7.4956832"
       fy="8.4497671"
       r="19.99999" />
    <linearGradient
       id="linearGradient2867-449-88-871-390-598-476-591-434-148-57-177">
      <stop
         id="stop3750"
         style="stop-color:#90dbec;stop-opacity:1;"
         offset="0" />
      <stop
         id="stop3752"
         style="stop-color:#55c1ec;stop-opacity:1;"
         offset="0.26238" />
      <stop
         id="stop3754"
         style="stop-color:#3689e6;stop-opacity:1;"
         offset="0.704952" />
      <stop
         id="stop3756"
         style="stop-color:#2b63a0;stop-opacity:1;"
         offset="1" />
    </linearGradient>
    <linearGradient
       inkscape:collect="always"
       xlink:href="#linearGradient3707-319-631-407-324"
       id="linearGradient3173"
       gradientUnits="userSpaceOnUse"
       gradientTransform="matrix(2.641026,0,0,2.641026,0.6153903,-60.384616)"
       x1="24"
       y1="44"
       x2="24"
       y2="3.8990016" />
    <linearGradient
       id="linearGradient3707-319-631-407-324">
      <stop
         id="stop3760"
         style="stop-color:#185f9a;stop-opacity:1;"
         offset="0" />
      <stop
         id="stop3762"
         style="stop-color:#599ec9;stop-opacity:1;"
         offset="1" />
    </linearGradient>
    <radialGradient
       cx="4.9929786"
       cy="43.5"
       r="2.5"
       fx="4.9929786"
       fy="43.5"
       id="radialGradient2455"
       xlink:href="#linearGradient3688-166-749"
       gradientUnits="userSpaceOnUse"
       gradientTransform="matrix(2.003784,0,0,1.4,27.98813,-17.4)" />
    <linearGradient
       id="linearGradient3688-166-749">
      <stop
         id="stop2883"
         style="stop-color:#181818;stop-opacity:1"
         offset="0" />
      <stop
         id="stop2885"
         style="stop-color:#181818;stop-opacity:0"
         offset="1" />
    </linearGradient>
    <radialGradient
       cx="4.9929786"
       cy="43.5"
       r="2.5"
       fx="4.9929786"
       fy="43.5"
       id="radialGradient2457"
       xlink:href="#linearGradient3688-464-309"
       gradientUnits="userSpaceOnUse"
       gradientTransform="matrix(2.003784,0,0,1.4,-20.01187,-104.4)" />
    <linearGradient
       id="linearGradient3688-464-309">
      <stop
         id="stop2889"
         style="stop-color:#181818;stop-opacity:1"
         offset="0" />
      <stop
         id="stop2891"
         style="stop-color:#181818;stop-opacity:0"
         offset="1" />
    </linearGradient>
    <linearGradient
       x1="25.058096"
       y1="47.027729"
       x2="25.058096"
       y2="39.999443"
       id="linearGradient2459"
       xlink:href="#linearGradient3702-501-757"
       gradientUnits="userSpaceOnUse" />
    <linearGradient
       id="linearGradient3702-501-757">
      <stop
         id="stop2895"
         style="stop-color:#181818;stop-opacity:0"
         offset="0" />
      <stop
         id="stop2897"
         style="stop-color:#181818;stop-opacity:1"
         offset="0.5" />
      <stop
         id="stop2899"
         style="stop-color:#181818;stop-opacity:0"
         offset="1" />
    </linearGradient>
    <linearGradient
       id="linearGradient3707-319-631-407-1-846-5-4-5">
      <stop
         offset="0"
         style="stop-color:#365a7c;stop-opacity:1"
         id="stop3788-4-8-9" />
      <stop
         offset="1"
         style="stop-color:#5ea1ca;stop-opacity:1;"
         id="stop3790-2-1-9" />
    </linearGradient>
    <linearGradient
       inkscape:collect="always"
       xlink:href="#linearGradient3707-319-631-407-1-846-5-4-5"
       id="linearGradient3253"
       gradientUnits="userSpaceOnUse"
       gradientTransform="matrix(-0.80000023,0,0,0.80000023,56.690364,20.800009)"
       x1="19.874987"
       y1="38.245197"
       x2="19.874987"
       y2="-61.256123" />
    <linearGradient
       id="linearGradient3707-319-631-407-1-846-5-4-5-0">
      <stop
         offset="0"
         style="stop-color:#365a7c;stop-opacity:1"
         id="stop3788-4-8-9-2" />
      <stop
         offset="1"
         style="stop-color:#5ea1ca;stop-opacity:1;"
         id="stop3790-2-1-9-7" />
    </linearGradient>
    <linearGradient
       y2="-61.256123"
       x2="19.874987"
       y1="38.245197"
       x1="19.874987"
       gradientTransform="matrix(-0.90000026,0,0,0.90000026,59.776659,18.900009)"
       gradientUnits="userSpaceOnUse"
       id="linearGradient3270"
       xlink:href="#linearGradient3707-319-631-407-1-846-5-4-5-0"
       inkscape:collect="always" />
    <linearGradient
       id="linearGradient3707-319-631-407-1-846-5-4-5-5">
      <stop
         offset="0"
         style="stop-color:#365a7c;stop-opacity:1"
         id="stop3788-4-8-9-3" />
      <stop
         offset="1"
         style="stop-color:#5ea1ca;stop-opacity:1;"
         id="stop3790-2-1-9-4" />
    </linearGradient>
    <linearGradient
       id="linearGradient3707-319-631-407-1-846-5-4-5-0-0">
      <stop
         offset="0"
         style="stop-color:#365a7c;stop-opacity:1"
         id="stop3788-4-8-9-2-2" />
      <stop
         offset="1"
         style="stop-color:#5ea1ca;stop-opacity:1;"
         id="stop3790-2-1-9-7-0" />
    </linearGradient>
    <linearGradient
       inkscape:collect="always"
       xlink:href="#linearGradient3707-319-631-407-1-846-5-4-5-7"
       id="linearGradient3253-64"
       gradientUnits="userSpaceOnUse"
       gradientTransform="matrix(-0.80000023,0,0,0.80000023,99.690364,20.800009)"
       x1="19.874987"
       y1="38.245197"
       x2="19.874987"
       y2="-61.256123" />
    <linearGradient
       id="linearGradient3707-319-631-407-1-846-5-4-5-7">
      <stop
         offset="0"
         style="stop-color:#365a7c;stop-opacity:1"
         id="stop3788-4-8-9-4" />
      <stop
         offset="1"
         style="stop-color:#5ea1ca;stop-opacity:1;"
         id="stop3790-2-1-9-8" />
    </linearGradient>
    <linearGradient
       id="linearGradient3707-319-631-407-1-846-5-4-5-0-8">
      <stop
         offset="0"
         style="stop-color:#365a7c;stop-opacity:1"
         id="stop3788-4-8-9-2-26" />
      <stop
         offset="1"
         style="stop-color:#5ea1ca;stop-opacity:1;"
         id="stop3790-2-1-9-7-06" />
    </linearGradient>
    <linearGradient
       y2="-61.256123"
       x2="19.874987"
       y1="38.245197"
       x1="19.874987"
       gradientTransform="matrix(-0.90000026,0,0,0.90000026,102.77666,18.900009)"
       gradientUnits="userSpaceOnUse"
       id="linearGradient4078-6"
       xlink:href="#linearGradient3707-319-631-407-1-846-5-4-5-0-8"
       inkscape:collect="always" />
    <linearGradient
       inkscape:collect="always"
       xlink:href="#linearGradient3707-319-631-407-1-846-5-4-5-3"
       id="linearGradient3253-1"
       gradientUnits="userSpaceOnUse"
       gradientTransform="matrix(-0.80000023,0,0,0.80000023,120.69036,20.800009)"
       x1="19.874987"
       y1="38.245197"
       x2="19.874987"
       y2="-61.256123" />
    <linearGradient
       id="linearGradient3707-319-631-407-1-846-5-4-5-3">
      <stop
         offset="0"
         style="stop-color:#365a7c;stop-opacity:1"
         id="stop3788-4-8-9-7" />
      <stop
         offset="1"
         style="stop-color:#5ea1ca;stop-opacity:1;"
         id="stop3790-2-1-9-72" />
    </linearGradient>
    <linearGradient
       id="linearGradient3707-319-631-407-1-846-5-4-5-0-4">
      <stop
         offset="0"
         style="stop-color:#365a7c;stop-opacity:1"
         id="stop3788-4-8-9-2-5" />
      <stop
         offset="1"
         style="stop-color:#5ea1ca;stop-opacity:1;"
         id="stop3790-2-1-9-7-2" />
    </linearGradient>
    <linearGradient
       y2="-61.256123"
       x2="19.874987"
       y1="38.245197"
       x1="19.874987"
       gradientTransform="matrix(-0.90000026,0,0,0.90000026,123.77666,18.900009)"
       gradientUnits="userSpaceOnUse"
       id="linearGradient4078-0"
       xlink:href="#linearGradient3707-319-631-407-1-846-5-4-5-0-4"
       inkscape:collect="always" />
    <linearGradient
       inkscape:collect="always"
       xlink:href="#linearGradient3707-319-631-407-1-846-5-4-5-5"
       id="linearGradient4178"
       gradientUnits="userSpaceOnUse"
       gradientTransform="matrix(-0.80000023,0,0,0.80000023,77.690364,20.800008)"
       x1="19.874987"
       y1="38.245197"
       x2="19.874987"
       y2="-61.256123" />
    <linearGradient
       inkscape:collect="always"
       xlink:href="#linearGradient3707-319-631-407-1-846-5-4-5-0-0"
       id="linearGradient4181"
       gradientUnits="userSpaceOnUse"
       gradientTransform="matrix(-0.90000026,0,0,0.90000026,80.776659,18.900009)"
       x1="19.874987"
       y1="38.245197"
       x2="19.874987"
       y2="-61.256123" />
    <linearGradient
       inkscape:collect="always"
       xlink:href="#linearGradient4204"
       id="linearGradient4210"
       x1="67.800003"
       y1="44.190922"
       x2="67.800003"
       y2="48.50642"
       gradientUnits="userSpaceOnUse"
       gradientTransform="translate(0,-0.99999923)" />
    <linearGradient
       inkscape:collect="always"
       xlink:href="#linearGradient4212"
       id="linearGradient4218"
       x1="67.800003"
       y1="44.190922"
       x2="67.800003"
       y2="48.50642"
       gradientUnits="userSpaceOnUse"
       gradientTransform="translate(0,-0.99999923)" />
  </defs>
  <sodipodi:namedview
     id="base"
     pagecolor="#ffffff"
     bordercolor="#666666"
     borderopacity="1.0"
     inkscape:pageopacity="0.0"
     inkscape:pageshadow="2"
     inkscape:zoom="7.1962614"
     inkscape:cx="64.353591"
     inkscape:cy="33.709024"
     inkscape:current-layer="layer1"
     showgrid="true"
     inkscape:document-units="px"
     inkscape:grid-bbox="true"
     inkscape:window-width="1280"
     inkscape:window-height="753"
     inkscape:window-x="0"
     inkscape:window-y="24"
     inkscape:window-maximized="1"
     showguides="true"
     inkscape:guide-bbox="true" />
  <metadata
     id="metadata3254">
    <rdf:RDF>
      <cc:Work
         rdf:about="">
        <dc:format>image/svg+xml</dc:format>
        <dc:type
           rdf:resource="http://purl.org/dc/dcmitype/StillImage" />
        <dc:title />
      </cc:Work>
    </rdf:RDF>
  </metadata>
  <g
     id="layer1"
     inkscape:label="Layer 1"
     inkscape:groupmode="layer"
     transform="translate(0,64)">
    <g
       transform="matrix(2.9499988,0,0,1.2222234,-6.8000012,1.555537)"
       id="g2036"
       style="display:inline">
      <g
         transform="matrix(1.052632,0,0,1.285713,-1.263158,-13.42854)"
         id="g3712"
         style="opacity:0.4">
        <rect
           width="5"
           height="7"
           x="38"
           y="40"
           id="rect2801"
           style="fill:url(#radialGradient2455);fill-opacity:1;stroke:none" />
        <rect
           width="5"
           height="7"
           x="-10"
           y="-47"
           transform="scale(-1,-1)"
           id="rect3696"
           style="fill:url(#radialGradient2457);fill-opacity:1;stroke:none" />
        <rect
           width="28"
           height="7.0000005"
           x="10"
           y="40"
           id="rect3700"
           style="fill:url(#linearGradient2459);fill-opacity:1;stroke:none" />
      </g>
    </g>
    <rect
       style="color:#000000;fill:url(#radialGradient3171);fill-opacity:1;fill-rule:nonzero;stroke:url(#linearGradient3173);stroke-width:1;stroke-linecap:round;stroke-linejoin:round;stroke-miterlimit:4;stroke-opacity:1;stroke-dasharray:none;stroke-dashoffset:0;marker:none;visibility:visible;display:inline;overflow:visible;enable-background:accumulate"
       id="rect5505-21"
       y="-48.5"
       x="12.5"
       ry="6"
       rx="6"
       height="103"
       width="103" />
    <rect
       style="opacity:0.5;fill:none;stroke:url(#linearGradient3128);stroke-width:0.99999994;stroke-linecap:round;stroke-linejoin:round;stroke-miterlimit:4;stroke-opacity:1;stroke-dasharray:none;stroke-dashoffset:0"
       id="rect6741-7"
       y="-47.5"
       x="13.5"
       ry="5"
       rx="5"
       height="101"
       width="101" />
    <path
       inkscape:connector-curvature="0"
       style="opacity:0.2;fill:url(#linearGradient3165);fill-opacity:1;fill-rule:evenodd;stroke:none"
       id="path3333"
       d="M 17.680826,-48 C 15.857736,-48 13,-45.566759 13,-43.2 L 13.03394,16 C 15.968234,15.935551 112.7728,-7.591754 115,-8.723443 L 115,-43.2 c 0,-1.809077 -2.133,-4.8 -3.71161,-4.8 z"
       sodipodi:nodetypes="ccccccc" />
    <path
       style="opacity:0.7;fill:#ffffff;fill-opacity:0.58823529;stroke:#ffffff;stroke-width:0.99999994px;stroke-linecap:butt;stroke-linejoin:miter;stroke-opacity:1"
       d="m 17.5,47.5 93,0 -5,-10 -83,0 z"
       id="path4306"
       inkscape:connector-curvature="0"
       sodipodi:nodetypes="ccccc" />
    <path
       inkscape:connector-curvature="0"
       id="path3215-9-0"
       style="opacity:0.5;color:#000000;fill:url(#linearGradient4210);fill-opacity:1;fill-rule:nonzero;stroke:url(#linearGradient4218);stroke-width:0.98542726;stroke-linecap:butt;stroke-linejoin:miter;stroke-miterlimit:4;stroke-opacity:1;stroke-dashoffset:0;marker:none;visibility:visible;display:inline;overflow:visible;enable-background:accumulate"
       d="m 101.20961,43.492737 -10.419227,0 c -0.718897,0 -1.29767,0.578762 -1.29767,1.297672 l 0,10.419204 c 0,0.718912 0.578773,1.297673 1.29767,1.297673 l 10.419227,0 c 0.71891,0 1.29768,-0.578761 1.29768,-1.297673 l 0,-10.419204 c 0,-0.71891 -0.57877,-1.297672 -1.29768,-1.297672 z m -21.000003,0 -10.419223,0 c -0.718897,0 -1.29767,0.578762 -1.29767,1.297672 l 0,10.419204 c 0,0.718912 0.578773,1.297673 1.29767,1.297673 l 10.419223,0 c 0.718916,0 1.29768,-0.578761 1.29768,-1.297673 l 0,-10.419204 c 0,-0.71891 -0.578764,-1.297672 -1.29768,-1.297672 z m -22,0 -10.419223,0 c -0.718897,0 -1.29767,0.578762 -1.29767,1.297672 l 0,10.419204 c 0,0.718912 0.578773,1.297673 1.29767,1.297673 l 10.419223,0 c 0.718916,0 1.29768,-0.578761 1.29768,-1.297673 l 0,-10.419204 c 0,-0.71891 -0.578764,-1.297672 -1.29768,-1.297672 z m -21,0 -10.419223,0 c -0.718897,0 -1.29767,0.578762 -1.29767,1.297672 l 0,10.419204 c 0,0.718912 0.578773,1.297673 1.29767,1.297673 l 10.419223,0 c 0.718916,0 1.29768,-0.578761 1.29768,-1.297673 l 0,-10.419204 c 0,-0.71891 -0.578764,-1.297672 -1.29768,-1.297672 z" />
    <path
       style="opacity:0.15;color:#000000;fill:url(#linearGradient3270);fill-opacity:1;fill-rule:nonzero;stroke:none;stroke-width:1;marker:none;visibility:visible;display:inline;overflow:visible;enable-background:accumulate"
       d="m 38.355214,27.000009 -12.710428,0 C 24.179582,27.000009 23,28.179585 23,29.644802 l 0,12.71042 c 0,1.465216 1.179582,2.644793 2.644786,2.644793 l 12.710429,0 C 39.820409,45.000015 41,43.820438 41,42.355222 l 0,-12.71042 c 0,-1.465217 -1.179591,-2.644793 -2.644785,-2.644793 z"
       id="path3205-6"
       inkscape:connector-curvature="0" />
    <path
       style="opacity:0.3;color:#000000;fill:url(#linearGradient3253);fill-opacity:1;fill-rule:nonzero;stroke:none;stroke-width:1;marker:none;visibility:visible;display:inline;overflow:visible;enable-background:accumulate"
       d="m 37.649079,28.000009 -11.298158,0 C 25.048517,28.000009 24,29.048521 24,30.350936 l 0,11.298151 c 0,1.302414 1.048517,2.350927 2.350921,2.350927 l 11.298158,0 C 38.951475,44.000014 40,42.951501 40,41.649087 l 0,-11.298151 c 0,-1.302415 -1.048525,-2.350927 -2.350921,-2.350927 z"
       id="path3205"
       inkscape:connector-curvature="0" />
    <path
       style="opacity:0.15;color:#000000;fill:url(#linearGradient4181);fill-opacity:1;fill-rule:nonzero;stroke:none;stroke-width:1;marker:none;visibility:visible;display:inline;overflow:visible;enable-background:accumulate"
       d="m 59.355214,27.000008 -12.710428,0 C 45.179582,27.000008 44,28.179584 44,29.644801 l 0,12.71042 c 0,1.465216 1.179582,2.644793 2.644786,2.644793 l 12.710429,0 C 60.820409,45.000014 62,43.820438 62,42.355221 l 0,-12.71042 c 0,-1.465217 -1.179591,-2.644793 -2.644785,-2.644793 z"
       id="path3205-6-1"
       inkscape:connector-curvature="0" />
    <path
       style="opacity:0.3;color:#000000;fill:url(#linearGradient4178);fill-opacity:1;fill-rule:nonzero;stroke:none;stroke-width:1;marker:none;visibility:visible;display:inline;overflow:visible;enable-background:accumulate"
       d="m 58.649079,28.000008 -11.298158,0 C 46.048517,28.000008 45,29.048521 45,30.350936 l 0,11.298151 c 0,1.302414 1.048517,2.350927 2.350921,2.350927 l 11.298158,0 C 59.951475,44.000014 61,42.951501 61,41.649087 l 0,-11.298151 c 0,-1.302415 -1.048525,-2.350927 -2.350921,-2.350927 z"
       id="path3205-9"
       inkscape:connector-curvature="0" />
    <path
       style="opacity:0.15;color:#000000;fill:url(#linearGradient4078-6);fill-opacity:1;fill-rule:nonzero;stroke:none;stroke-width:1;marker:none;visibility:visible;display:inline;overflow:visible;enable-background:accumulate"
       d="m 81.355214,27.000008 -12.710428,0 C 67.179582,27.000008 66,28.179584 66,29.644801 l 0,12.71042 c 0,1.465216 1.179582,2.644793 2.644786,2.644793 l 12.710429,0 C 82.820409,45.000014 84,43.820438 84,42.355221 l 0,-12.71042 c 0,-1.465217 -1.179591,-2.644793 -2.644785,-2.644793 z"
       id="path3205-6-4"
       inkscape:connector-curvature="0" />
    <path
       style="opacity:0.3;color:#000000;fill:url(#linearGradient3253-64);fill-opacity:1;fill-rule:nonzero;stroke:none;stroke-width:1;marker:none;visibility:visible;display:inline;overflow:visible;enable-background:accumulate"
       d="m 80.649079,28.000009 -11.298158,0 C 68.048518,28.000009 67,29.048521 67,30.350936 l 0,11.298151 c 0,1.302414 1.048518,2.350927 2.350921,2.350927 l 11.298158,0 C 81.951475,44.000014 83,42.951501 83,41.649087 l 0,-11.298151 c 0,-1.302415 -1.048525,-2.350927 -2.350921,-2.350927 z"
       id="path3205-62"
       inkscape:connector-curvature="0" />
    <path
       style="opacity:0.15;color:#000000;fill:url(#linearGradient4078-0);fill-opacity:1;fill-rule:nonzero;stroke:none;stroke-width:1;marker:none;visibility:visible;display:inline;overflow:visible;enable-background:accumulate"
       d="m 102.35521,27.000008 -12.710424,0 C 88.179582,27.000008 87,28.179584 87,29.644801 l 0,12.71042 c 0,1.465216 1.179582,2.644793 2.644786,2.644793 l 12.710434,0 c 1.46519,0 2.64478,-1.179577 2.64478,-2.644793 l 0,-12.71042 c 0,-1.465217 -1.17959,-2.644793 -2.64478,-2.644793 z"
       id="path3205-6-2"
       inkscape:connector-curvature="0" />
    <path
       style="opacity:0.3;color:#000000;fill:url(#linearGradient3253-1);fill-opacity:1;fill-rule:nonzero;stroke:none;stroke-width:1;marker:none;visibility:visible;display:inline;overflow:visible;enable-background:accumulate"
       d="m 101.64908,28.000009 -11.298159,0 C 89.048517,28.000009 88,29.048521 88,30.350936 l 0,11.298151 c 0,1.302414 1.048517,2.350927 2.350921,2.350927 l 11.298159,0 c 1.3024,0 2.35092,-1.048513 2.35092,-2.350927 l 0,-11.298151 c 0,-1.302415 -1.04852,-2.350927 -2.35092,-2.350927 z"
       id="path3205-90"
       inkscape:connector-curvature="0" />
    <path
       id="path3215-9"
       style="color:#000000;fill:#f7f7f7;fill-opacity:1;fill-rule:nonzero;stroke:#ffffff;stroke-width:0.98542726;stroke-linecap:butt;stroke-linejoin:miter;stroke-miterlimit:4;stroke-opacity:1;stroke-dashoffset:0;marker:none;visibility:visible;display:inline;overflow:visible;enable-background:accumulate"
       d="m 101.20961,29.492737 -10.419227,0 c -0.718897,0 -1.29767,0.578762 -1.29767,1.297672 l 0,10.419204 c 0,0.718912 0.578773,1.297673 1.29767,1.297673 l 10.419227,0 c 0.71891,0 1.29768,-0.578761 1.29768,-1.297673 l 0,-10.419204 c 0,-0.71891 -0.57877,-1.297672 -1.29768,-1.297672 z m -21.000003,0 -10.419223,0 c -0.718897,0 -1.29767,0.578762 -1.29767,1.297672 l 0,10.419204 c 0,0.718912 0.578773,1.297673 1.29767,1.297673 l 10.419223,0 c 0.718916,0 1.29768,-0.578761 1.29768,-1.297673 l 0,-10.419204 c 0,-0.71891 -0.578764,-1.297672 -1.29768,-1.297672 z m -22,0 -10.419223,0 c -0.718897,0 -1.29767,0.578762 -1.29767,1.297672 l 0,10.419204 c 0,0.718912 0.578773,1.297673 1.29767,1.297673 l 10.419223,0 c 0.718916,0 1.29768,-0.578761 1.29768,-1.297673 l 0,-10.419204 c 0,-0.71891 -0.578764,-1.297672 -1.29768,-1.297672 z m -21,0 -10.419223,0 c -0.718897,0 -1.29767,0.578762 -1.29767,1.297672 l 0,10.419204 c 0,0.718912 0.578773,1.297673 1.29767,1.297673 l 10.419223,0 c 0.718916,0 1.29768,-0.578761 1.29768,-1.297673 l 0,-10.419204 c 0,-0.71891 -0.578764,-1.297672 -1.29768,-1.297672 z"
       inkscape:connector-curvature="0" />
  </g>
</svg>
