<?xml version="1.0" encoding="UTF-8" standalone="no"?>
<!-- Created with Inkscape (http://www.inkscape.org/) -->

<svg
   xmlns:dc="http://purl.org/dc/elements/1.1/"
   xmlns:cc="http://creativecommons.org/ns#"
   xmlns:rdf="http://www.w3.org/1999/02/22-rdf-syntax-ns#"
   xmlns:svg="http://www.w3.org/2000/svg"
   xmlns="http://www.w3.org/2000/svg"
   xmlns:xlink="http://www.w3.org/1999/xlink"
   xmlns:sodipodi="http://sodipodi.sourceforge.net/DTD/sodipodi-0.dtd"
   xmlns:inkscape="http://www.inkscape.org/namespaces/inkscape"
   width="48px"
   height="48px"
   id="svg3658"
   version="1.1"
   inkscape:version="0.48.0 r9654"
   sodipodi:docname="plank.svg">
  <defs
     id="defs3660">
    <linearGradient
       inkscape:collect="always"
       xlink:href="#linearGradient8265-821-176-38-919-66-249-7-7"
       id="linearGradient3568"
       gradientUnits="userSpaceOnUse"
       gradientTransform="matrix(0.82498024,0,0,1.3012336,4.1618797,-1.4329212)"
       x1="16.626165"
       y1="15.298182"
       x2="20.054544"
       y2="24.627615" />
    <linearGradient
       id="linearGradient8265-821-176-38-919-66-249-7-7">
      <stop
         offset="0"
         style="stop-color:#ffffff;stop-opacity:1"
         id="stop2687-1-9" />
      <stop
         offset="1"
         style="stop-color:#ffffff;stop-opacity:0"
         id="stop2689-5-4" />
    </linearGradient>
    <linearGradient
       inkscape:collect="always"
       xlink:href="#linearGradient3924"
       id="linearGradient2959"
       gradientUnits="userSpaceOnUse"
       gradientTransform="translate(3.7e-6,1.00001)"
       x1="23.99999"
       y1="4.999989"
       x2="23.99999"
       y2="43" />
    <linearGradient
       id="linearGradient3924">
      <stop
         offset="0"
         style="stop-color:#ffffff;stop-opacity:1;"
         id="stop3926" />
      <stop
         id="stop3928"
         style="stop-color:#ffffff;stop-opacity:0.23529412;"
         offset="0.06316455" />
      <stop
         offset="0.95056331"
         style="stop-color:#ffffff;stop-opacity:0.15686275;"
         id="stop3930" />
      <stop
         offset="1"
         style="stop-color:#ffffff;stop-opacity:0.39215687;"
         id="stop3932" />
    </linearGradient>
    <radialGradient
       r="19.99999"
       fy="8.4497671"
       fx="7.4956832"
       cy="8.4497671"
       cx="7.4956832"
       gradientTransform="matrix(1.9428467e-8,2.33699,-2.4722567,-4.3056275e-8,44.890104,-11.434799)"
       gradientUnits="userSpaceOnUse"
       id="radialGradient2874"
       xlink:href="#linearGradient2867-449-88-871-390-598-476-591-434-148-57-177"
       inkscape:collect="always" />
    <linearGradient
       id="linearGradient2867-449-88-871-390-598-476-591-434-148-57-177">
      <stop
         id="stop3750"
         style="stop-color:#90dbec;stop-opacity:1;"
         offset="0" />
      <stop
         id="stop3752"
         style="stop-color:#55c1ec;stop-opacity:1;"
         offset="0.26238" />
      <stop
         id="stop3754"
         style="stop-color:#3689e6;stop-opacity:1;"
         offset="0.704952" />
      <stop
         id="stop3756"
         style="stop-color:#2b63a0;stop-opacity:1;"
         offset="1" />
    </linearGradient>
    <linearGradient
       y2="3.8990016"
       x2="24"
       y1="44"
       x1="24"
       gradientTransform="translate(1.2e-6,1)"
       gradientUnits="userSpaceOnUse"
       id="linearGradient2876"
       xlink:href="#linearGradient3707-319-631-407-324"
       inkscape:collect="always" />
    <linearGradient
       id="linearGradient3707-319-631-407-324">
      <stop
         id="stop3760"
         style="stop-color:#185f9a;stop-opacity:1;"
         offset="0" />
      <stop
         id="stop3762"
         style="stop-color:#599ec9;stop-opacity:1;"
         offset="1" />
    </linearGradient>
    <radialGradient
       inkscape:collect="always"
       xlink:href="#linearGradient3688-166-749"
       id="radialGradient3013"
       gradientUnits="userSpaceOnUse"
       gradientTransform="matrix(2.003784,0,0,1.4,27.98813,-17.4)"
       cx="4.9929786"
       cy="43.5"
       fx="4.9929786"
       fy="43.5"
       r="2.5" />
    <linearGradient
       id="linearGradient3688-166-749">
      <stop
         offset="0"
         style="stop-color:#181818;stop-opacity:1"
         id="stop2883" />
      <stop
         offset="1"
         style="stop-color:#181818;stop-opacity:0"
         id="stop2885" />
    </linearGradient>
    <radialGradient
       inkscape:collect="always"
       xlink:href="#linearGradient3688-464-309"
       id="radialGradient3015"
       gradientUnits="userSpaceOnUse"
       gradientTransform="matrix(2.003784,0,0,1.4,-20.01187,-104.4)"
       cx="4.9929786"
       cy="43.5"
       fx="4.9929786"
       fy="43.5"
       r="2.5" />
    <linearGradient
       id="linearGradient3688-464-309">
      <stop
         offset="0"
         style="stop-color:#181818;stop-opacity:1"
         id="stop2889" />
      <stop
         offset="1"
         style="stop-color:#181818;stop-opacity:0"
         id="stop2891" />
    </linearGradient>
    <linearGradient
       id="linearGradient3702-501-757">
      <stop
         offset="0"
         style="stop-color:#181818;stop-opacity:0"
         id="stop2895" />
      <stop
         offset="0.5"
         style="stop-color:#181818;stop-opacity:1"
         id="stop2897" />
      <stop
         offset="1"
         style="stop-color:#181818;stop-opacity:0"
         id="stop2899" />
    </linearGradient>
    <linearGradient
       y2="39.999443"
       x2="25.058096"
       y1="47.027729"
       x1="25.058096"
       gradientUnits="userSpaceOnUse"
       id="linearGradient3656"
       xlink:href="#linearGradient3702-501-757"
       inkscape:collect="always" />
    <linearGradient
       id="linearGradient3707-319-631-407-1-846-5-4">
      <stop
         id="stop3788-4-8"
         style="stop-color:#365a7c;stop-opacity:1"
         offset="0" />
      <stop
         id="stop3790-2-1"
         style="stop-color:#5ea1ca;stop-opacity:1;"
         offset="1" />
    </linearGradient>
    <linearGradient
       inkscape:collect="always"
       xlink:href="#linearGradient3707-319-631-407-1-846-5-4"
       id="linearGradient3419"
       gradientUnits="userSpaceOnUse"
       gradientTransform="matrix(0.4,0,0,0.4,-16.345184,29.400001)"
       x1="19.874987"
       y1="44.520065"
       x2="19.874987"
       y2="5.2502403" />
    <linearGradient
       id="linearGradient3707-319-631-407-1-846-5-4-7">
      <stop
         id="stop3788-4-8-2"
         style="stop-color:#365a7c;stop-opacity:1"
         offset="0" />
      <stop
         id="stop3790-2-1-8"
         style="stop-color:#5ea1ca;stop-opacity:1;"
         offset="1" />
    </linearGradient>
    <linearGradient
       y2="5.2502403"
       x2="19.874987"
       y1="44.520065"
       x1="19.874987"
       gradientTransform="matrix(0.4,0,0,0.4,-0.345184,29.400001)"
       gradientUnits="userSpaceOnUse"
       id="linearGradient4247"
       xlink:href="#linearGradient3707-319-631-407-1-846-5-4-7"
       inkscape:collect="always" />
    <linearGradient
       id="linearGradient3707-319-631-407-1-846-5-4-0">
      <stop
         id="stop3788-4-8-27"
         style="stop-color:#365a7c;stop-opacity:1"
         offset="0" />
      <stop
         id="stop3790-2-1-6"
         style="stop-color:#5ea1ca;stop-opacity:1;"
         offset="1" />
    </linearGradient>
    <linearGradient
       y2="5.2502403"
       x2="19.874987"
       y1="44.520065"
       x1="19.874987"
       gradientTransform="matrix(0.4,0,0,0.4,-8.345184,29.400001)"
       gradientUnits="userSpaceOnUse"
       id="linearGradient4247-1"
       xlink:href="#linearGradient3707-319-631-407-1-846-5-4-0"
       inkscape:collect="always" />
    <linearGradient
       id="linearGradient3707-319-631-407-1-846-5-4-5">
      <stop
         id="stop3788-4-8-9"
         style="stop-color:#365a7c;stop-opacity:1"
         offset="0" />
      <stop
         id="stop3790-2-1-9"
         style="stop-color:#5ea1ca;stop-opacity:1;"
         offset="1" />
    </linearGradient>
    <linearGradient
       y2="5.2502403"
       x2="19.874987"
       y1="44.520065"
       x1="19.874987"
       gradientTransform="matrix(0.4,0,0,0.4,-24.345184,29.400001)"
       gradientUnits="userSpaceOnUse"
       id="linearGradient4247-14"
       xlink:href="#linearGradient3707-319-631-407-1-846-5-4-5"
       inkscape:collect="always" />
    <linearGradient
       inkscape:collect="always"
       xlink:href="#linearGradient3707-319-631-407-1-846-5-4-5"
       id="linearGradient3057"
       gradientUnits="userSpaceOnUse"
       gradientTransform="matrix(0.4,0,0,0.4,-24.345184,29.400001)"
       x1="19.874987"
       y1="38.245197"
       x2="19.874987"
       y2="-61.256123" />
  </defs>
  <sodipodi:namedview
     id="base"
     pagecolor="#ffffff"
     bordercolor="#666666"
     borderopacity="1.0"
     inkscape:pageopacity="0.0"
     inkscape:pageshadow="2"
     inkscape:zoom="11.3125"
     inkscape:cx="24"
     inkscape:cy="24"
     inkscape:current-layer="layer1"
     showgrid="true"
     inkscape:grid-bbox="true"
     inkscape:document-units="px"
     inkscape:window-width="1280"
     inkscape:window-height="753"
     inkscape:window-x="0"
     inkscape:window-y="24"
     inkscape:window-maximized="1" />
  <metadata
     id="metadata3663">
    <rdf:RDF>
      <cc:Work
         rdf:about="">
        <dc:format>image/svg+xml</dc:format>
        <dc:type
           rdf:resource="http://purl.org/dc/dcmitype/StillImage" />
      </cc:Work>
    </rdf:RDF>
  </metadata>
  <g
     id="layer1"
     inkscape:label="Layer 1"
     inkscape:groupmode="layer">
    <g
       style="opacity:0.4"
       id="g3712"
       transform="matrix(1.1578952,0,0,0.57142859,-3.789484,19.142856)">
      <rect
         style="fill:url(#radialGradient3013);fill-opacity:1;stroke:none"
         id="rect2801"
         y="40"
         x="38"
         height="7"
         width="5" />
      <rect
         style="fill:url(#radialGradient3015);fill-opacity:1;stroke:none"
         id="rect3696"
         transform="scale(-1,-1)"
         y="-47"
         x="-10"
         height="7"
         width="5" />
      <rect
         style="fill:url(#linearGradient3656);fill-opacity:1;stroke:none"
         id="rect3700"
         y="40"
         x="10"
         height="7.0000005"
         width="28" />
    </g>
    <rect
       style="color:#000000;fill:url(#radialGradient2874);fill-opacity:1;fill-rule:nonzero;stroke:url(#linearGradient2876);stroke-width:1;stroke-linecap:round;stroke-linejoin:round;stroke-miterlimit:4;stroke-opacity:1;stroke-dasharray:none;stroke-dashoffset:0;marker:none;visibility:visible;display:inline;overflow:visible;enable-background:accumulate"
       id="rect5505-21"
       y="5.5"
       x="4.5"
       ry="2"
       rx="2"
       height="39"
       width="39" />
    <rect
       style="opacity:0.5;fill:none;stroke:url(#linearGradient2959);stroke-width:1;stroke-linecap:round;stroke-linejoin:round;stroke-miterlimit:4;stroke-opacity:1;stroke-dasharray:none;stroke-dashoffset:0"
       id="rect6741"
       y="6.5"
       x="5.5"
       ry="1"
       rx="1"
       height="37"
       width="37" />
    <path
       inkscape:connector-curvature="0"
       style="opacity:0.2;fill:url(#linearGradient3568);fill-opacity:1;fill-rule:evenodd;stroke:none"
       id="path3333"
       d="M 6.2169167,6 C 5.5377266,6 5,6.9124652 5,7.8 L 5.0126445,30 C 6.1058123,29.975834 42.170261,21.153092 43,20.728709 L 43,7.8 C 43,7.1215957 42.468817,6 41.88071,6 L 6.2169214,6 z"
       sodipodi:nodetypes="ccccccc" />
    <path
       style="opacity:0.7;fill:#ffffff;fill-opacity:0.58823529;stroke:#ffffff;stroke-width:0.99999994px;stroke-linecap:butt;stroke-linejoin:miter;stroke-opacity:1"
       d="m 6.5,41.5 35,0 -2,-4 -31,0 z"
       id="path4306"
       inkscape:connector-curvature="0"
       sodipodi:nodetypes="ccccc" />
    <path
       id="rect3038-4-4-9"
       transform="scale(-1,1)"
       style="opacity:0.29999999999999999;color:#000000;fill:url(#linearGradient3057);fill-opacity:1;fill-rule:nonzero;stroke:none;stroke-width:1;marker:none;visibility:visible;display:inline;overflow:visible;enable-background:accumulate"
       d="m -38.824537,33 5.649074,0 C -32.524256,33 -32,33.524256 -32,34.175463 l 0,5.649074 C -32,40.475744 -32.524256,41 -33.175463,41 l -5.649074,0 C -39.475744,41 -40,40.475744 -40,39.824537 l 0,-5.649074 C -40,33.524256 -39.475744,33 -38.824537,33 z m 16,0 5.649074,0 C -16.524256,33 -16,33.524256 -16,34.175463 l 0,5.649074 C -16,40.475744 -16.524256,41 -17.175463,41 l -5.649074,0 C -23.475744,41 -24,40.475744 -24,39.824537 l 0,-5.649074 C -24,33.524256 -23.475744,33 -22.824537,33 z m 8,0 5.649074,0 C -8.5242565,33 -8,33.524256 -8,34.175463 l 0,5.649074 C -8,40.475744 -8.5242565,41 -9.175463,41 l -5.649074,0 C -15.475744,41 -16,40.475744 -16,39.824537 l 0,-5.649074 C -16,33.524256 -15.475744,33 -14.824537,33 z m -16,0 5.649074,0 C -24.524256,33 -24,33.524256 -24,34.175463 l 0,5.649074 C -24,40.475744 -24.524256,41 -25.175463,41 l -5.649074,0 C -31.475744,41 -32,40.475744 -32,39.824537 l 0,-5.649074 C -32,33.524256 -31.475744,33 -30.824537,33 z" />
    <path
       id="rect3038-44-1"
       transform="scale(-1,1)"
       style="color:#000000;fill:#f7f7f7;fill-opacity:1;fill-rule:nonzero;stroke:#ffffff;stroke-width:0.98542726;stroke-linecap:butt;stroke-linejoin:miter;stroke-miterlimit:4;stroke-dashoffset:0;stroke-opacity:1;marker:none;visibility:visible;display:inline;overflow:visible;enable-background:accumulate"
       d="m -38.007286,34.492714 4.014573,0 c 0.277,0 0.5,0.223 0.5,0.5 l 0,4.014573 c 0,0.277 -0.223,0.5 -0.5,0.5 l -4.014573,0 c -0.277,0 -0.5,-0.223 -0.5,-0.5 l 0,-4.014573 c 0,-0.277 0.223,-0.5 0.5,-0.5 z m 16,0 4.014573,0 c 0.277,0 0.5,0.223 0.5,0.5 l 0,4.014573 c 0,0.277 -0.223,0.5 -0.5,0.5 l -4.014573,0 c -0.277,0 -0.5,-0.223 -0.5,-0.5 l 0,-4.014573 c 0,-0.277 0.223,-0.5 0.5,-0.5 z m 8,0 4.0145725,0 c 0.277,0 0.5,0.223 0.5,0.5 l 0,4.014573 c 0,0.277 -0.223,0.5 -0.5,0.5 l -4.0145725,0 c -0.277,0 -0.5,-0.223 -0.5,-0.5 l 0,-4.014573 c 0,-0.277 0.223,-0.5 0.5,-0.5 z m -16,0 4.014573,0 c 0.277,0 0.5,0.223 0.5,0.5 l 0,4.014573 c 0,0.277 -0.223,0.5 -0.5,0.5 l -4.014573,0 c -0.277,0 -0.5,-0.223 -0.5,-0.5 l 0,-4.014573 c 0,-0.277 0.223,-0.5 0.5,-0.5 z" />
  </g>
</svg>
