<?xml version="1.0" encoding="UTF-8" standalone="no"?>
<!-- Created with Inkscape (http://www.inkscape.org/) -->

<svg
   xmlns:svg="http://www.w3.org/2000/svg"
   xmlns="http://www.w3.org/2000/svg"
   xmlns:xlink="http://www.w3.org/1999/xlink"
   version="1.1"
   width="48"
   height="48"
   id="svg3904">
  <defs
     id="defs3906">
    <linearGradient
       x1="116.29638"
       y1="32.374962"
       x2="116.29638"
       y2="226.17993"
       id="linearGradient3351"
       xlink:href="#linearGradient3202"
       gradientUnits="userSpaceOnUse"
       gradientTransform="matrix(0.1340781,0,0,0.1393324,6.9846294,7.4891148)" />
    <linearGradient
       id="linearGradient3202">
      <stop
         id="stop3204"
         style="stop-color:#ffffff;stop-opacity:1"
         offset="0" />
      <stop
         id="stop3206"
         style="stop-color:#ced3d6;stop-opacity:1"
         offset="1" />
    </linearGradient>
    <linearGradient
       x1="16.626165"
       y1="15.298182"
       x2="20.054544"
       y2="24.627615"
       id="linearGradient3669"
       xlink:href="#linearGradient8265-821-176-38-919-66-249"
       gradientUnits="userSpaceOnUse"
       gradientTransform="matrix(0.9578231,0,0,1.0182827,1.012237,1.9221273)" />
    <linearGradient
       id="linearGradient8265-821-176-38-919-66-249">
      <stop
         id="stop2687"
         style="stop-color:#ffffff;stop-opacity:1"
         offset="0" />
      <stop
         id="stop2689"
         style="stop-color:#ffffff;stop-opacity:0"
         offset="1" />
    </linearGradient>
    <linearGradient
       x1="12.578789"
       y1="-7.8073711"
       x2="12.578789"
       y2="41.827358"
       id="linearGradient3676"
       xlink:href="#linearGradient2238"
       gradientUnits="userSpaceOnUse"
       gradientTransform="matrix(0.9546411,0,0,0.8965269,1.087448,5.3852446)" />
    <linearGradient
       id="linearGradient2238">
      <stop
         id="stop2240"
         style="stop-color:#ffffff;stop-opacity:1"
         offset="0" />
      <stop
         id="stop2242"
         style="stop-color:#ffffff;stop-opacity:0"
         offset="1" />
    </linearGradient>
    <radialGradient
       cx="1.080768"
       cy="10.165854"
       r="23"
       fx="1.080768"
       fy="10.165854"
       id="radialGradient5827-298-266"
       xlink:href="#linearGradient2867-449-88-871-390-598-476-591-434-148"
       gradientUnits="userSpaceOnUse"
       gradientTransform="matrix(9.0032595e-8,1.3768123,-2.2363332,6.2197622e-8,46.734227,11.009548)" />
    <linearGradient
       id="linearGradient2867-449-88-871-390-598-476-591-434-148">
      <stop
         id="stop4627"
         style="stop-color:#51cfee;stop-opacity:1"
         offset="0" />
      <stop
         id="stop4629"
         style="stop-color:#49a3d2;stop-opacity:1"
         offset="0.26238" />
      <stop
         id="stop4631"
         style="stop-color:#3470b4;stop-opacity:1"
         offset="0.704952" />
      <stop
         id="stop4633"
         style="stop-color:#1b5699;stop-opacity:1"
         offset="1" />
    </linearGradient>
    <linearGradient
       x1="10.014208"
       y1="44.960102"
       x2="10.014208"
       y2="2.8764627"
       id="linearGradient5829-632-49"
       xlink:href="#linearGradient3707-319-631"
       gradientUnits="userSpaceOnUse"
       gradientTransform="matrix(0.9574517,0,0,0.9034707,1.0211699,4.3056304)" />
    <linearGradient
       id="linearGradient3707-319-631">
      <stop
         id="stop4637"
         style="stop-color:#254b6d;stop-opacity:1"
         offset="0" />
      <stop
         id="stop4639"
         style="stop-color:#415b73;stop-opacity:1"
         offset="0.5" />
      <stop
         id="stop4641"
         style="stop-color:#6195b5;stop-opacity:1"
         offset="1" />
    </linearGradient>
    <linearGradient
       x1="302.85715"
       y1="366.64789"
       x2="302.85715"
       y2="609.50507"
       id="linearGradient2830"
       xlink:href="#linearGradient5048"
       gradientUnits="userSpaceOnUse"
       gradientTransform="matrix(2.774389,0,0,1.969706,-1892.179,-872.8854)" />
    <linearGradient
       id="linearGradient5048">
      <stop
         id="stop5050"
         style="stop-color:#000000;stop-opacity:0"
         offset="0" />
      <stop
         id="stop5056"
         style="stop-color:#000000;stop-opacity:1"
         offset="0.5" />
      <stop
         id="stop5052"
         style="stop-color:#000000;stop-opacity:0"
         offset="1" />
    </linearGradient>
    <radialGradient
       cx="605.71429"
       cy="486.64789"
       r="117.14286"
       fx="605.71429"
       fy="486.64789"
       id="radialGradient2832"
       xlink:href="#linearGradient5060"
       gradientUnits="userSpaceOnUse"
       gradientTransform="matrix(2.774389,0,0,1.969706,-1891.633,-872.8854)" />
    <linearGradient
       id="linearGradient5060">
      <stop
         id="stop5062"
         style="stop-color:#000000;stop-opacity:1"
         offset="0" />
      <stop
         id="stop5064"
         style="stop-color:#000000;stop-opacity:0"
         offset="1" />
    </linearGradient>
    <radialGradient
       cx="605.71429"
       cy="486.64789"
       r="117.14286"
       fx="605.71429"
       fy="486.64789"
       id="radialGradient3902"
       xlink:href="#linearGradient5060"
       gradientUnits="userSpaceOnUse"
       gradientTransform="matrix(-2.774389,0,0,1.969706,112.7623,-872.8854)" />
  </defs>
  <g
     id="layer1">
    <g
       transform="matrix(0.02362121,0,0,0.01254293,45.00954,41.890179)"
       id="g2546">
      <rect
         width="1339.6335"
         height="478.35718"
         x="-1559.2523"
         y="-150.69685"
         id="rect2512"
         style="opacity:0.40206185;fill:url(#linearGradient2830);fill-opacity:1;fill-rule:nonzero;stroke:none;stroke-width:1;marker:none;visibility:visible;display:inline;overflow:visible" />
      <path
         d="m -219.61876,-150.68038 c 0,0 0,478.33079 0,478.33079 142.874166,0.90045 345.40022,-107.16966 345.40014,-239.196175 0,-132.026537 -159.436816,-239.134595 -345.40014,-239.134615 z"
         id="path2514"
         style="opacity:0.40206185;fill:url(#radialGradient2832);fill-opacity:1;fill-rule:nonzero;stroke:none;stroke-width:1;marker:none;visibility:visible;display:inline;overflow:visible" />
      <path
         d="m -1559.2523,-150.68038 c 0,0 0,478.33079 0,478.33079 -142.8742,0.90045 -345.4002,-107.16966 -345.4002,-239.196175 0,-132.026537 159.4368,-239.134595 345.4002,-239.134615 z"
         id="path2516"
         style="opacity:0.40206185;fill:url(#radialGradient3902);fill-opacity:1;fill-rule:nonzero;stroke:none;stroke-width:1;marker:none;visibility:visible;display:inline;overflow:visible" />
    </g>
    <rect
       width="44.997868"
       height="36.997868"
       rx="2.6659844"
       ry="2.6659844"
       x="1.5010573"
       y="7.5010662"
       id="rect2551"
       style="fill:url(#radialGradient5827-298-266);fill-opacity:1;fill-rule:evenodd;stroke:url(#linearGradient5829-632-49);stroke-width:1.00213289;stroke-linecap:round;stroke-linejoin:round;stroke-miterlimit:4;stroke-opacity:1;stroke-dasharray:none;stroke-dashoffset:0" />
    <g
       transform="translate(-7.938475e-6,1.0000014)"
       id="g3503">
      <path
         d="M 5.71875,7 23.59375,24.96875 10.5625,7 5.71875,7 z"
         id="path13905"
         style="opacity:0.07086612;fill:#eeeeec;fill-rule:evenodd;stroke:none;display:inline" />
      <path
         d="M 45.15625,7.46875 25.0625,24.8125 46,11.78125 46,9.15625 C 46,8.4558663 45.668987,7.8640444 45.15625,7.46875 z"
         id="path13907"
         style="opacity:0.07086612;fill:#eeeeec;fill-rule:evenodd;stroke:none;display:inline" />
      <path
         d="M 24.90625,25.375 46,35.6875 46,26.96875 24.90625,25.375 z"
         id="path13909"
         style="opacity:0.07086612;fill:#eeeeec;fill-rule:evenodd;stroke:none;display:inline" />
      <path
         d="M 24.5625,25.6875 30.03125,43 l 9.75,0 L 24.5625,25.6875 z"
         id="path13911"
         style="opacity:0.07086612;fill:#eeeeec;fill-rule:evenodd;stroke:none;display:inline" />
      <path
         d="M 23.875,25.8125 C 23.463627,25.665381 9.9514594,37.061203 3.21875,42.78125 3.5037244,42.918789 3.8174992,43 4.15625,43 L 10.0625,43 23.875,25.8125 z"
         id="path13913"
         style="opacity:0.07086612;fill:#eeeeec;fill-rule:evenodd;stroke:none;display:inline" />
      <path
         d="M 2,22.65625 2,31.625 23,25.71875 2,22.65625 z"
         id="path13915"
         style="opacity:0.02078738;fill:#000000;fill-opacity:1;fill-rule:evenodd;stroke:none;stroke-width:1px;marker:none;visibility:visible;display:inline;overflow:visible;enable-background:accumulate" />
      <path
         d="M 2.03125,8.78125 C 2.009942,8.9036079 2,9.0276113 2,9.15625 l 0,7.90625 22.03125,8.15625 -22,-16.4375 z"
         id="path13917"
         style="opacity:0.07086612;fill:#eeeeec;fill-rule:evenodd;stroke:none;display:inline" />
      <path
         d="M 21.9375,7 24.65625,24.5625 35.8125,7 21.9375,7 z"
         id="path13919"
         style="opacity:0.07086612;fill:#eeeeec;fill-rule:evenodd;stroke:none;display:inline" />
      <path
         d="M 24.28125,25.90625 20.78125,43 26.6875,43 24.28125,25.90625 z"
         id="path13921"
         style="opacity:0.07086612;fill:#eeeeec;fill-rule:evenodd;stroke:none;display:inline" />
      <path
         d="M 10.65625,7 23.96875,24.78125 18.625,7 10.65625,7 z"
         id="path13923"
         style="opacity:0.02078738;fill:#000000;fill-opacity:1;fill-rule:evenodd;stroke:none;display:inline" />
      <path
         d="m 41.1875,7 -11,12.75 L 44.34375,7.0625 C 44.181596,7.0239823 44.018018,7 43.84375,7 L 41.1875,7 z"
         id="path13925"
         style="opacity:0.02078738;fill:#ffffff;fill-opacity:1;fill-rule:evenodd;stroke:none;display:inline" />
      <path
         d="M 46,15.71875 24.96875,25.1875 46,22.6875 46,15.71875 z"
         id="path13927"
         style="opacity:0.02078738;fill:#000000;fill-opacity:1;fill-rule:evenodd;stroke:none;stroke-width:1px;marker:none;visibility:visible;display:inline;overflow:visible;enable-background:accumulate" />
      <path
         d="M 24.96875,25.8125 46,40.90625 c 6.06e-4,-0.02116 0,-0.04119 0,-0.0625 l 0,-3.25 L 24.96875,25.8125 z"
         id="path13929"
         style="opacity:0.02078738;fill:#ffffff;fill-opacity:1;fill-rule:evenodd;stroke:none;display:inline" />
      <path
         d="M 24.0625,25.90625 C 23.927882,25.761819 16.769429,37.21187 13.53125,43 l 6.53125,0 4,-17.09375 z"
         id="path13931"
         style="opacity:0.02078738;fill:#000000;fill-opacity:1;fill-rule:evenodd;stroke:none;stroke-width:1px;marker:none;visibility:visible;display:inline;overflow:visible;enable-background:accumulate" />
      <path
         d="M 23.25,25.875 2,33.0625 2,40.65625 23.25,25.875 z"
         id="path13933"
         style="opacity:0.02078738;fill:#ffffff;fill-opacity:1;fill-rule:evenodd;stroke:none;display:inline" />
      <path
         d="m 2,17.53125 0,3.1875 21.65625,4.8125 -21.65625,-8 z"
         id="path13935"
         style="opacity:0.02078738;fill:#ffffff;fill-opacity:1;fill-rule:evenodd;stroke:none;display:inline" />
      <path
         d="m 15.34375,7 8.375,17.40625 L 16.78125,7 15.34375,7 z"
         id="path13937"
         style="opacity:0.07086612;fill:#ffffff;fill-opacity:1;fill-rule:evenodd;stroke:none;display:inline" />
      <path
         d="M 46,18.1875 25.59375,25.15625 46,20.21875 46,18.1875 z"
         id="path13939"
         style="opacity:0.11083972;fill:#ffffff;fill-opacity:1;fill-rule:evenodd;stroke:none;display:inline" />
      <path
         d="M 23.71875,25.46875 2,27 2,29.6875 23.71875,25.46875 z"
         id="path13941"
         style="opacity:0.12824432;fill:#ffffff;fill-opacity:1;fill-rule:evenodd;stroke:none;display:inline" />
      <path
         d="M 19.21875,30.5625 5.625,43 l 2.46875,0 11.125,-12.4375 z"
         id="path13943"
         style="opacity:0.06961831;fill:#ffffff;fill-opacity:1;fill-rule:evenodd;stroke:none;display:inline" />
      <path
         d="M 29.84375,29.8125 44,43 c 1.125099,-0.0806 2,-1.009919 2,-2.15625 l 0,-0.125 L 29.84375,29.8125 z"
         id="path13945"
         style="opacity:0.09251906;fill:#ffffff;fill-opacity:1;fill-rule:evenodd;stroke:none;display:inline" />
      <path
         d="M 27.21875,26.4375 46,35 46,31.53125 27.21875,26.4375 z"
         id="path13947"
         style="opacity:0.07086612;fill:#ffffff;fill-opacity:1;fill-rule:evenodd;stroke:none;display:inline" />
      <path
         d="M 2.03125,8.71875 C 2.0024997,8.859964 2,9.0062984 2,9.15625 l 0,1.625 L 18.6875,21.6875 2.03125,8.71875 z"
         id="path13949"
         style="opacity:0.06687024;fill:#ffffff;fill-opacity:1;fill-rule:evenodd;stroke:none;display:inline" />
      <path
         d="M 33.4375,7 25.15625,23.625 35.90625,7 33.4375,7 z"
         id="path13951"
         style="opacity:0.07328246;fill:#ffffff;fill-opacity:1;fill-rule:evenodd;stroke:none;display:inline" />
      <path
         d="M 24.28125,25.90625 25,43 26.6875,43 24.28125,25.90625 z"
         id="path9905"
         style="opacity:0.10076336;fill:#eeeeec;fill-rule:evenodd;stroke:none;display:inline" />
    </g>
    <rect
       width="42.996269"
       height="34.996269"
       rx="1.6959794"
       ry="1.6959794"
       x="2.501858"
       y="8.5018673"
       id="rect2556"
       style="opacity:0.4;fill:none;stroke:url(#linearGradient3676);stroke-width:1.00373149;stroke-linecap:round;stroke-linejoin:round;stroke-miterlimit:4;stroke-opacity:1;stroke-dasharray:none;stroke-dashoffset:0" />
    <path
       d="m 4.0952301,8.0000022 c -1.1573156,0 -2.095238,0.9971259 -2.095238,2.2274928 l 0,16.292523 c 0.00265,0.137064 0.059191,0.26668 0.1558855,0.357384 0.096694,0.0907 0.2247046,0.134203 0.352958,0.119936 L 45.610875,19.742074 c 0.221716,-0.03717 0.386016,-0.238719 0.389116,-0.47732 l 0,-9.037259 c 0,-1.2303669 -0.937923,-2.2274928 -2.095238,-2.2274928 l -39.8095229,0 z"
       id="path3333"
       style="opacity:0.2;fill:url(#linearGradient3669);fill-opacity:1;fill-rule:evenodd;stroke:none" />
    <path
       d="m 23.999992,11 c -1.657273,0 -3.000498,1.344025 -3,3 -3.87e-4,1.286831 0.829473,2.355466 1.96875,2.78125 8.09e-4,0.409336 0.0038,0.825647 0,1.21875 l -4.4375,0 c -0.295714,0 -0.53125,0.235535 -0.53125,0.53125 l 0,0.9375 c 0,0.295714 0.235535,0.53125 0.53125,0.53125 l 4.40625,0 c -0.0063,3.217046 0.03125,6.650423 0.03125,11.125 0.0079,0.738047 0.02882,1.480991 0,2.21875 0.0075,0.119405 -0.05971,0.241967 -0.15625,0.3125 -0.273281,0.20439 -0.601683,0.271725 -0.9375,0.28125 -0.533998,-0.0033 -0.864084,-0.139731 -1.375,-0.28125 -1.153816,-0.337769 -2.255088,-0.809792 -3.3125,-1.375 -0.445202,-0.2471 -0.885128,-0.491893 -1.28125,-0.8125 -0.170735,-0.145824 -0.361896,-0.352753 -0.34375,-0.59375 0.02306,-0.182435 0.111792,-0.372874 0.3125,-0.40625 0.180897,-0.02868 0.340041,0.06455 0.5,0.125 0.137893,0.05953 0.240807,-0.104004 0.21875,-0.21875 -0.02219,-0.302289 -0.12482,-0.58209 -0.28125,-0.84375 -0.325462,-0.535936 -0.823908,-0.938483 -1.34375,-1.28125 -0.555021,-0.354839 -1.148372,-0.744977 -1.5,-1.3125 -0.06995,-0.104887 -0.155787,-0.274516 -0.3125,-0.21875 -0.217858,0.07074 -0.330796,0.284489 -0.4375,0.46875 -0.300222,0.571963 -0.458391,1.185054 -0.59375,1.8125 -0.111274,0.49923 -0.132618,1.02257 -0.09375,1.53125 0.04024,0.508971 0.07535,1.024695 0.28125,1.5 0.12967,0.31235 0.366421,0.568079 0.59375,0.8125 0.145058,-0.153541 0.2891,-0.318351 0.4375,-0.46875 0.192312,-0.193276 0.437292,-0.318763 0.71875,-0.28125 0.383079,0.04936 0.730205,0.277848 1.03125,0.5 0.424043,0.330115 0.81795,0.67948 1.25,1 0.683663,0.523049 1.4441,0.90986 2.21875,1.28125 0.645391,0.300045 1.299005,0.599734 1.96875,0.84375 0.11994,0.05244 0.252889,0.05006 0.375,0.09375 1.205386,0.501865 2.228147,1.078169 3.0625,2.125 0.0012,0.01437 -0.0012,0.04881 0,0.0625 0.0096,-0.01241 0.02162,-0.01897 0.03125,-0.03125 0.0096,0.01228 0.02168,0.01884 0.03125,0.03125 0.0063,-0.02891 -0.0062,-0.06472 0,-0.09375 0.831739,-1.034689 1.864425,-1.594929 3.0625,-2.09375 0.122111,-0.04369 0.25506,-0.04131 0.375,-0.09375 0.669745,-0.244016 1.323359,-0.543705 1.96875,-0.84375 0.77465,-0.37139 1.535087,-0.758201 2.21875,-1.28125 0.43205,-0.32052 0.825957,-0.669885 1.25,-1 0.301045,-0.222152 0.648171,-0.450637 1.03125,-0.5 0.281458,-0.03751 0.526438,0.08797 0.71875,0.28125 0.1484,0.150399 0.292442,0.315209 0.4375,0.46875 0.227329,-0.244421 0.46408,-0.50015 0.59375,-0.8125 0.205902,-0.475305 0.241012,-0.991029 0.28125,-1.5 0.03887,-0.50868 0.01752,-1.03202 -0.09375,-1.53125 -0.135359,-0.627446 -0.293528,-1.240537 -0.59375,-1.8125 -0.106704,-0.184261 -0.219642,-0.398006 -0.4375,-0.46875 -0.156713,-0.05577 -0.242554,0.113863 -0.3125,0.21875 -0.351628,0.567523 -0.944979,0.957661 -1.5,1.3125 -0.519842,0.342767 -1.018288,0.745314 -1.34375,1.28125 -0.15643,0.26166 -0.259056,0.541461 -0.28125,0.84375 -0.02206,0.114746 0.08086,0.278284 0.21875,0.21875 0.159959,-0.06045 0.319103,-0.153682 0.5,-0.125 0.200708,0.03338 0.289436,0.223815 0.3125,0.40625 0.01815,0.240997 -0.173015,0.447926 -0.34375,0.59375 -0.396122,0.320607 -0.836048,0.5654 -1.28125,0.8125 -1.057412,0.565208 -2.158684,1.037231 -3.3125,1.375 -0.510916,0.141519 -0.841002,0.277945 -1.375,0.28125 -0.335817,-0.0095 -0.664219,-0.07686 -0.9375,-0.28125 -0.09654,-0.07053 -0.163781,-0.193095 -0.15625,-0.3125 -0.02882,-0.737759 -0.0079,-1.480703 0,-2.21875 1e-6,-4.474577 0.03755,-7.907954 0.03125,-11.125 l 4.40625,0 c 0.295715,0 0.53125,-0.235536 0.53125,-0.53125 l 0,-0.9375 C 29.999992,18.235535 29.764456,18 29.468742,18 l -4.4375,0 c -0.0038,-0.393103 -8.09e-4,-0.809414 0,-1.21875 1.139275,-0.425784 1.969138,-1.494419 1.96875,-2.78125 4.99e-4,-1.655975 -1.342733,-3 -3,-3 z m -0.0625,1.46875 c 0.8045,0 1.468993,0.633629 1.46875,1.4375 2.42e-4,0.803872 -0.66425,1.46875 -1.46875,1.46875 -0.804502,0 -1.468992,-0.664877 -1.46875,-1.46875 -2.42e-4,-0.803871 0.664248,-1.4375 1.46875,-1.4375 z"
       id="path3361"
       style="opacity:0.4;fill:#000000;fill-opacity:1;fill-rule:nonzero;stroke:none" />
    <path
       d="m 23.999992,12 c -1.657273,0 -3.000498,1.344025 -3,3 -3.87e-4,1.286831 0.829473,2.355466 1.96875,2.78125 8.09e-4,0.409336 0.0038,0.825647 0,1.21875 l -4.4375,0 c -0.295714,0 -0.53125,0.235535 -0.53125,0.53125 l 0,0.9375 c 0,0.295714 0.235535,0.53125 0.53125,0.53125 l 4.40625,0 c -0.0063,3.217046 0.03125,6.650423 0.03125,11.125 0.0079,0.738047 0.02882,1.480991 0,2.21875 0.0075,0.119405 -0.05971,0.241967 -0.15625,0.3125 -0.273281,0.20439 -0.601683,0.271725 -0.9375,0.28125 -0.533998,-0.0033 -0.864084,-0.139731 -1.375,-0.28125 -1.153816,-0.337769 -2.255088,-0.809792 -3.3125,-1.375 -0.445202,-0.2471 -0.885128,-0.491893 -1.28125,-0.8125 -0.170735,-0.145824 -0.361896,-0.352753 -0.34375,-0.59375 0.02306,-0.182435 0.111792,-0.372874 0.3125,-0.40625 0.180897,-0.02868 0.340041,0.06455 0.5,0.125 0.137893,0.05953 0.240807,-0.104004 0.21875,-0.21875 -0.02219,-0.302289 -0.12482,-0.58209 -0.28125,-0.84375 -0.325462,-0.535936 -0.823908,-0.938483 -1.34375,-1.28125 -0.555021,-0.354839 -1.148372,-0.744977 -1.5,-1.3125 -0.06995,-0.104887 -0.155787,-0.274516 -0.3125,-0.21875 -0.217858,0.07074 -0.330796,0.284489 -0.4375,0.46875 -0.300222,0.571963 -0.458391,1.185054 -0.59375,1.8125 -0.111274,0.49923 -0.132618,1.02257 -0.09375,1.53125 0.04024,0.508971 0.07535,1.024695 0.28125,1.5 0.12967,0.31235 0.366421,0.568079 0.59375,0.8125 0.145058,-0.153541 0.2891,-0.318351 0.4375,-0.46875 0.192312,-0.193276 0.437292,-0.318763 0.71875,-0.28125 0.383079,0.04936 0.730205,0.277848 1.03125,0.5 0.424043,0.330115 0.81795,0.67948 1.25,1 0.683663,0.523049 1.4441,0.90986 2.21875,1.28125 0.645391,0.300045 1.299005,0.599734 1.96875,0.84375 0.11994,0.05244 0.252889,0.05006 0.375,0.09375 1.205386,0.501865 2.228147,1.078169 3.0625,2.125 0.0012,0.01437 -0.0012,0.04881 0,0.0625 0.0096,-0.01241 0.02162,-0.01897 0.03125,-0.03125 0.0096,0.01228 0.02168,0.01884 0.03125,0.03125 0.0063,-0.02891 -0.0062,-0.06472 0,-0.09375 0.831739,-1.034689 1.864425,-1.594929 3.0625,-2.09375 0.122111,-0.04369 0.25506,-0.04131 0.375,-0.09375 0.669745,-0.244016 1.323359,-0.543705 1.96875,-0.84375 0.77465,-0.37139 1.535087,-0.758201 2.21875,-1.28125 0.43205,-0.32052 0.825957,-0.669885 1.25,-1 0.301045,-0.222152 0.648171,-0.450637 1.03125,-0.5 0.281458,-0.03751 0.526438,0.08797 0.71875,0.28125 0.1484,0.150399 0.292442,0.315209 0.4375,0.46875 0.227329,-0.244421 0.46408,-0.50015 0.59375,-0.8125 0.205902,-0.475305 0.241012,-0.991029 0.28125,-1.5 0.03887,-0.50868 0.01752,-1.03202 -0.09375,-1.53125 -0.135359,-0.627446 -0.293528,-1.240537 -0.59375,-1.8125 -0.106704,-0.184261 -0.219642,-0.398006 -0.4375,-0.46875 -0.156713,-0.05577 -0.242554,0.113863 -0.3125,0.21875 -0.351628,0.567523 -0.944979,0.957661 -1.5,1.3125 -0.519842,0.342767 -1.018288,0.745314 -1.34375,1.28125 -0.15643,0.26166 -0.259056,0.541461 -0.28125,0.84375 -0.02206,0.114746 0.08086,0.278284 0.21875,0.21875 0.159959,-0.06045 0.319103,-0.153682 0.5,-0.125 0.200708,0.03338 0.289436,0.223815 0.3125,0.40625 0.01815,0.240997 -0.173015,0.447926 -0.34375,0.59375 -0.396122,0.320607 -0.836048,0.5654 -1.28125,0.8125 -1.057412,0.565208 -2.158684,1.037231 -3.3125,1.375 -0.510916,0.141519 -0.841002,0.277945 -1.375,0.28125 -0.335817,-0.0095 -0.664219,-0.07686 -0.9375,-0.28125 -0.09654,-0.07053 -0.163781,-0.193095 -0.15625,-0.3125 -0.02882,-0.737759 -0.0079,-1.480703 0,-2.21875 1e-6,-4.474577 0.03755,-7.907954 0.03125,-11.125 l 4.40625,0 c 0.295715,0 0.53125,-0.235536 0.53125,-0.53125 l 0,-0.9375 C 29.999992,19.235535 29.764456,19 29.468742,19 l -4.4375,0 c -0.0038,-0.393103 -8.09e-4,-0.809414 0,-1.21875 1.139275,-0.425784 1.969138,-1.494419 1.96875,-2.78125 4.99e-4,-1.655975 -1.342733,-3 -3,-3 z m -0.0625,1.46875 c 0.8045,0 1.468993,0.633629 1.46875,1.4375 2.42e-4,0.803872 -0.66425,1.46875 -1.46875,1.46875 -0.804502,0 -1.468992,-0.664877 -1.46875,-1.46875 -2.42e-4,-0.803871 0.664248,-1.4375 1.46875,-1.4375 z"
       id="path1919"
       style="fill:url(#linearGradient3351);fill-opacity:1;fill-rule:nonzero;stroke:none" />
  </g>
</svg>
