<svg xmlns:rdf="http://www.w3.org/1999/02/22-rdf-syntax-ns#" xmlns="http://www.w3.org/2000/svg" xmlns:cc="http://creativecommons.org/ns#" xmlns:xlink="http://www.w3.org/1999/xlink" viewBox="0 0 48 48" xmlns:dc="http://purl.org/dc/elements/1.1/">
 <defs>
  <linearGradient id="a">
   <stop offset="0"/>
   <stop stop-opacity="0" offset="1"/>
  </linearGradient>
  <linearGradient id="g" y2="-5.5633383" gradientUnits="userSpaceOnUse" x2="32.084972" gradientTransform="matrix(.9788196 0 0 .7154223 -8.5008021 52.112719)" y1="-14.402173" x1="32.084972">
   <stop stop-opacity="0" offset="0"/>
   <stop offset=".5"/>
   <stop stop-opacity="0" offset="1"/>
  </linearGradient>
  <radialGradient id="c" xlink:href="#a" gradientUnits="userSpaceOnUse" cy="-12.203125" cx="51.4375" gradientTransform="matrix(1.9576392,-8.146468e-7,6.6614241e-7,1.4565793,-59.017557,62.738067)" r="2.171875"/>
  <radialGradient id="b" xlink:href="#a" gradientUnits="userSpaceOnUse" cy="-12.203125" cx="51.4375" gradientTransform="matrix(-1.9576392,-9.2540676e-8,-1.2888861e-7,1.4565793,110.01781,62.73803)" r="2.171875"/>
  <linearGradient id="f" y2="13.408723" gradientUnits="userSpaceOnUse" x2="9.5" gradientTransform="matrix(1.2605424,0,0,1.2058553,-7.4733927,-4.9459439)" y1="16.26436" x1="9.5">
   <stop stop-color="#fff" offset="0"/>
   <stop stop-color="#fff" stop-opacity=".46875" offset="1"/>
  </linearGradient>
  <linearGradient id="e" y2="12.403291" gradientUnits="userSpaceOnUse" x2="23.069359" gradientTransform="matrix(1.2446306,0,0,1.2707947,-7.0741541,-5.3017616)" y1="6.7993021" x1="23.069359">
   <stop stop-color="#3465a4" offset="0"/>
   <stop stop-color="#729fcf" offset="1"/>
  </linearGradient>
  <linearGradient id="d" y2="19.53867" gradientUnits="userSpaceOnUse" x2="24.925514" gradientTransform="matrix(1.2446306,0,0,1.1767765,-7.0741541,-3.982654)" y1="40.000107" x1="24.925514">
   <stop stop-color="#d3d7cf" offset="0"/>
   <stop stop-color="#eeeeec" offset="1"/>
  </linearGradient>
 </defs>
 <g fill-rule="evenodd" transform="matrix(1.0842065,0,0,1.3618401,-3.702941,-19.378566)">
  <rect opacity=".3" height="6.3234997" width="32.357079" y="41.809082" x="9.3215466" fill="url(#g)"/>
  <path opacity=".3" d="m41.6785 41.799698v6.327016c2.343798-0.023886 4.251748-1.421401 4.251748-3.152329 0-1.730927-1.907949-3.150801-4.251748-3.174687z" fill="url(#c)"/>
  <path opacity=".3" d="m9.3217476 41.799698v6.327016c-2.3437982-0.023886-4.2517476-1.421401-4.2517476-3.152329 0-1.730927 1.9079484-3.150801 4.2517476-3.174687z" fill="url(#b)"/>
 </g>
 <g>
  <rect rx="1.9999999" ry="2" height="35.891666" width="41.072853" stroke="#888a85" y="6.6083345" x="3.5052049" stroke-width="1.00000024" fill="url(#d)"/>
  <path d="m3.505204 12.527912v-4.4863223c0-1.4080405 1.1102103-2.5415895 2.489261-2.5415895h36.094285c1.37905 0 2.489261 1.133549 2.489261 2.5415895v4.4863223" stroke="#204a87" stroke-width="1.00000048" fill="url(#e)"/>
  <rect opacity=".8" rx="1.5110159" ry="1.5110158" height="34.969814" width="39.076817" stroke="url(#f)" y="6.5096912" x="4.5017591" stroke-width="1.00000095" fill="none"/>
 </g>
</svg>
