<svg xmlns:rdf="http://www.w3.org/1999/02/22-rdf-syntax-ns#" xmlns="http://www.w3.org/2000/svg" version="1.1" xmlns:cc="http://creativecommons.org/ns#" xmlns:xlink="http://www.w3.org/1999/xlink" viewBox="0 0 128 640" xmlns:dc="http://purl.org/dc/elements/1.1/">
 <defs>
  <linearGradient id="a">
   <stop stop-color="#fff" offset="0"/>
   <stop stop-color="#fafafa" offset=".5"/>
   <stop stop-color="#e7ecef" offset="1"/>
  </linearGradient>
  <radialGradient id="n" fy="258.9006" xlink:href="#a" gradientUnits="userSpaceOnUse" cy="290.15808" cx="375.00006" gradientTransform="matrix(1.3296708,4.3193286e-7,-4.0108031e-7,1.2346937,-123.62648,-66.848972)" r="56.000015"/>
  <radialGradient id="m" gradientUnits="userSpaceOnUse" fy="295.34689" xlink:href="#a" cx="338.14886" cy="326.60437" r="56.000015" gradientTransform="matrix(.61010398 -3.682973e-8 4.1925559e-8 .69451907 141.69406 206.57459)"/>
  <radialGradient id="k" gradientUnits="userSpaceOnUse" fy="299.39645" xlink:href="#a" cx="385.52899" cy="330.65393" r="56.000015" gradientTransform="matrix(.36767944 8.8132131e-8 -9.6998582e-8 .40466949 269.24898 304.60195)"/>
  <radialGradient id="l" gradientUnits="userSpaceOnUse" fy="249.78807" cx="375.8786" cy="281.04529" r="56.000015" gradientTransform="matrix(.43721423 0 0 .40598444 243.79956 393.52515)">
   <stop stop-color="#fff" offset="0"/>
   <stop stop-color="#fafafa" offset=".5"/>
   <stop stop-color="#e7ecef" offset="1"/>
  </radialGradient>
  <radialGradient id="j" gradientUnits="userSpaceOnUse" fy="249.78807" cx="375.8786" cy="281.04529" r="56.000015" gradientTransform="matrix(.43721423 0 0 .40598444 178.79956 447.52515)">
   <stop stop-color="#fff" offset="0"/>
   <stop stop-color="#fafafa" offset=".5"/>
   <stop stop-color="#e7ecef" offset="1"/>
  </radialGradient>
  <radialGradient id="i" gradientUnits="userSpaceOnUse" fy="249.78807" cx="375.8786" cy="281.04529" r="56.000015" gradientTransform="matrix(.29686881 0 0 .27566376 291.94316 491.22356)">
   <stop stop-color="#fff" offset="0"/>
   <stop stop-color="#fafafa" offset=".5"/>
   <stop stop-color="#e7ecef" offset="1"/>
  </radialGradient>
  <radialGradient id="h" gradientUnits="userSpaceOnUse" fy="250.73418" cx="375.00006" cy="281.99139" r="56.000015" gradientTransform="matrix(.79120914 0 0 .73469384 100.29656 175.23019)">
   <stop stop-color="#fff" offset="0"/>
   <stop stop-color="#fafafa" offset=".5"/>
   <stop stop-color="#e7ecef" offset="1"/>
  </radialGradient>
  <radialGradient id="g" gradientUnits="userSpaceOnUse" fy="249.78807" cx="375.8786" cy="281.04529" r="56.000015" gradientTransform="matrix(.20566319 0 0 .19097287 261.26055 442.52078)">
   <stop stop-color="#fff" offset="0"/>
   <stop stop-color="#fafafa" offset=".5"/>
   <stop stop-color="#e7ecef" offset="1"/>
  </radialGradient>
  <radialGradient id="e" fy="249.78807" gradientUnits="userSpaceOnUse" cy="281.04529" cx="375.8786" gradientTransform="matrix(.29686881 0 0 .27566376 295.94316 552.22356)" r="56.000015">
   <stop stop-color="#fff" offset="0"/>
   <stop stop-color="#fafafa" offset=".5"/>
   <stop stop-color="#e7ecef" offset="1"/>
  </radialGradient>
  <radialGradient id="d" gradientUnits="userSpaceOnUse" fy="249.78807" cx="375.8786" cy="281.04529" r="56.000015" gradientTransform="matrix(.29686881 0 0 .27566376 227.94316 607.22356)">
   <stop stop-color="#fff" offset="0"/>
   <stop stop-color="#fafafa" offset=".5"/>
   <stop stop-color="#e7ecef" offset="1"/>
  </radialGradient>
  <radialGradient id="f" gradientUnits="userSpaceOnUse" fy="249.78807" cx="375.8786" cy="281.04529" r="56.000015" gradientTransform="matrix(.20566319 0 0 .19097287 326.26056 627.52078)">
   <stop stop-color="#fff" offset="0"/>
   <stop stop-color="#fafafa" offset=".5"/>
   <stop stop-color="#e7ecef" offset="1"/>
  </radialGradient>
  <radialGradient id="c" gradientUnits="userSpaceOnUse" fy="249.78807" cx="375.8786" cy="281.04529" r="56.000015" gradientTransform="matrix(.20566319 0 0 .19097287 326.26055 707.52078)">
   <stop stop-color="#fff" offset="0"/>
   <stop stop-color="#fafafa" offset=".5"/>
   <stop stop-color="#e7ecef" offset="1"/>
  </radialGradient>
  <radialGradient id="b" fy="249.78807" gradientUnits="userSpaceOnUse" cy="281.04529" cx="375.8786" gradientTransform="matrix(.20566319 0 0 .19097287 263.26055 761.52078)" r="56.000015">
   <stop stop-color="#fff" offset="0"/>
   <stop stop-color="#fafafa" offset=".5"/>
   <stop stop-color="#e7ecef" offset="1"/>
  </radialGradient>
 </defs>
 <g transform="translate(-311,-212.36218)">
  <g>
   <path opacity=".05" style="color:#000000" d="m366.71875 229.375c-16.52034 0-30.07803 12.55459-31.6875 28.625-10.12815 5.59948-17.03125 16.32148-17.03125 28.6875 0 17.95801 14.50656 32.5065 32.4375 32.78125 0.32284 8.83407 7.57214 15.90625 16.5 15.90625 5.19649 0 9.80249-2.44155 12.84375-6.1875 5.41572 3.87892 12.01427 6.1875 19.1875 6.1875 18.22937 0 33.03125-14.74619 33.03125-32.9375 0-10.29072-4.77575-19.39661-12.1875-25.4375 2.6604-4.0198 4.25-8.82428 4.25-14 0-14.06073-11.44166-25.46875-25.53125-25.46875-3.11393 0-6.0853 0.60571-8.84375 1.625-5.80407-6.01499-13.94732-9.78125-22.96875-9.78125zm38.875 118c-5.57357 0-10.61488 2.29911-14.25 5.96875-1.67071-0.59212-3.45927-0.96875-5.34375-0.96875-8.88986 0-16.09375 7.23307-16.09375 16.09375 0 3.13533 1.00175 5.9988 2.5625 8.46875-4.53969 3.78902-7.46875 9.42057-7.46875 15.78125 0 11.40326 9.28132 20.65625 20.71875 20.65625 4.37937 0 8.43024-1.37305 11.78125-3.6875 1.9454 2.23625 4.77658 3.6875 7.96875 3.6875 5.57504 0 10.04357-4.3476 10.4375-9.8125 11.11925-0.32174 20.09375-9.36724 20.09375-20.53125 0-7.67761-4.27388-14.33372-10.53125-17.875-1.08553-10.00671-9.55964-17.78125-19.875-17.78125zm-62.0625 7c-2.47653 0-4.68334 1.04651-6.34375 2.625-0.59133-0.11469-1.18968-0.21875-1.8125-0.21875-5.16042 0-9.375 4.11038-9.375 9.21875 0 4.77707 3.73171 8.60007 8.4375 9.09375 0.50573 4.63867 4.36694 8.28125 9.1875 8.28125 5.16042 0 9.375-4.11038 9.375-9.21875 0-2.10861-0.79223-4.00421-2-5.5625 1.04434-1.47017 1.75-3.22132 1.75-5.15625 0-5.01111-4.1578-9.0625-9.21875-9.0625zm-8.40625 51c-10.54884 0-19.125 8.50735-19.125 18.96875 0 7.02312 3.92419 13.07275 9.65625 16.34375-1.04794 2.33891-1.71875 4.88774-1.71875 7.625 0 10.5259 8.63803 19.0625 19.25 19.0625 8.02109 0 14.80183-4.94423 17.6875-11.875 12.27533-0.38762 22.125-10.36286 22.125-22.625 0-12.50695-10.23105-22.625-22.84375-22.625-3.62919 0-7.03583 0.91122-10.09375 2.40625-3.49981-4.40046-8.84905-7.28125-14.9375-7.28125zm71.90625 17c-6.10468 0-11.04939 4.56228-11.8125 10.4375-3.68434 2.13643-6.21875 6.04892-6.21875 10.59375 0 6.5688 5.20672 11.91841 11.71875 12.28125 0.436 3.18264 3.09683 5.6875 6.40625 5.6875 1.86095 0 3.45725-0.87789 4.65625-2.125 1.96439 1.29277 4.25214 2.125 6.78125 2.125 6.85685 0 12.4375-5.55131 12.4375-12.375 0-3.69068-1.66932-6.95412-4.25-9.21875 0.83044-1.41621 1.40625-3.01304 1.40625-4.78125 0-5.35274-4.37093-9.71875-9.75-9.71875-1.0686 0-2.07029 0.2463-3.03125 0.5625-2.17138-2.09707-5.08723-3.46875-8.34375-3.46875zm-2 65c-6.10468 0-11.0494 4.56227-11.8125 10.4375-3.68433 2.13644-6.21875 6.04893-6.21875 10.59375 0 6.56881 5.20671 11.91841 11.71875 12.28125 0.436 3.18265 3.09684 5.6875 6.40625 5.6875 1.86097 0 3.45725-0.8779 4.65625-2.125 1.96437 1.29277 4.25212 2.125 6.78125 2.125 6.85685 0 12.4375-5.55131 12.4375-12.375 0-3.69068-1.66931-6.95413-4.25-9.21875 0.83044-1.41621 1.40625-3.01305 1.40625-4.78125 0-5.35275-4.37093-9.71875-9.75-9.71875-1.06861 0-2.07029 0.24631-3.03125 0.5625-2.17138-2.09707-5.08722-3.46875-8.34375-3.46875zm-23.28125 1c-1.09197 0-1.98413 0.59617-2.59375 1.40625-1.74614 0.27436-3.15625 1.67492-3.15625 3.46875 0 1.98542 1.7034 3.5625 3.71875 3.5625 0.29585 0 0.54415-0.0938 0.8125-0.15625 0.59334 0.41731 1.2697 0.71875 2.03125 0.71875 1.86928 0 3.4375-1.47272 3.4375-3.3125 0-0.85041-0.41689-1.57541-0.96875-2.15625 0.0103-0.11371 0.0625-0.23638 0.0625-0.34375 0-1.79143-1.5464-3.1875-3.34375-3.1875zm-41.84375 1c-1.98778 0-3.57387 1.17572-4.5 2.78125-3.00208 0.37003-5.40625 2.83176-5.40625 5.9375 0 3.36191 2.76266 6.125 6.125 6.125 0.59511 0 1.1269-0.15422 1.65625-0.3125 0.98044 0.86175 2.21372 1.46875 3.625 1.46875 3.08972 0 5.59375-2.54388 5.59375-5.625 0-1.60476-0.76268-2.95815-1.84375-3.96875 0.0719-0.33206 0.15625-0.65845 0.15625-1.03125 0-2.97117-2.44332-5.375-5.40625-5.375zm0.84375 34c-1.09197 0-1.98413 0.59617-2.59375 1.40625-1.74614 0.27436-3.15625 1.67492-3.15625 3.46875 0 1.98542 1.7034 3.5625 3.71875 3.5625 0.29585 0 0.54415-0.0938 0.8125-0.15625 0.59334 0.41731 1.2697 0.71875 2.03125 0.71875 1.86928 0 3.4375-1.47272 3.4375-3.3125 0-0.85041-0.41689-1.57541-0.96875-2.15625 0.0103-0.11371 0.0625-0.23638 0.0625-0.34375 0-1.79143-1.5464-3.1875-3.34375-3.1875zm68 14c-1.09197 0-1.98413 0.59617-2.59375 1.40625-1.74614 0.27436-3.15625 1.67492-3.15625 3.46875 0 1.98542 1.7034 3.5625 3.71875 3.5625 0.29585 0 0.54415-0.0938 0.8125-0.15625 0.59334 0.41731 1.2697 0.71875 2.03125 0.71875 1.86928 0 3.4375-1.47272 3.4375-3.3125 0-0.85041-0.41689-1.57541-0.96875-2.15625 0.0103-0.11371 0.0625-0.23638 0.0625-0.34375 0-1.79143-1.5464-3.1875-3.34375-3.1875zm-68.71875 4c-6.10468 0-11.04939 4.56228-11.8125 10.4375-3.68432 2.13644-6.21875 6.04893-6.21875 10.59375 0 6.56881 5.20671 11.91841 11.71875 12.28125 0.436 3.18265 3.09684 5.6875 6.40625 5.6875 1.86096 0 3.45725-0.8779 4.65625-2.125 1.96438 1.29277 4.25213 2.125 6.78125 2.125 6.85686 0 12.4375-5.55131 12.4375-12.375 0-3.69068-1.66932-6.95413-4.25-9.21875 0.83044-1.41621 1.40625-3.01305 1.40625-4.78125 0-5.35275-4.37093-9.71875-9.75-9.71875-1.06861 0-2.07029 0.24631-3.03125 0.5625-2.17138-2.09707-5.08722-3.46875-8.34375-3.46875zm29.71875 4c-1.09197 0-1.98413 0.59617-2.59375 1.40625-1.74614 0.27436-3.15625 1.67492-3.15625 3.46875 0 1.98542 1.7034 3.5625 3.71875 3.5625 0.29585 0 0.54415-0.0938 0.8125-0.15625 0.59334 0.41731 1.2697 0.71875 2.03125 0.71875 1.86928 0 3.4375-1.47272 3.4375-3.3125 0-0.85041-0.41689-1.57541-0.96875-2.15625 0.0103-0.11371 0.0625-0.23638 0.0625-0.34375 0-1.79143-1.5464-3.1875-3.34375-3.1875zm29.625 11c-5.167 0-9.375 4.22362-9.375 9.40625 0 2.6221 1.13659 4.94109 2.875 6.65625-0.1412 0.62501-0.28125 1.25975-0.28125 1.9375 0 4.96888 4.05032 9 9 9 4.78413 0 8.61832-3.79634 8.875-8.53125 4.73641-0.3544 8.53125-4.22 8.53125-9.0625 0-5.07574-4.12682-9.21875-9.1875-9.21875-1.89705 0-3.60327 0.66514-5.0625 1.65625-1.53167-1.09854-3.35118-1.84375-5.375-1.84375zm-52.3125 60.46875c-1.09197 0-1.98413 0.59617-2.59375 1.40625-1.73239 0.27356-3.15625 1.64693-3.15625 3.4375 0 1.98542 1.7034 3.5625 3.71875 3.5625 0.28486 0 0.52174-0.098 0.78125-0.15625 0.58685 0.43072 1.27042 0.75 2.0625 0.75 1.86928 0 3.4375-1.47272 3.4375-3.3125 0-0.85041-0.41689-1.57541-0.96875-2.15625 0.0103-0.11371 0.0625-0.23638 0.0625-0.34375 0-1.79143-1.5464-3.1875-3.34375-3.1875zm56.3125 0.53125c-5.167 0-9.375 4.22362-9.375 9.40625 0 2.6221 1.13659 4.94109 2.875 6.65625-0.1412 0.62501-0.28125 1.25975-0.28125 1.9375 0 4.96888 4.05032 9 9 9 4.78413 0 8.61832-3.79634 8.875-8.53125 4.73641-0.3544 8.53125-4.22 8.53125-9.0625 0-5.07574-4.12682-9.21875-9.1875-9.21875-1.89705 0-3.60327 0.66514-5.0625 1.65625-1.53167-1.09854-3.35118-1.84375-5.375-1.84375zm18.625 24.09375c-1.09501 0-2.00539 0.58594-2.625 1.40625-1.73239 0.27356-3.15625 1.64693-3.15625 3.4375 0 2.00027 1.73465 3.5625 3.75 3.5625 0.28486 0 0.52174-0.098 0.78125-0.15625 0.57406 0.42441 1.24215 0.75 2.03125 0.75 1.86928 0 3.4375-1.47272 3.4375-3.3125 0-0.83471-0.40337-1.54767-0.9375-2.125 0.0215-0.13098 0.0625-0.22346 0.0625-0.375 0-1.79143-1.5464-3.1875-3.34375-3.1875zm-80.6875 18.0625c-1.11279 0-2.01136 0.61255-2.625 1.4375-1.72855 0.27554-3.125 1.66096-3.125 3.4375 0 1.98542 1.7034 3.5625 3.71875 3.5625 0.28486 0 0.52174-0.098 0.78125-0.15625 0.58384 0.41929 1.2646 0.71875 2.03125 0.71875 1.86928 0 3.46875-1.45628 3.46875-3.3125 0-0.86733-0.41522-1.58419-0.96875-2.15625 0.0186-0.12193 0.0625-0.20444 0.0625-0.34375 0-1.79143-1.5464-3.1875-3.34375-3.1875zm-5.9375 12.84375c-5.167 0-9.375 4.22362-9.375 9.40625 0 2.6221 1.13659 4.94109 2.875 6.65625-0.1412 0.62501-0.28125 1.25975-0.28125 1.9375 0 4.96888 4.05032 9 9 9 4.78413 0 8.61832-3.79634 8.875-8.53125 4.73641-0.3544 8.53125-4.22 8.53125-9.0625 0-5.07574-4.12682-9.21875-9.1875-9.21875-1.89705 0-3.60327 0.66514-5.0625 1.65625-1.53167-1.09854-3.35118-1.84375-5.375-1.84375zm69.53125 2c-1.98777 0-3.57387 1.17572-4.5 2.78125-3.00207 0.37003-5.40625 2.83176-5.40625 5.9375 0 3.36191 2.76266 6.125 6.125 6.125 0.59512 0 1.1269-0.15422 1.65625-0.3125 0.98044 0.86175 2.21373 1.46875 3.625 1.46875 3.08972 0 5.59375-2.54388 5.59375-5.625 0-1.60476-0.76268-2.95815-1.84375-3.96875 0.0719-0.33206 0.15625-0.65845 0.15625-1.03125 0-2.97117-2.44331-5.375-5.40625-5.375zm-49.46875 17.125c-1.09197 0-1.98413 0.59617-2.59375 1.40625-1.73239 0.27356-3.15625 1.64693-3.15625 3.4375 0 1.98542 1.7034 3.5625 3.71875 3.5625 0.28486 0 0.52174-0.098 0.78125-0.15625 0.58685 0.43072 1.27042 0.75 2.0625 0.75 1.86928 0 3.4375-1.47271 3.4375-3.3125 0-0.85041-0.41689-1.57541-0.96875-2.15625 0.0103-0.11371 0.0625-0.23639 0.0625-0.34375 0-1.79143-1.5464-3.1875-3.34375-3.1875zm49.46875 62.875c-1.98778 0-3.57387 1.17572-4.5 2.78125-3.00208 0.37003-5.40625 2.83176-5.40625 5.9375 0 3.36191 2.76266 6.125 6.125 6.125 0.59511 0 1.1269-0.15422 1.65625-0.3125 0.98044 0.86175 2.21372 1.46875 3.625 1.46875 0.38536 0 0.75474-0.0488 1.125-0.125 0.38421-0.0791 0.77014-0.1745 1.09375-0.3125 0.99835-0.42572 1.8388-1.13666 2.4375-2.03125 0.18141-0.27106 0.37687-0.60028 0.53125-0.96875 0.29071-0.69382 0.40625-1.43372 0.40625-2.1875 0-1.60476-0.76268-2.95815-1.84375-3.96875 0.0719-0.33206 0.15625-0.65845 0.15625-1.03125 0-2.97117-2.44332-5.375-5.40625-5.375zm13.21875 5c-1.40187 0-2.46813 0.92992-3.03125 2.125-1.73009 0.21142-3.09375 1.63052-3.09375 3.40625 0 1.91813 1.57192 3.5 3.5 3.5 0.44386 0 0.77779-0.22517 1.15625-0.375 0.67085 0.77513 1.57935 1.34375 2.6875 1.34375 2.01323 0 3.65625-1.6534 3.65625-3.65625 0-1.10755-0.58902-1.99266-1.375-2.65625 0.006-0.0705 0.0312-0.10949 0.0312-0.1875 0-1.93326-1.60318-3.5-3.53125-3.5zm-79 5c-1.40187 0-2.46813 0.92992-3.03125 2.125-1.73009 0.21142-3.09375 1.63052-3.09375 3.40625 0 1.91813 1.57192 3.5 3.5 3.5 0.44386 0 0.77779-0.22517 1.15625-0.375 0.67085 0.77513 1.57935 1.34375 2.6875 1.34375 2.01323 0 3.65625-1.6534 3.65625-3.65625 0-1.10755-0.58902-1.99266-1.375-2.65625 0.006-0.0705 0.0312-0.10949 0.0312-0.1875 0-1.93326-1.60318-3.5-3.53125-3.5zm69 43c-1.40187 0-2.46813 0.92992-3.03125 2.125-1.73009 0.21142-3.09375 1.63052-3.09375 3.40625 0 1.91813 1.57192 3.5 3.5 3.5 0.44386 0 0.77779-0.22517 1.15625-0.375 0.67085 0.77513 1.57935 1.34375 2.6875 1.34375 2.01323 0 3.65625-1.6534 3.65625-3.65625 0-1.10755-0.58902-1.99266-1.375-2.65625 0.006-0.0705 0.0312-0.10949 0.0312-0.1875 0-1.93326-1.60318-3.5-3.53125-3.5zm-66.21875 1c-1.98778 0-3.57387 1.17572-4.5 2.78125-3.00208 0.37003-5.40625 2.83176-5.40625 5.9375 0 3.36191 2.76266 6.125 6.125 6.125 0.59511 0 1.1269-0.15422 1.65625-0.3125 0.98044 0.86175 2.21372 1.46875 3.625 1.46875 3.08972 0 5.59375-2.54388 5.59375-5.625 0-1.60476-0.76268-2.95815-1.84375-3.96875 0.0719-0.33206 0.15625-0.65845 0.15625-1.03125 0-2.97117-2.44332-5.375-5.40625-5.375zm8.21875 15c-1.40187 0-2.46813 0.92992-3.03125 2.125-1.73009 0.21142-3.09375 1.63052-3.09375 3.40625 0 1.91813 1.57192 3.5 3.5 3.5 0.44386 0 0.77779-0.22517 1.15625-0.375 0.67085 0.77513 1.57935 1.34375 2.6875 1.34375 2.01323 0 3.65625-1.6534 3.65625-3.65625 0-1.10755-0.58902-1.99266-1.375-2.65625 0.006-0.0705 0.0312-0.10949 0.0312-0.1875 0-1.93326-1.60318-3.5-3.53125-3.5z"/>
   <path opacity=".15" style="color:#000000" d="m366.71875 230.36218c-16.18363 0-29.45686 12.41434-30.78125 28.21875-10.06394 5.35721-16.9375 15.91875-16.9375 28.09375 0 17.58555 14.31078 31.84375 31.9375 31.84375 0.15883 0 0.31047 0.002 0.46875 0-0.002 0.11519-0.0312 0.22795-0.0312 0.34375 0 8.57374 6.96869 15.5 15.5625 15.5 5.21834 0 9.86456-2.56723 12.6875-6.5 5.37768 4.07732 12.06826 6.5 19.34375 6.5 17.68945 0 32.03125-14.28936 32.03125-31.9375 0-10.3007-4.8836-19.43757-12.46875-25.28125 2.84579-3.99677 4.53125-8.88042 4.53125-14.15625 0-13.51772-10.98188-24.46875-24.53125-24.46875-3.21026 0-6.28349 0.6314-9.09375 1.75-5.64445-6.09899-13.74212-9.90625-22.71875-9.90625zm38.875 118c-5.53025 0-10.52262 2.34054-14 6.09375-1.73132-0.68836-3.616-1.09375-5.59375-1.09375-8.34736 0-15.09375 6.77514-15.09375 15.09375 0 3.24666 1.02805 6.22793 2.78125 8.6875-4.67298 3.5961-7.6875 9.2236-7.6875 15.5625 0 10.86039 8.82079 19.65625 19.71875 19.65625 4.48221 0 8.62446-1.49088 11.9375-4 1.73912 2.42016 4.59764 4 7.8125 4 5.29439 0 9.59375-4.25509 9.59375-9.53125 0-0.0713-0.0303-0.14775-0.0312-0.21875 0.0975 0.00093 0.18335 0 0.28125 0 10.8593 0 19.6875-8.77187 19.6875-19.59375 0-7.49231-4.23739-14.01575-10.4375-17.3125-0.81591-9.72579-8.9985-17.34375-18.96875-17.34375zm-62.0625 7c-2.40994 0-4.59339 1.02706-6.09375 2.65625-0.66426-0.16658-1.34555-0.25-2.0625-0.25-4.63249 0-8.375 3.65897-8.375 8.21875 0 4.51761 3.67666 8.21376 8.25 8.28125 0.0686 4.50156 3.78535 8.09375 8.375 8.09375 4.63249 0 8.375-3.65898 8.375-8.21875 0-2.12951-0.81129-4.06692-2.15625-5.53125-0.005-0.006 0.005-0.0257 0-0.0312 1.16983-1.39526 1.90625-3.20593 1.90625-5.15625 0-4.45788-3.68978-8.0625-8.21875-8.0625zm-8.40625 51c-10.01109 0-18.125 8.05436-18.125 17.96875 0 6.96602 4.01964 12.99283 9.875 15.96875-1.20688 2.41341-1.9375 5.1244-1.9375 8 0 9.97835 8.17431 18.0625 18.25 18.0625 7.84732 0 14.51838-4.92803 17.09375-11.8125 12.0201-0.067 21.71875-9.76777 21.71875-21.6875 0-11.96123-9.76585-21.625-21.84375-21.625-3.74918 0-7.29099 0.91611-10.375 2.5625-3.29347-4.50332-8.61234-7.4375-14.65625-7.4375zm71.90625 17c-5.77986 0-10.49576 4.40853-10.96875 10.03125-3.59428 1.90593-6.0625 5.6685-6.0625 10 0 6.2564 5.111 11.34375 11.40625 11.34375 0.0567 0 0.0997 0.00054 0.15625 0-0.00056 0.0411 0 0.0525 0 0.0937 0 3.05028 2.49328 5.53125 5.5625 5.53125 1.86368 0 3.52307-0.91334 4.53125-2.3125 1.92061 1.45059 4.30787 2.3125 6.90625 2.3125 6.31767 0 11.4375-5.09634 11.4375-11.375 0-3.66468-1.75977-6.921-4.46875-9 1.01636-1.42194 1.625-3.12302 1.625-5 0-4.80919-3.91094-8.71875-8.75-8.71875-1.14652 0-2.24634 0.22703-3.25 0.625-2.01588-2.16983-4.91905-3.53125-8.125-3.53125zm-2 65c-5.77985 0-10.49577 4.40853-10.96875 10.03125-3.59427 1.90594-6.0625 5.66851-6.0625 10 0 6.25641 5.11098 11.34375 11.40625 11.34375 0.0568 0 0.0997 0.00054 0.15625 0-0.00055 0.041 0 0.0525 0 0.0937 0 3.05028 2.4933 5.53125 5.5625 5.53125 1.8637 0 3.52306-0.91335 4.53125-2.3125 1.92059 1.45058 4.30785 2.3125 6.90625 2.3125 6.31767 0 11.4375-5.09634 11.4375-11.375 0-3.66468-1.75976-6.92101-4.46875-9 1.01635-1.42194 1.625-3.12303 1.625-5 0-4.8092-3.91094-8.71875-8.75-8.71875-1.14652 0-2.24633 0.22704-3.25 0.625-2.01588-2.16983-4.91904-3.53125-8.125-3.53125zm-23.28125 1c-0.96509 0-1.76622 0.53117-2.125 1.3125-1.44691 0.0564-2.625 1.19237-2.625 2.5625 0 1.4062 1.21859 2.5625 2.71875 2.5625 0.35629 0 0.68823-0.0706 1-0.1875 0.4493 0.4678 1.11936 0.75 1.84375 0.75 1.35565 0 2.4375-1.04176 2.4375-2.3125 0-0.76629-0.38543-1.42558-1-1.84375 0.0685-0.20626 0.0937-0.42887 0.0937-0.65625 0-1.21269-1.05003-2.1875-2.34375-2.1875zm-41.84375 1c-1.80953 0-3.32728 1.09358-4 2.65625-2.71293 0.11283-4.90625 2.32224-4.90625 5.0625 0 2.81239 2.31219 5.125 5.125 5.125 0.66804 0 1.29045-0.14121 1.875-0.375 0.84244 0.9356 2.04803 1.53125 3.40625 1.53125 2.54185 0 4.59375-2.08352 4.59375-4.625 0-1.53259-0.75393-2.85116-1.90625-3.6875 0.12833-0.41253 0.21875-0.85775 0.21875-1.3125 0-2.42537-1.98053-4.375-4.40625-4.375zm0.84375 34c-0.96509 0-1.76622 0.53117-2.125 1.3125-1.44691 0.0564-2.625 1.19237-2.625 2.5625 0 1.4062 1.21859 2.5625 2.71875 2.5625 0.35629 0 0.68823-0.0706 1-0.1875 0.4493 0.4678 1.11936 0.75 1.84375 0.75 1.35565 0 2.4375-1.04176 2.4375-2.3125 0-0.76629-0.38543-1.42558-1-1.84375 0.0685-0.20626 0.0937-0.42887 0.0937-0.65625 0-1.21269-1.05003-2.1875-2.34375-2.1875zm68 14c-0.96509 0-1.76622 0.53117-2.125 1.3125-1.44691 0.0564-2.625 1.19237-2.625 2.5625 0 1.4062 1.21859 2.5625 2.71875 2.5625 0.35629 0 0.68823-0.0706 1-0.1875 0.4493 0.4678 1.11936 0.75 1.84375 0.75 1.35565 0 2.4375-1.04176 2.4375-2.3125 0-0.76629-0.38543-1.42558-1-1.84375 0.0685-0.20626 0.0937-0.42887 0.0937-0.65625 0-1.21269-1.05003-2.1875-2.34375-2.1875zm-68.71875 4c-5.77986 0-10.49576 4.40853-10.96875 10.03125-3.59426 1.90594-6.0625 5.66851-6.0625 10 0 6.25641 5.11098 11.34375 11.40625 11.34375 0.0568 0 0.0997 0.00054 0.15625 0-0.00054 0.041 0 0.0525 0 0.0937 0 3.05028 2.49329 5.53125 5.5625 5.53125 1.86369 0 3.52306-0.91335 4.53125-2.3125 1.9206 1.45058 4.30786 2.3125 6.90625 2.3125 6.31768 0 11.4375-5.09634 11.4375-11.375 0-3.66468-1.75977-6.92101-4.46875-9 1.01635-1.42194 1.625-3.12303 1.625-5 0-4.8092-3.91094-8.71875-8.75-8.71875-1.14652 0-2.24633 0.22704-3.25 0.625-2.01588-2.16983-4.91904-3.53125-8.125-3.53125zm29.71875 4c-0.96509 0-1.76622 0.53117-2.125 1.3125-1.44691 0.0564-2.625 1.19237-2.625 2.5625 0 1.4062 1.21859 2.5625 2.71875 2.5625 0.35629 0 0.68823-0.0706 1-0.1875 0.4493 0.4678 1.11936 0.75 1.84375 0.75 1.35565 0 2.4375-1.04176 2.4375-2.3125 0-0.76629-0.38543-1.42558-1-1.84375 0.0685-0.20626 0.0937-0.42887 0.0937-0.65625 0-1.21269-1.05003-2.1875-2.34375-2.1875zm29.625 11c-4.6228 0-8.375 3.76385-8.375 8.40625 0 2.55628 1.11327 4.86455 2.90625 6.40625-0.19813 0.69882-0.3125 1.42485-0.3125 2.1875 0 4.42646 3.59221 8 8 8s7.96875-3.57354 7.96875-8c0-0.13303 0.006-0.27482 0-0.40625 0.0932 0.003 0.15606 0 0.25 0 4.5153 0 8.1875-3.65306 8.1875-8.1875s-3.6722-8.21875-8.1875-8.21875c-1.919 0-3.66771 0.6696-5.0625 1.78125-1.45611-1.23165-3.32219-1.96875-5.375-1.96875zm-52.3125 60.46875c-0.96509 0-1.76622 0.53117-2.125 1.3125-1.44691 0.0564-2.625 1.16112-2.625 2.53125 0 1.4062 1.21859 2.5625 2.71875 2.5625 0.35629 0 0.68823-0.0706 1-0.1875 0.4493 0.4678 1.11936 0.78125 1.84375 0.78125 1.35565 0 2.4375-1.04176 2.4375-2.3125 0-0.76629-0.38543-1.42558-1-1.84375 0.0685-0.20626 0.0937-0.42887 0.0937-0.65625 0-1.21269-1.05003-2.1875-2.34375-2.1875zm56.3125 0.53125c-4.6228 0-8.375 3.76385-8.375 8.40625 0 2.55628 1.11327 4.86455 2.90625 6.40625-0.19813 0.69882-0.3125 1.42485-0.3125 2.1875 0 4.42646 3.59221 8 8 8s7.96875-3.57354 7.96875-8c0-0.13303 0.006-0.27482 0-0.40625 0.0932 0.003 0.15606 0 0.25 0 4.5153 0 8.1875-3.65306 8.1875-8.1875s-3.6722-8.21875-8.1875-8.21875c-1.919 0-3.66771 0.6696-5.0625 1.78125-1.45611-1.23165-3.32219-1.96875-5.375-1.96875zm18.625 24.09375c-0.96509 0-1.79747 0.53117-2.15625 1.3125-1.44691 0.0564-2.625 1.16112-2.625 2.53125 0 1.4062 1.24984 2.5625 2.75 2.5625 0.35629 0 0.68823-0.0706 1-0.1875 0.4493 0.4678 1.08811 0.78125 1.8125 0.78125 1.35565 0 2.4375-1.04176 2.4375-2.3125 0-0.7663-0.38543-1.42558-1-1.84375 0.0685-0.20627 0.125-0.42888 0.125-0.65625 0-1.21269-1.05003-2.1875-2.34375-2.1875zm-80.6875 18.0625c-0.96509 0-1.79747 0.56242-2.15625 1.34375-1.44691 0.0564-2.59375 1.16112-2.59375 2.53125 0 1.4062 1.21859 2.5625 2.71875 2.5625 0.35629 0 0.68823-0.0706 1-0.1875 0.4493 0.4678 1.08811 0.75 1.8125 0.75 1.35565 0 2.46875-1.04176 2.46875-2.3125 0-0.7663-0.41668-1.42558-1.03125-1.84375 0.0685-0.20627 0.125-0.42887 0.125-0.65625 0-1.21269-1.05003-2.1875-2.34375-2.1875zm-5.9375 12.84375c-4.6228 0-8.375 3.76385-8.375 8.40625 0 2.55628 1.11327 4.86455 2.90625 6.40625-0.19813 0.69882-0.3125 1.42485-0.3125 2.1875 0 4.42646 3.59221 8 8 8s7.96875-3.57354 7.96875-8c0-0.13303 0.006-0.27482 0-0.40625 0.0932 0.003 0.15606 0 0.25 0 4.5153 0 8.1875-3.65306 8.1875-8.1875s-3.6722-8.21875-8.1875-8.21875c-1.919 0-3.66771 0.6696-5.0625 1.78125-1.45611-1.23165-3.32219-1.96875-5.375-1.96875zm69.53125 2c-1.80952 0-3.32727 1.09358-4 2.65625-2.71292 0.11283-4.90625 2.32224-4.90625 5.0625 0 2.81239 2.31219 5.125 5.125 5.125 0.66805 0 1.29045-0.14121 1.875-0.375 0.84245 0.9356 2.04804 1.53125 3.40625 1.53125 2.54185 0 4.59375-2.08352 4.59375-4.625 0-1.53259-0.75393-2.85116-1.90625-3.6875 0.12833-0.41253 0.21875-0.85775 0.21875-1.3125 0-2.42537-1.98052-4.375-4.40625-4.375zm-49.46875 17.125c-0.96509 0-1.76622 0.53117-2.125 1.3125-1.44691 0.0564-2.625 1.16112-2.625 2.53125 0 1.4062 1.21859 2.5625 2.71875 2.5625 0.35629 0 0.68823-0.0706 1-0.1875 0.4493 0.4678 1.11936 0.78125 1.84375 0.78125 1.35565 0 2.4375-1.04175 2.4375-2.3125 0-0.76629-0.38543-1.42558-1-1.84375 0.0685-0.20627 0.0937-0.42888 0.0937-0.65625 0-1.21269-1.05003-2.1875-2.34375-2.1875zm49.46875 62.875c-1.80953 0-3.32728 1.09358-4 2.65625-2.71293 0.11283-4.90625 2.32224-4.90625 5.0625 0 2.81239 2.31219 5.125 5.125 5.125 0.66804 0 1.29045-0.14121 1.875-0.375 0.84244 0.9356 2.04803 1.53125 3.40625 1.53125 0.31773 0 0.63839-0.0321 0.9375-0.0937s0.60054-0.16421 0.875-0.28125c0.82338-0.35111 1.50695-0.91953 2-1.65625 0.16435-0.24557 0.32191-0.50537 0.4375-0.78125 0.23119-0.55176 0.34375-1.17713 0.34375-1.8125 0-1.53259-0.75393-2.85116-1.90625-3.6875 0.12833-0.41253 0.21875-0.85775 0.21875-1.3125 0-2.42537-1.98053-4.375-4.40625-4.375zm13.21875 5c-1.22661 0-2.24594 0.87721-2.46875 2.03125-0.0502-0.003-0.10534 0-0.15625 0-1.38963 0-2.5 1.11945-2.5 2.5 0 1.38054 1.11037 2.5 2.5 2.5 0.55353 0 1.05328-0.19906 1.46875-0.5 0.43891 0.85684 1.34095 1.46875 2.375 1.46875 1.46713 0 2.65625-1.1987 2.65625-2.65625 0-1.00679-0.57174-1.86752-1.40625-2.3125-0.004-0.002 0.004-0.029 0-0.0312 0.0335-0.16272 0.0625-0.32743 0.0625-0.5 0-1.38054-1.14163-2.5-2.53125-2.5zm-79 5c-1.22661 0-2.24594 0.87721-2.46875 2.03125-0.0502-0.003-0.10534 0-0.15625 0-1.38963 0-2.5 1.11945-2.5 2.5 0 1.38054 1.11037 2.5 2.5 2.5 0.55353 0 1.05328-0.19906 1.46875-0.5 0.43891 0.85684 1.34095 1.46875 2.375 1.46875 1.46713 0 2.65625-1.1987 2.65625-2.65625 0-1.00679-0.57174-1.86752-1.40625-2.3125-0.004-0.002 0.004-0.029 0-0.0312 0.0335-0.16272 0.0625-0.32743 0.0625-0.5 0-1.38054-1.14163-2.5-2.53125-2.5zm69 43c-1.22661 0-2.24594 0.87721-2.46875 2.03125-0.0502-0.003-0.10534 0-0.15625 0-1.38963 0-2.5 1.11945-2.5 2.5 0 1.38054 1.11037 2.5 2.5 2.5 0.55353 0 1.05328-0.19906 1.46875-0.5 0.43891 0.85684 1.34095 1.46875 2.375 1.46875 1.46713 0 2.65625-1.1987 2.65625-2.65625 0-1.00679-0.57174-1.86752-1.40625-2.3125-0.004-0.002 0.004-0.029 0-0.0312 0.0335-0.16272 0.0625-0.32743 0.0625-0.5 0-1.38054-1.14163-2.5-2.53125-2.5zm-66.21875 1c-1.80953 0-3.32728 1.09358-4 2.65625-2.71293 0.11283-4.90625 2.32224-4.90625 5.0625 0 2.81239 2.31219 5.125 5.125 5.125 0.66804 0 1.29045-0.14121 1.875-0.375 0.84244 0.9356 2.04803 1.53125 3.40625 1.53125 2.54185 0 4.59375-2.08352 4.59375-4.625 0-1.53259-0.75393-2.85116-1.90625-3.6875 0.12833-0.41253 0.21875-0.85775 0.21875-1.3125 0-2.42537-1.98053-4.375-4.40625-4.375zm8.21875 15c-1.22661 0-2.24594 0.87721-2.46875 2.03125-0.0502-0.003-0.10534 0-0.15625 0-1.38963 0-2.5 1.11945-2.5 2.5 0 1.38054 1.11037 2.5 2.5 2.5 0.55353 0 1.05328-0.19906 1.46875-0.5 0.43891 0.85684 1.34095 1.46875 2.375 1.46875 1.46713 0 2.65625-1.1987 2.65625-2.65625 0-1.00679-0.57174-1.86752-1.40625-2.3125-0.004-0.002 0.004-0.029 0-0.0312 0.0335-0.16272 0.0625-0.32743 0.0625-0.5 0-1.38054-1.14163-2.5-2.53125-2.5z"/>
   <path style="color:#000000" d="m405.59651 346.36218c9.97025 0 18.14412 7.63274 18.96003 17.35853 6.20011 3.29675 10.44344 9.80862 10.44344 17.30093 0 10.82188-8.81366 19.58596-19.67296 19.58596-0.0979 0-0.19152 0.00093-0.28904 0 0.00094 0.071 0.0192 0.13996 0.0192 0.21122 0 5.27616-4.30124 9.54336-9.59563 9.54336-3.21486 0-6.06455-1.57384-7.80367-3.994-3.31304 2.50912-7.44489 3.994-11.9271 3.994-10.89796 0-19.73078-8.80237-19.73078-19.66276 0-6.3389 3.01508-11.95745 7.68806-15.55355-1.7532-2.45957-2.79391-5.45182-2.79391-8.69848 0-8.31861 6.75901-15.07351 15.10637-15.07351 1.97775 0 3.87577 0.38694 5.60709 1.0753 3.47738-3.75321 8.45857-6.087 13.98882-6.087z" fill="url(#h)"/>
   <path style="color:#000000" d="m366.72743 228.36218c-16.18363 0-29.45136 12.40321-30.77575 28.20762-10.06394 5.35721-16.95168 15.93901-16.95168 28.11401 0 17.58555 14.30625 31.82718 31.93297 31.82718 0.15883 0 0.31086 0.002 0.46914 0-0.002 0.11519-0.0312 0.22744-0.0312 0.34324 0 8.57374 6.98172 15.50795 15.57553 15.50795 5.21834 0 9.84391-2.55748 12.66685-6.49025 5.37768 4.07732 12.08446 6.49025 19.35995 6.49025 17.68945 0 32.02679-14.30386 32.02679-31.952 0-10.3007-4.89404-19.43084-12.47919-25.27452 2.84579-3.99677 4.53504-8.85919 4.53504-14.13502 0-13.51772-10.97114-24.49445-24.52051-24.49445-3.21026 0-6.2911 0.62878-9.10136 1.74738-5.64445-6.09899-13.72987-9.89139-22.7065-9.89139z" fill="url(#n)"/>
   <path style="color:#000000" d="m343.5404 353.36218c-2.40994 0-4.59181 1.01178-6.09217 2.64097-0.66426-0.16658-1.36638-0.24856-2.08333-0.24856-4.63249 0-8.3649 3.67382-8.3649 8.2336 0 4.51761 3.6653 8.19718 8.23864 8.26467 0.0686 4.50156 3.80681 8.10932 8.39646 8.10932 4.63249 0 8.3649-3.67383 8.3649-8.2336 0-2.12951-0.8015-4.06617-2.14646-5.5305-0.005-0.006 0.005-0.0254 0-0.031 1.16983-1.39526 1.89393-3.20733 1.89393-5.15765 0-4.45788-3.6781-8.04718-8.20707-8.04718z" fill="#fafafb"/>
  </g>
  <path style="color:#000000" d="m335.12861 404.36218c-10.01109 0-18.12861 8.0391-18.12861 17.95349 0 6.96602 4.00736 12.99307 9.86272 15.96899-1.20688 2.41341-1.90993 5.1244-1.90993 8 0 9.97835 8.14686 18.07752 18.22255 18.07752 7.84732 0 14.52-4.92948 17.09537-11.81395 12.0201-0.067 21.72929-9.75469 21.72929-21.67442 0-11.96123-9.77663-21.64341-21.85453-21.64341-3.74918 0-7.27967 0.92725-10.36368 2.57364-3.29347-4.50332-8.60927-7.44186-14.65318-7.44186z" fill="url(#m)"/>
  <path style="color:#000000" d="m407.04551 421.36218c-5.77986 0-10.51834 4.41268-10.99133 10.0354-3.59428 1.90593-6.05418 5.67061-6.05418 10.00211 0 6.2564 5.10938 11.32312 11.40463 11.32312 0.0567 0 0.11103 0.00054 0.16756 0-0.00056 0.0411-0.0112 0.0809-0.0112 0.12212 0 3.05028 2.49348 5.51725 5.5627 5.51725 1.86368 0 3.51569-0.90987 4.52387-2.30903 1.92061 1.45059 4.31588 2.30903 6.91426 2.30903 6.31767 0 11.43815-5.08887 11.43815-11.36753 0-3.66468-1.74788-6.9129-4.45686-8.9919 1.01636-1.42194 1.61966-3.15183 1.61966-5.02881 0-4.80919-3.91826-8.71436-8.75732-8.71436-1.14652 0-2.24682 0.22369-3.25048 0.62166-2.01588-2.16983-4.90353-3.51906-8.10948-3.51906z" fill="url(#k)"/>
  <g>
   <path style="color:#000000" d="m405.0455 486.36218c-5.77985 0-10.51835 4.41268-10.99133 10.0354-3.59427 1.90594-6.05417 5.67061-6.05417 10.0021 0 6.25641 5.10936 11.32313 11.40463 11.32313 0.0568 0 0.11101 0.00054 0.16756 0-0.00055 0.041-0.0111 0.0809-0.0111 0.12212 0 3.05028 2.49347 5.51725 5.56267 5.51725 1.8637 0 3.5157-0.90988 4.52389-2.30903 1.92059 1.45058 4.31587 2.30903 6.91427 2.30903 6.31767 0 11.43813-5.08887 11.43813-11.36753 0-3.66468-1.74786-6.91291-4.45685-8.9919 1.01635-1.42194 1.61967-3.15184 1.61967-5.02881 0-4.8092-3.91827-8.71438-8.75733-8.71438-1.14652 0-2.24682 0.22371-3.25049 0.62167-2.01588-2.16983-4.90352-3.51905-8.10948-3.51905z" fill="url(#l)"/>
   <path style="color:#000000" d="m70.75 275c-0.96509 0-1.76622 0.53117-2.125 1.3125-1.44691 0.0564-2.625 1.19237-2.625 2.5625 0 1.4062 1.21859 2.5625 2.71875 2.5625 0.35629 0 0.68823-0.07061 1-0.1875 0.4493 0.4678 1.11936 0.75 1.84375 0.75 1.35565 0 2.4375-1.04176 2.4375-2.3125 0-0.76629-0.38543-1.42558-1-1.84375 0.0685-0.20626 0.09375-0.42887 0.09375-0.65625 0-1.21269-1.05003-2.1875-2.34375-2.1875zm-41 35c-0.96509 0-1.76622 0.53117-2.125 1.3125-1.44691 0.0564-2.625 1.19237-2.625 2.5625 0 1.4062 1.21859 2.5625 2.71875 2.5625 0.35629 0 0.68823-0.07061 1-0.1875 0.4493 0.4678 1.11936 0.75 1.84375 0.75 1.35565 0 2.4375-1.04176 2.4375-2.3125 0-0.76629-0.38543-1.42558-1-1.84375 0.0685-0.20626 0.09375-0.42887 0.09375-0.65625 0-1.21269-1.05003-2.1875-2.34375-2.1875zm68 14c-0.96509 0-1.76622 0.53117-2.125 1.3125-1.44691 0.0564-2.625 1.19237-2.625 2.5625 0 1.4062 1.21859 2.5625 2.71875 2.5625 0.35629 0 0.68823-0.07061 1-0.1875 0.4493 0.4678 1.11936 0.75 1.84375 0.75 1.35565 0 2.4375-1.04176 2.4375-2.3125 0-0.76629-0.38543-1.42558-1-1.84375 0.0685-0.20626 0.09375-0.42887 0.09375-0.65625 0-1.21269-1.05003-2.1875-2.34375-2.1875zm-39 8c-0.96509 0-1.76622 0.53117-2.125 1.3125-1.44691 0.0564-2.625 1.19237-2.625 2.5625 0 1.4062 1.21859 2.5625 2.71875 2.5625 0.35629 0 0.68823-0.07061 1-0.1875 0.4493 0.4678 1.11936 0.75 1.84375 0.75 1.35565 0 2.4375-1.04176 2.4375-2.3125 0-0.76629-0.38543-1.42558-1-1.84375 0.0685-0.20626 0.09375-0.42887 0.09375-0.65625 0-1.21269-1.05003-2.1875-2.34375-2.1875zm-22.6875 71.46875c-0.96509 0-1.76622 0.53117-2.125 1.3125-1.44691 0.0564-2.625 1.16112-2.625 2.53125 0 1.4062 1.21859 2.5625 2.71875 2.5625 0.35629 0 0.68823-0.07061 1-0.1875 0.4493 0.4678 1.11936 0.78125 1.84375 0.78125 1.35565 0 2.4375-1.04176 2.4375-2.3125 0-0.76629-0.38543-1.42558-1-1.84375 0.0685-0.20626 0.09375-0.42887 0.09375-0.65625 0-1.21269-1.05003-2.1875-2.34375-2.1875zm74.9375 24.625c-0.96509 0-1.79747 0.53117-2.15625 1.3125-1.44691 0.0564-2.625 1.16112-2.625 2.53125 0 1.4062 1.24984 2.5625 2.75 2.5625 0.35629 0 0.68823-0.07061 1-0.1875 0.4493 0.4678 1.08811 0.78125 1.8125 0.78125 1.35565 0 2.4375-1.04176 2.4375-2.3125 0-0.7663-0.38543-1.42558-1-1.84375 0.0685-0.20627 0.125-0.42888 0.125-0.65625 0-1.21269-1.05003-2.1875-2.34375-2.1875zm-80.6875 18.0625c-0.96509 0-1.79747 0.56242-2.15625 1.34375-1.44691 0.0564-2.59375 1.16112-2.59375 2.53125 0 1.4062 1.21859 2.5625 2.71875 2.5625 0.35629 0 0.68823-0.07061 1-0.1875 0.4493 0.4678 1.08811 0.75 1.8125 0.75 1.35565 0 2.46875-1.04176 2.46875-2.3125 0-0.7663-0.41668-1.42558-1.03125-1.84375 0.0685-0.20627 0.125-0.42887 0.125-0.65625 0-1.21269-1.05003-2.1875-2.34375-2.1875zm14.125 31.96875c-0.96509 0-1.76622 0.53117-2.125 1.3125-1.44691 0.0564-2.625 1.16112-2.625 2.53125 0 1.4062 1.21859 2.5625 2.71875 2.5625 0.35629 0 0.68823-0.07061 1-0.1875 0.4493 0.4678 1.11936 0.78125 1.84375 0.78125 1.35565 0 2.4375-1.04175 2.4375-2.3125 0-0.76629-0.38543-1.42558-1-1.84375 0.0685-0.20627 0.09375-0.42888 0.09375-0.65625 0-1.21269-1.05003-2.1875-2.34375-2.1875z" transform="translate(311,212.36218)" fill="#fafafb"/>
   <path style="color:#000000" d="m339.91892 488.36218c-1.80953 0-3.35015 1.08766-4.02287 2.65033-2.71293 0.11283-4.89605 2.34215-4.89605 5.08241 0 2.81239 2.30154 5.11359 5.11435 5.11359 0.66804 0 1.28655-0.14038 1.8711-0.37417 0.84244 0.9356 2.07213 1.52784 3.43035 1.52784 2.54185 0 4.5842-2.07322 4.5842-4.6147 0-1.53259-0.74997-2.87413-1.90229-3.71047 0.12833-0.41253 0.2183-0.85482 0.2183-1.30957 0-2.42537-1.97137-4.36526-4.39709-4.36526z" fill="url(#g)"/>
   <path style="color:#000000" d="m399.36009 555.36218c-4.6228 0-8.36009 3.75312-8.36009 8.39552 0 2.55628 1.11757 4.86378 2.91055 6.40548-0.19813 0.69882-0.30963 1.44506-0.30963 2.20771 0 4.42646 3.58074 7.99129 7.98853 7.99129s7.95757-3.56483 7.95757-7.99129c0-0.13303 0.006-0.2728 0-0.40423 0.0932 0.003 0.18473 0 0.27867 0 4.5153 0 8.17431-3.67452 8.17431-8.20896s-3.65901-8.20895-8.17431-8.20895c-1.919 0-3.68319 0.66074-5.07798 1.77239-1.45611-1.23165-3.33481-1.95896-5.38762-1.95896z" fill="url(#i)"/>
   <path style="color:#000000" d="m340.0455 540.36218c-5.77986 0-10.51835 4.41268-10.99134 10.0354-3.59426 1.90594-6.05416 5.67061-6.05416 10.0021 0 6.25641 5.10935 11.32313 11.40462 11.32313 0.0568 0 0.11102 0.00054 0.16756 0-0.00054 0.041-0.0111 0.0809-0.0111 0.12212 0 3.05028 2.49347 5.51725 5.56268 5.51725 1.86369 0 3.51569-0.90988 4.52388-2.30903 1.9206 1.45058 4.31588 2.30903 6.91427 2.30903 6.31768 0 11.43813-5.08887 11.43813-11.36753 0-3.66468-1.74786-6.91291-4.45684-8.9919 1.01635-1.42194 1.61966-3.15184 1.61966-5.02881 0-4.8092-3.91827-8.71438-8.75733-8.71438-1.14652 0-2.24682 0.22371-3.25049 0.62167-2.01588-2.16983-4.90352-3.51905-8.10948-3.51905z" fill="url(#j)"/>
   <path style="color:#000000" d="m403.36009 616.36218c-4.6228 0-8.36009 3.75312-8.36009 8.39552 0 2.55628 1.11757 4.86378 2.91055 6.40548-0.19813 0.69882-0.30963 1.44506-0.30963 2.20771 0 4.42646 3.58074 7.99129 7.98853 7.99129s7.95757-3.56483 7.95757-7.99129c0-0.13303 0.006-0.2728 0-0.40423 0.0932 0.003 0.18473 0 0.27867 0 4.5153 0 8.17431-3.67452 8.17431-8.20896s-3.65901-8.20895-8.17431-8.20895c-1.919 0-3.68319 0.66074-5.07798 1.77239-1.45611-1.23165-3.33481-1.95896-5.38762-1.95896z" fill="url(#e)"/>
   <path style="color:#000000" d="m335.36009 671.36218c-4.6228 0-8.36009 3.75312-8.36009 8.39552 0 2.55628 1.11757 4.86378 2.91055 6.40548-0.19813 0.69882-0.30963 1.44506-0.30963 2.20771 0 4.42646 3.58074 7.99129 7.98853 7.99129s7.95757-3.56483 7.95757-7.99129c0-0.13303 0.006-0.2728 0-0.40423 0.0932 0.003 0.18473 0 0.27867 0 4.5153 0 8.17431-3.67452 8.17431-8.20896s-3.65901-8.20895-8.17431-8.20895c-1.919 0-3.68319 0.66074-5.07798 1.77239-1.45611-1.23165-3.33481-1.95896-5.38762-1.95896z" fill="url(#d)"/>
   <path style="color:#000000" d="m404.91892 673.36218c-1.80952 0-3.35014 1.08766-4.02287 2.65033-2.71292 0.11283-4.89605 2.34215-4.89605 5.08241 0 2.81239 2.30154 5.11359 5.11435 5.11359 0.66805 0 1.28655-0.14038 1.8711-0.37417 0.84245 0.9356 2.07214 1.52784 3.43035 1.52784 2.54185 0 4.5842-2.07322 4.5842-4.6147 0-1.53259-0.74997-2.87413-1.90229-3.71047 0.12833-0.41253 0.2183-0.85482 0.2183-1.30957 0-2.42537-1.97136-4.36526-4.39709-4.36526z" fill="url(#f)"/>
   <path style="color:#000000" d="m404.91892 753.36218c-1.80953 0-3.35015 1.08766-4.02287 2.65033-2.71293 0.11283-4.89605 2.34215-4.89605 5.08241 0 2.81239 2.30154 5.11359 5.11435 5.11359 0.66804 0 1.28655-0.14038 1.8711-0.37417 0.84244 0.9356 2.07213 1.52784 3.43035 1.52784 2.54185 0 4.5842-2.07322 4.5842-4.6147 0-1.53259-0.74997-2.87413-1.90229-3.71047 0.12833-0.41253 0.2183-0.85482 0.2183-1.30957 0-2.42537-1.97137-4.36526-4.39709-4.36526z" fill="#800080"/>
   <path style="color:#000000" d="m404.91892 753.36218c-1.80953 0-3.35015 1.08766-4.02287 2.65033-2.71293 0.11283-4.89605 2.34215-4.89605 5.08241 0 2.81239 2.30154 5.11359 5.11435 5.11359 0.66804 0 1.28655-0.14038 1.8711-0.37417 0.84244 0.9356 2.07213 1.52784 3.43035 1.52784 2.54185 0 4.5842-2.07322 4.5842-4.6147 0-1.53259-0.74997-2.87413-1.90229-3.71047 0.12833-0.41253 0.2183-0.85482 0.2183-1.30957 0-2.42537-1.97137-4.36526-4.39709-4.36526z" fill="url(#c)"/>
   <path style="color:#000000" d="m341.91892 807.36218c-1.80953 0-3.35015 1.08766-4.02287 2.65033-2.71293 0.11283-4.89605 2.34215-4.89605 5.08241 0 2.81239 2.30154 5.11359 5.11435 5.11359 0.66804 0 1.28655-0.14038 1.8711-0.37417 0.84244 0.9356 2.07213 1.52784 3.43035 1.52784 2.54185 0 4.5842-2.07322 4.5842-4.6147 0-1.53259-0.74997-2.87413-1.90229-3.71047 0.12833-0.41253 0.2183-0.85482 0.2183-1.30957 0-2.42537-1.97137-4.36526-4.39709-4.36526z" fill="url(#b)"/>
   <path style="color:#000000" d="m107.125 546c-1.22661 0-2.24594 0.87721-2.46875 2.03125-0.0502-0.003-0.10534 0-0.15625 0-1.38963 0-2.5 1.11945-2.5 2.5 0 1.38054 1.11037 2.5 2.5 2.5 0.55353 0 1.05328-0.19906 1.46875-0.5 0.43891 0.85684 1.34095 1.46875 2.375 1.46875 1.46713 0 2.65625-1.1987 2.65625-2.65625 0-1.00679-0.57174-1.86752-1.40625-2.3125-0.004-0.002 0.004-0.02905 0-0.03125 0.0335-0.16272 0.0625-0.32743 0.0625-0.5 0-1.38054-1.14163-2.5-2.53125-2.5zm-79 5c-1.22661 0-2.24594 0.87721-2.46875 2.03125-0.0502-0.003-0.10534 0-0.15625 0-1.38963 0-2.5 1.11945-2.5 2.5 0 1.38054 1.11037 2.5 2.5 2.5 0.55353 0 1.05328-0.19906 1.46875-0.5 0.43891 0.85684 1.34095 1.46875 2.375 1.46875 1.46713 0 2.65625-1.1987 2.65625-2.65625 0-1.00679-0.57174-1.86752-1.40625-2.3125-0.004-0.002 0.004-0.02905 0-0.03125 0.0335-0.16272 0.0625-0.32743 0.0625-0.5 0-1.38054-1.14163-2.5-2.53125-2.5zm69 43c-1.22661 0-2.24594 0.87721-2.46875 2.03125-0.0502-0.003-0.10534 0-0.15625 0-1.38963 0-2.5 1.11945-2.5 2.5 0 1.38054 1.11037 2.5 2.5 2.5 0.55353 0 1.05328-0.19906 1.46875-0.5 0.43891 0.85684 1.34095 1.46875 2.375 1.46875 1.46713 0 2.65625-1.1987 2.65625-2.65625 0-1.00679-0.57174-1.86752-1.40625-2.3125-0.004-0.002 0.004-0.02905 0-0.03125 0.0335-0.16272 0.0625-0.32743 0.0625-0.5 0-1.38054-1.14163-2.5-2.53125-2.5zm-58 16c-1.22661 0-2.24594 0.87721-2.46875 2.03125-0.0502-0.003-0.10534 0-0.15625 0-1.38963 0-2.5 1.11945-2.5 2.5 0 1.38054 1.11037 2.5 2.5 2.5 0.55353 0 1.05328-0.19906 1.46875-0.5 0.43891 0.85684 1.34095 1.46875 2.375 1.46875 1.46713 0 2.65625-1.1987 2.65625-2.65625 0-1.00679-0.57174-1.86752-1.40625-2.3125-0.004-0.002 0.004-0.02905 0-0.03125 0.0335-0.16272 0.0625-0.32743 0.0625-0.5 0-1.38054-1.14163-2.5-2.53125-2.5z" transform="translate(311,212.36218)" fill="#fafafb"/>
   <path opacity=".25" style="color:#000000" d="m55.71875 15c-16.51754 0-30.07814 12.5254-31.6875 28.59375-10.12854 5.60057-17.03125 16.35385-17.03125 28.71875 0 17.95639 14.50929 32.47586 32.4375 32.75 0.32267 8.83382 7.57136 15.9375 16.5 15.9375 5.21147 0 9.83501-2.45374 12.875-6.21875 5.41244 3.87196 11.99038 6.21875 19.15625 6.21875 18.22892 0 33.03125-14.77907 33.03125-32.96875 0-10.2898-4.77642-19.39716-12.1875-25.4375 2.65697-4.01363 4.25-8.79583 4.25-13.96875 0-14.05909-11.44175-25.5-25.53125-25.5-3.12403 0-6.10917 0.59938-8.875 1.625-5.80454-6.01296-13.92003-9.75-22.9375-9.75zm0 1c8.97663 0 17.0743 3.80726 22.71875 9.90625 2.81026-1.1186 5.88349-1.75 9.09375-1.75 13.54937 0 24.53125 10.95103 24.53125 24.46875 0 5.27583-1.68546 10.15948-4.53125 14.15625 7.58515 5.84368 12.46875 14.98055 12.46875 25.28125 0 17.64814-14.3418 31.9375-32.03125 31.9375-7.27549 0-13.96607-2.42268-19.34375-6.5-2.82294 3.93277-7.46916 6.5-12.6875 6.5-8.59381 0-15.5625-6.92626-15.5625-15.5 0-0.1158 0.02925-0.22856 0.03125-0.34375-0.15828 0.002-0.30992 0-0.46875 0-17.62672 0-31.9375-14.2582-31.9375-31.84375 0-12.175 6.87356-22.73654 16.9375-28.09375 1.32439-15.80441 14.59762-28.21875 30.78125-28.21875zm38.875 117c-5.57085 0-10.61246 2.26796-14.25 5.9375-1.67796-0.5889-3.46829-0.9375-5.34375-0.9375-8.88919 0-16.09375 7.19999-16.09375 16.0625 0 3.13599 1.00004 6.02279 2.5625 8.5-4.53074 3.78571-7.46875 9.39473-7.46875 15.75 0 11.4051 9.27757 20.6875 20.71875 20.6875 4.38007 0 8.42969-1.37267 11.78125-3.6875 1.94602 2.23697 4.77557 3.6875 7.96875 3.6875 5.58056 0 10.04375-4.3746 10.4375-9.84375 11.11927-0.32071 20.09375-9.33418 20.09375-20.5 0-7.67886-4.27285-14.33314-10.53125-17.875-1.08571-10.00841-9.55793-17.78125-19.875-17.78125zm0 1c9.97025 0 18.15284 7.61796 18.96875 17.34375 6.20011 3.29675 10.4375 9.82019 10.4375 17.3125 0 10.82188-8.8282 19.59375-19.6875 19.59375-0.0979 0-0.18373 0.00093-0.28125 0 0.00094 0.071 0.03125 0.14749 0.03125 0.21875 0 5.27616-4.29936 9.53125-9.59375 9.53125-3.21486 0-6.07338-1.57984-7.8125-4-3.31304 2.50912-7.45529 4-11.9375 4-10.89796 0-19.71875-8.79586-19.71875-19.65625 0-6.3389 3.01452-11.9664 7.6875-15.5625-1.7532-2.45957-2.78125-5.44084-2.78125-8.6875 0-8.31861 6.74639-15.09375 15.09375-15.09375 1.97775 0 3.86243 0.40539 5.59375 1.09375 3.47738-3.75321 8.46975-6.09375 14-6.09375zm-62.0625 5.96875c-2.48538 0-4.70263 1.00126-6.375 2.59375-0.58403-0.11125-1.16687-0.21875-1.78125-0.21875-5.18396 0-9.40625 4.15327-9.40625 9.28125 0 4.78446 3.73305 8.58672 8.4375 9.09375 0.50728 4.65969 4.37611 8.3125 9.21875 8.3125 5.18396 0 9.40625-4.15328 9.40625-9.28125 0-2.11121-0.79322-4.00013-2-5.5625 1.04204-1.47311 1.75-3.22004 1.75-5.15625 0-5.03088-4.17482-9.0625-9.25-9.0625zm0 1.03125c4.52897 0 8.21875 3.60462 8.21875 8.0625 0 1.95032-0.73642 3.76099-1.90625 5.15625 0.005 0.0056-0.005 0.02525 0 0.03125 1.34496 1.46433 2.15625 3.40174 2.15625 5.53125 0 4.55977-3.74251 8.21875-8.375 8.21875-4.58965 0-8.3064-3.59219-8.375-8.09375-4.57334-0.06749-8.25-3.76364-8.25-8.28125 0-4.55978 3.74251-8.21875 8.375-8.21875 0.71695 0 1.39824 0.08342 2.0625 0.25 1.50036-1.62919 3.68381-2.65625 6.09375-2.65625zm-8.40625 50c-10.54957 0-19.125 8.47323-19.125 18.9375 0 7.02505 3.92262 13.07185 9.65625 16.34375-1.04822 2.33952-1.71875 4.88694-1.71875 7.625 0 10.52878 8.63313 19.09375 19.25 19.09375 8.0226 0 14.80063-4.94317 17.6875-11.875 12.27809-0.38771 22.125-10.36005 22.125-22.625 0-12.50981-10.22651-22.65625-22.84375-22.65625-3.63579 0-7.03855 0.93944-10.09375 2.4375-3.50077-4.40167-8.84742-7.28125-14.9375-7.28125zm0 1c6.04391 0 11.36278 2.93418 14.65625 7.4375 3.08401-1.64639 6.62582-2.5625 10.375-2.5625 12.0779 0 21.84375 9.66377 21.84375 21.625 0 11.91973-9.69865 21.6205-21.71875 21.6875-2.57537 6.88447-9.24643 11.8125-17.09375 11.8125-10.07569 0-18.25-8.08415-18.25-18.0625 0-2.8756 0.73062-5.58659 1.9375-8-5.85536-2.97592-9.875-9.00273-9.875-15.96875 0-9.91439 8.11391-17.96875 18.125-17.96875zm71.90625 16c-6.09682 0-11.035 4.54333-11.8125 10.40625-3.68739 2.13721-6.21875 6.07697-6.21875 10.625 0 6.57212 5.20627 11.88897 11.71875 12.25 0.4227 3.20064 3.08298 5.71875 6.40625 5.71875 1.8627 0 3.45609-0.87668 4.65625-2.125 1.96538 1.29342 4.25089 2.125 6.78125 2.125 6.86024 0 12.4375-5.54788 12.4375-12.375 0-3.68708-1.67463-6.95322-4.25-9.21875 0.83514-1.42787 1.40625-3.04009 1.40625-4.8125 0-5.35616-4.36754-9.71875-9.75-9.71875-1.0693 0-2.06968 0.2461-3.03125 0.5625-2.17555-2.097-5.09168-3.4375-8.34375-3.4375zm0 1c3.20595 0 6.10912 1.36142 8.125 3.53125 1.00366-0.39797 2.10348-0.625 3.25-0.625 4.83906 0 8.75 3.90956 8.75 8.71875 0 1.87698-0.60864 3.57806-1.625 5 2.70898 2.079 4.46875 5.33532 4.46875 9 0 6.27866-5.11983 11.375-11.4375 11.375-2.59838 0-4.98564-0.86191-6.90625-2.3125-1.00818 1.39916-2.66757 2.3125-4.53125 2.3125-3.06922 0-5.5625-2.48097-5.5625-5.53125 0-0.04122-0.00056-0.05265 0-0.09375-0.05653 0.00054-0.09955 0-0.15625 0-6.29525 0-11.40625-5.08735-11.40625-11.34375 0-4.3315 2.46822-8.09407 6.0625-10 0.47299-5.62272 5.18889-10.03125 10.96875-10.03125zm-2 63.96875c-6.11167 0-11.06664 4.55918-11.84375 10.4375-3.69411 2.14212-6.21875 6.06806-6.21875 10.625 0 6.5862 5.22381 11.91943 11.75 12.28125 0.43558 3.20155 3.07841 5.71875 6.40625 5.71875 1.85906 0 3.45244-0.88462 4.65625-2.125 1.96397 1.28501 4.25751 2.125 6.78125 2.125 6.87463 0 12.46875-5.56458 12.46875-12.40625 0-3.68451-1.68176-6.94886-4.25-9.21875 0.83741-1.43177 1.40625-3.0352 1.40625-4.8125 0-5.37068-4.38438-9.75-9.78125-9.75-1.07225 0-2.06709 0.24526-3.03125 0.5625-2.18012-2.0993-5.08687-3.4375-8.34375-3.4375zm-23.28125 1.03125c-1.09128 0-1.98457 0.59674-2.59375 1.40625-1.73137 0.27339-3.15625 1.64814-3.15625 3.4375 0 1.98409 1.70458 3.5625 3.71875 3.5625 0.28469 0 0.5219-0.09808 0.78125-0.15625 0.58647 0.43044 1.27094 0.75 2.0625 0.75 1.86811 0 3.4375-1.47402 3.4375-3.3125 0-0.8613-0.40014-1.59364-0.96875-2.1875 0.01026-0.11363 0.0625-0.23644 0.0625-0.34375 0-1.79011-1.56366-3.15625-3.34375-3.15625zm23.28125 0c3.20596 0 6.10912 1.36142 8.125 3.53125 1.00367-0.39796 2.10348-0.625 3.25-0.625 4.83906 0 8.75 3.90955 8.75 8.71875 0 1.87697-0.60865 3.57806-1.625 5 2.70899 2.07899 4.46875 5.33532 4.46875 9 0 6.27866-5.11983 11.375-11.4375 11.375-2.5984 0-4.98566-0.86192-6.90625-2.3125-1.00819 1.39915-2.66755 2.3125-4.53125 2.3125-3.0692 0-5.5625-2.48097-5.5625-5.53125 0-0.04122-0.00055-0.05275 0-0.09375-0.05655 0.00054-0.09945 0-0.15625 0-6.29527 0-11.40625-5.08734-11.40625-11.34375 0-4.33149 2.46823-8.09406 6.0625-10 0.47298-5.62272 5.1889-10.03125 10.96875-10.03125zm-65.125 1c-1.98261 0-3.60088 1.14199-4.53125 2.75-3.0016 0.38461-5.375 2.86592-5.375 5.96875 0 3.36777 2.75679 6.125 6.125 6.125 0.58537 0 1.1031-0.15916 1.625-0.3125 0.98584 0.87837 2.22837 1.46875 3.65625 1.46875 3.09557 0 5.59375-2.53812 5.59375-5.625 0-1.60779-0.75644-2.97801-1.84375-4 0.072-0.33267 0.15625-0.65755 0.15625-1.03125 0-2.977-2.44629-5.34375-5.40625-5.34375zm41.84375 0c1.29372 0 2.34375 0.97481 2.34375 2.1875 0 0.22738-0.02525 0.44999-0.09375 0.65625 0.61457 0.41817 1 1.07746 1 1.84375 0 1.27074-1.08185 2.3125-2.4375 2.3125-0.72439 0-1.39445-0.2822-1.84375-0.75-0.31177 0.11689-0.64371 0.1875-1 0.1875-1.50016 0-2.71875-1.1563-2.71875-2.5625 0-1.37013 1.17809-2.5061 2.625-2.5625 0.35878-0.78133 1.15991-1.3125 2.125-1.3125zm-41.84375 1c2.42572 0 4.40625 1.94963 4.40625 4.375 0 0.45475-0.09042 0.89997-0.21875 1.3125 1.15232 0.83634 1.90625 2.15491 1.90625 3.6875 0 2.54148-2.0519 4.625-4.59375 4.625-1.35822 0-2.56381-0.59565-3.40625-1.53125-0.58455 0.23379-1.20696 0.375-1.875 0.375-2.81281 0-5.125-2.31261-5.125-5.125 0-2.74026 2.19332-4.94967 4.90625-5.0625 0.67272-1.56267 2.19047-2.65625 4-2.65625zm0.84375 33c-1.09128 0-1.98457 0.59674-2.59375 1.40625-1.73137 0.27339-3.15625 1.64814-3.15625 3.4375 0 1.98409 1.70458 3.5625 3.71875 3.5625 0.28469 0 0.5219-0.0981 0.78125-0.15625 0.58647 0.43044 1.27094 0.75 2.0625 0.75 1.86811 0 3.4375-1.47402 3.4375-3.3125 0-0.8613-0.40014-1.59364-0.96875-2.1875 0.0103-0.11363 0.0625-0.23644 0.0625-0.34375 0-1.79011-1.56366-3.15625-3.34375-3.15625zm0 1c1.29372 0 2.34375 0.97481 2.34375 2.1875 0 0.22738-0.02535 0.44999-0.09375 0.65625 0.61457 0.41817 1 1.07746 1 1.84375 0 1.27074-1.08185 2.3125-2.4375 2.3125-0.72439 0-1.39445-0.2822-1.84375-0.75-0.31177 0.11689-0.64371 0.1875-1 0.1875-1.50016 0-2.71875-1.1563-2.71875-2.5625 0-1.37013 1.17809-2.5061 2.625-2.5625 0.35878-0.78133 1.15991-1.3125 2.125-1.3125zm68 13c-1.09128 0-1.98457 0.59674-2.59375 1.40625-1.73137 0.27339-3.15625 1.64814-3.15625 3.4375 0 1.98409 1.70458 3.5625 3.71875 3.5625 0.28469 0 0.5219-0.0981 0.78125-0.15625 0.58647 0.43044 1.27094 0.75 2.0625 0.75 1.86811 0 3.4375-1.47402 3.4375-3.3125 0-0.8613-0.40014-1.59364-0.96875-2.1875 0.0103-0.11363 0.0625-0.23644 0.0625-0.34375 0-1.79011-1.56366-3.15625-3.34375-3.15625zm0 1c1.29372 0 2.34375 0.97481 2.34375 2.1875 0 0.22738-0.02535 0.44999-0.09375 0.65625 0.61457 0.41817 1 1.07746 1 1.84375 0 1.27074-1.08185 2.3125-2.4375 2.3125-0.72439 0-1.39445-0.2822-1.84375-0.75-0.31177 0.11689-0.64371 0.1875-1 0.1875-1.50016 0-2.71875-1.1563-2.71875-2.5625 0-1.37013 1.17809-2.5061 2.625-2.5625 0.35878-0.78133 1.15991-1.3125 2.125-1.3125zm-68.71875 2.96875c-6.11167 0-11.06664 4.55918-11.84375 10.4375-3.69411 2.14212-6.21875 6.06806-6.21875 10.625 0 6.5862 5.22381 11.91943 11.75 12.28125 0.43558 3.20155 3.07842 5.71875 6.40625 5.71875 1.85906 0 3.45245-0.88462 4.65625-2.125 1.96397 1.28501 4.25752 2.125 6.78125 2.125 6.87464 0 12.46875-5.56458 12.46875-12.40625 0-3.68451-1.68176-6.94886-4.25-9.21875 0.83741-1.43177 1.40625-3.0352 1.40625-4.8125 0-5.37068-4.38438-9.75-9.78125-9.75-1.07225 0-2.06709 0.24526-3.03125 0.5625-2.18012-2.0993-5.08686-3.4375-8.34375-3.4375zm0 1.03125c3.20596 0 6.10912 1.36142 8.125 3.53125 1.00367-0.39796 2.10348-0.625 3.25-0.625 4.83906 0 8.75 3.90955 8.75 8.71875 0 1.87697-0.60865 3.57806-1.625 5 2.70899 2.07899 4.46875 5.33532 4.46875 9 0 6.27866-5.11982 11.375-11.4375 11.375-2.5984 0-4.98566-0.86192-6.90625-2.3125-1.00819 1.39915-2.66755 2.3125-4.53125 2.3125-3.0692 0-5.5625-2.48097-5.5625-5.53125 0-0.0412-0.00054-0.05285 0-0.09375-0.0566 0.00054-0.0994 0-0.15625 0-6.29527-0.00005-11.40625-5.08734-11.40625-11.34375 0-4.33149 2.46823-8.09406 6.0625-10 0.47298-5.62272 5.1889-10.03125 10.96875-10.03125zm29.71875 3c-1.09128 0-1.98457 0.59674-2.59375 1.40625-1.73137 0.27339-3.15625 1.64814-3.15625 3.4375 0 1.98409 1.70458 3.5625 3.71875 3.5625 0.28469 0 0.5219-0.0981 0.78125-0.15625 0.58647 0.43044 1.27094 0.75 2.0625 0.75 1.86811 0 3.4375-1.47402 3.4375-3.3125 0-0.8613-0.40014-1.59364-0.96875-2.1875 0.0103-0.11363 0.0625-0.23644 0.0625-0.34375 0-1.79011-1.56366-3.15625-3.34375-3.15625zm0 1c1.29372 0 2.34375 0.97481 2.34375 2.1875 0 0.22738-0.02535 0.44999-0.09375 0.65625 0.61457 0.41817 1 1.07746 1 1.84375 0 1.27074-1.08185 2.3125-2.4375 2.3125-0.72439 0-1.39445-0.2822-1.84375-0.75-0.31177 0.11689-0.64371 0.1875-1 0.1875-1.50016 0-2.71875-1.1563-2.71875-2.5625 0-1.37013 1.17809-2.5061 2.625-2.5625 0.35878-0.78133 1.15991-1.3125 2.125-1.3125zm29.625 9.96875c-5.17614 0-9.40625 4.20995-9.40625 9.40625 0 2.60681 1.15792 4.90811 2.875 6.625-0.14718 0.6475-0.28125 1.30737-0.28125 2 0 4.98261 4.06786 9.03125 9.03125 9.03125 4.78675 0 8.63318-3.79812 8.90625-8.53125 4.74097-0.3704 8.53125-4.27812 8.53125-9.125 0-5.08944-4.14901-9.21875-9.21875-9.21875-1.88368 0-3.59773 0.64256-5.0625 1.625-1.54091-1.09858-3.35502-1.8125-5.375-1.8125zm0 1.03125c2.05281 0 3.91889 0.7371 5.375 1.96875 1.39479-1.11165 3.1435-1.78125 5.0625-1.78125 4.5153 0 8.1875 3.68431 8.1875 8.21875s-3.6722 8.1875-8.1875 8.1875c-0.09394 0-0.1568 0.003-0.25 0 0.006 0.13143 0 0.27322 0 0.40625 0 4.42646-3.56096 8-7.96875 8s-8-3.57354-8-8c0-0.76265 0.11437-1.48868 0.3125-2.1875-1.79298-1.5417-2.90625-3.84997-2.90625-6.40625 0-4.6424 3.7522-8.40625 8.375-8.40625zm-52.3125 59.46875c-1.09128 0-1.98457 0.59674-2.59375 1.40625-1.73137 0.27339-3.15625 1.64814-3.15625 3.4375 0 1.98409 1.70458 3.5625 3.71875 3.5625 0.28469 0 0.5219-0.0981 0.78125-0.15625 0.58647 0.43044 1.27094 0.75 2.0625 0.75 1.86811 0 3.4375-1.47402 3.4375-3.3125 0-0.8613-0.40014-1.59364-0.96875-2.1875 0.0103-0.11363 0.0625-0.23644 0.0625-0.34375 0-1.79011-1.56366-3.15625-3.34375-3.15625zm56.3125 0.5c-5.17614 0-9.40625 4.20995-9.40625 9.40625 0 2.60681 1.15792 4.90811 2.875 6.625-0.14718 0.6475-0.28125 1.30737-0.28125 2 0 4.98261 4.06786 9.03125 9.03125 9.03125 4.78675 0 8.63318-3.79812 8.90625-8.53125 4.74097-0.3704 8.53125-4.27812 8.53125-9.125 0-5.08944-4.14901-9.21875-9.21875-9.21875-1.88368 0-3.59773 0.64256-5.0625 1.625-1.54091-1.09858-3.35502-1.8125-5.375-1.8125zm-56.3125 0.5c1.29372 0 2.34375 0.97481 2.34375 2.1875 0 0.22738-0.02535 0.44999-0.09375 0.65625 0.61457 0.41817 1 1.07746 1 1.84375 0 1.27074-1.08185 2.3125-2.4375 2.3125-0.72439 0-1.39445-0.2822-1.84375-0.75-0.31177 0.11689-0.64371 0.1875-1 0.1875-1.50016 0-2.71875-1.1563-2.71875-2.5625 0-1.37013 1.17809-2.5061 2.625-2.5625 0.35878-0.78133 1.15991-1.3125 2.125-1.3125zm56.3125 0.53125c2.05281 0 3.91889 0.7371 5.375 1.96875 1.39479-1.11165 3.1435-1.78125 5.0625-1.78125 4.5153 0 8.1875 3.68431 8.1875 8.21875s-3.6722 8.1875-8.1875 8.1875c-0.0939 0-0.1568 0.003-0.25 0 0.006 0.13143 0 0.27322 0 0.40625 0 4.42646-3.56096 8-7.96875 8s-8-3.57354-8-8c0-0.76265 0.11437-1.48868 0.3125-2.1875-1.79298-1.5417-2.90625-3.84997-2.90625-6.40625 0-4.6424 3.7522-8.40625 8.375-8.40625zm18.59375 23.09375c-1.09128 0-1.98457 0.59674-2.59375 1.40625-1.73137 0.27339-3.15625 1.64814-3.15625 3.4375 0 1.98409 1.70458 3.5625 3.71875 3.5625 0.28469 0 0.5219-0.0981 0.78125-0.15625 0.58647 0.43044 1.27094 0.75 2.0625 0.75 1.86811 0 3.4375-1.47402 3.4375-3.3125 0-0.8613-0.40014-1.59364-0.96875-2.1875 0.0103-0.11363 0.0625-0.23644 0.0625-0.34375 0-1.79011-1.56366-3.15625-3.34375-3.15625zm0 1c1.29372 0 2.34375 0.97481 2.34375 2.1875 0 0.22738-0.02535 0.44999-0.09375 0.65625 0.61457 0.41817 1 1.07746 1 1.84375 0 1.27074-1.08185 2.3125-2.4375 2.3125-0.72439 0-1.39445-0.2822-1.84375-0.75-0.31177 0.11689-0.64371 0.1875-1 0.1875-1.50016 0-2.71875-1.1563-2.71875-2.5625 0-1.37013 1.17809-2.5061 2.625-2.5625 0.35878-0.78133 1.15991-1.3125 2.125-1.3125zm-80.65625 17.0625c-1.09128 0-1.98457 0.59674-2.59375 1.40625-1.73137 0.27339-3.15625 1.64814-3.15625 3.4375 0 1.98409 1.70458 3.5625 3.71875 3.5625 0.28469 0 0.5219-0.0981 0.78125-0.15625 0.58647 0.43044 1.27094 0.75 2.0625 0.75 1.86811 0 3.4375-1.47402 3.4375-3.3125 0-0.8613-0.40014-1.59364-0.96875-2.1875 0.0103-0.11363 0.0625-0.23644 0.0625-0.34375 0-1.79011-1.56366-3.15625-3.34375-3.15625zm0 1c1.29372 0 2.34375 0.97481 2.34375 2.1875 0 0.22738-0.02535 0.44999-0.09375 0.65625 0.61457 0.41817 1 1.07746 1 1.84375 0 1.27074-1.08185 2.3125-2.4375 2.3125-0.72439 0-1.39445-0.2822-1.84375-0.75-0.31177 0.11689-0.64371 0.1875-1 0.1875-1.50016 0-2.71875-1.1563-2.71875-2.5625 0-1.37013 1.17809-2.5061 2.625-2.5625 0.35878-0.78133 1.15991-1.3125 2.125-1.3125zm-5.9375 11.8125c-5.17614 0-9.40625 4.20995-9.40625 9.40625 0 2.60681 1.15792 4.90811 2.875 6.625-0.14718 0.6475-0.28125 1.30737-0.28125 2 0 4.98261 4.06786 9.03125 9.03125 9.03125 4.78675 0 8.63318-3.79812 8.90625-8.53125 4.74097-0.3704 8.53125-4.27812 8.53125-9.125 0-5.08944-4.14901-9.21875-9.21875-9.21875-1.88368 0-3.59773 0.64256-5.0625 1.625-1.54091-1.09858-3.35502-1.8125-5.375-1.8125zm0 1.03125c2.05281 0 3.91889 0.7371 5.375 1.96875 1.39479-1.11165 3.1435-1.78125 5.0625-1.78125 4.5153 0 8.1875 3.68431 8.1875 8.21875s-3.6722 8.1875-8.1875 8.1875c-0.0939 0-0.1568 0.003-0.25 0 0.006 0.13143 0 0.27322 0 0.40625 0 4.42646-3.56096 8-7.96875 8s-8-3.57354-8-8c0-0.76265 0.11437-1.48868 0.3125-2.1875-1.79298-1.5417-2.90625-3.84997-2.90625-6.40625 0-4.6424 3.7522-8.40625 8.375-8.40625zm69.53125 1c-1.98261 0-3.60088 1.14199-4.53125 2.75-3.0016 0.38461-5.375 2.86592-5.375 5.96875 0 3.36777 2.7568 6.125 6.125 6.125 0.58537 0 1.1031-0.15916 1.625-0.3125 0.98584 0.87837 2.22837 1.46875 3.65625 1.46875 3.09557 0 5.59375-2.53812 5.59375-5.625 0-1.60779-0.75644-2.97801-1.84375-4 0.072-0.33267 0.15625-0.65755 0.15625-1.03125 0-2.977-2.44628-5.34375-5.40625-5.34375zm0 1c2.42572 0 4.40625 1.94963 4.40625 4.375 0 0.45475-0.0904 0.89997-0.21875 1.3125 1.15232 0.83634 1.90625 2.15491 1.90625 3.6875 0 2.54148-2.0519 4.625-4.59375 4.625-1.35822 0-2.56381-0.59565-3.40625-1.53125-0.58454 0.23379-1.20695 0.375-1.875 0.375-2.81281 0-5.125-2.31261-5.125-5.125 0-2.74026 2.19332-4.94967 4.90625-5.0625 0.67273-1.56267 2.19047-2.65625 4-2.65625zm-49.46875 16.125c-1.09128 0-1.98457 0.59673-2.59375 1.40625-1.73137 0.27338-3.15625 1.64814-3.15625 3.4375 0 1.98409 1.70458 3.5625 3.71875 3.5625 0.28469 0 0.5219-0.0981 0.78125-0.15625 0.58647 0.43044 1.27094 0.75 2.0625 0.75 1.86811 0 3.4375-1.47402 3.4375-3.3125 0-0.8613-0.40014-1.59365-0.96875-2.1875 0.0103-0.11363 0.0625-0.23644 0.0625-0.34375 0-1.79011-1.56366-3.15625-3.34375-3.15625zm0 1c1.29372 0 2.34375 0.97481 2.34375 2.1875 0 0.22738-0.02535 0.44998-0.09375 0.65625 0.61457 0.41817 1 1.07746 1 1.84375 0 1.27074-1.08185 2.3125-2.4375 2.3125-0.72439 0-1.39445-0.2822-1.84375-0.75-0.31177 0.11689-0.64371 0.1875-1 0.1875-1.50016 0-2.71875-1.1563-2.71875-2.5625 0-1.37013 1.17809-2.5061 2.625-2.5625 0.35878-0.78133 1.15991-1.3125 2.125-1.3125zm49.46875 61.875c-1.98261 0-3.60088 1.14199-4.53125 2.75-3.0016 0.38461-5.375 2.86592-5.375 5.96875 0 3.36777 2.75679 6.125 6.125 6.125 0.58537 0 1.1031-0.15916 1.625-0.3125 0.98584 0.87837 2.22837 1.46875 3.65625 1.46875 2.98782 0 5.39686-2.37227 5.5625-5.3125 0.08245 1.86309 1.63991 3.375 3.53125 3.375 0.44778 0 0.77465-0.22393 1.15625-0.375 0.67587 0.77145 1.57865 1.34375 2.6875 1.34375 2.02914 0 3.6875-1.66877 3.6875-3.6875 0-1.11638-0.5828-2.01857-1.375-2.6875 0.00386-0.05829 0.03125-0.09305 0.03125-0.15625 0-1.94936-1.61875-3.53125-3.5625-3.53125-1.40505 0-2.45903 0.93132-3.03125 2.125-1.65068 0.20179-2.95631 1.5006-3.09375 3.15625-0.03838-1.55338-0.78497-2.87983-1.84375-3.875 0.072-0.33267 0.15625-0.65755 0.15625-1.03125 0-2.977-2.44629-5.34375-5.40625-5.34375zm0 1c2.42572 0 4.40625 1.94963 4.40625 4.375 0 0.45475-0.0904 0.89997-0.21875 1.3125 1.15232 0.83634 1.90625 2.15491 1.90625 3.6875 0 2.54148-2.0519 4.625-4.59375 4.625-1.35822 0-2.56381-0.59565-3.40625-1.53125-0.58455 0.23379-1.20696 0.375-1.875 0.375-2.81281 0-5.125-2.31261-5.125-5.125 0-2.74026 2.19332-4.94967 4.90625-5.0625 0.67272-1.56267 2.19047-2.65625 4-2.65625zm13.21875 5c1.38962 0 2.53125 1.11946 2.53125 2.5 0 0.17257-0.029 0.33728-0.0625 0.5 0.004 0.0022-0.004 0.02925 0 0.03125 0.83451 0.44498 1.40625 1.30571 1.40625 2.3125 0 1.45755-1.18912 2.65625-2.65625 2.65625-1.03405 0-1.93609-0.61191-2.375-1.46875-0.41547 0.30094-0.91522 0.5-1.46875 0.5-1.38963 0-2.5-1.11946-2.5-2.5 0-1.38055 1.11037-2.5 2.5-2.5 0.05091 0 0.10605-0.003 0.15625 0 0.22281-1.15404 1.24214-2.03125 2.46875-2.03125zm-79 3.96875c-1.40505 0-2.45903 0.93132-3.03125 2.125-1.74426 0.21323-3.125 1.64728-3.125 3.4375 0 1.93379 1.58749 3.53125 3.53125 3.53125 0.44778 0 0.77465-0.22393 1.15625-0.375 0.67587 0.77145 1.57865 1.34375 2.6875 1.34375 2.02914 0 3.6875-1.66877 3.6875-3.6875 0-1.11638-0.5828-2.01857-1.375-2.6875 0.00386-0.05829 0.03125-0.09305 0.03125-0.15625 0-1.94936-1.61875-3.53125-3.5625-3.53125zm0 1.03125c1.38962 0 2.53125 1.11946 2.53125 2.5 0 0.17257-0.029 0.33728-0.0625 0.5 0.004 0.0022-0.004 0.02925 0 0.03125 0.83451 0.44498 1.40625 1.30571 1.40625 2.3125 0 1.45755-1.18912 2.65625-2.65625 2.65625-1.03405 0-1.93609-0.61191-2.375-1.46875-0.41547 0.30094-0.91522 0.5-1.46875 0.5-1.38963 0-2.5-1.11946-2.5-2.5 0-1.38055 1.11037-2.5 2.5-2.5 0.05091 0 0.10605-0.003 0.15625 0 0.22281-1.15404 1.24214-2.03125 2.46875-2.03125zm69 41.96875c-1.40505 0-2.45903 0.93132-3.03125 2.125-1.74426 0.21323-3.125 1.64728-3.125 3.4375 0 1.93379 1.58749 3.53125 3.53125 3.53125 0.44778 0 0.77465-0.22393 1.15625-0.375 0.67587 0.77145 1.57865 1.34375 2.6875 1.34375 2.02914 0 3.6875-1.66877 3.6875-3.6875 0-1.11638-0.5828-2.01857-1.375-2.6875 0.00386-0.05829 0.03125-0.09305 0.03125-0.15625 0-1.94936-1.61875-3.53125-3.5625-3.53125zm-66.21875 1.03125c-1.98261 0-3.60088 1.14199-4.53125 2.75-3.0016 0.38461-5.375 2.86592-5.375 5.96875 0 3.36777 2.75679 6.125 6.125 6.125 0.58537 0 1.1031-0.15916 1.625-0.3125 0.98584 0.87837 2.22837 1.46875 3.65625 1.46875 3.09557 0 5.59375-2.53812 5.59375-5.625 0-1.60779-0.75644-2.97801-1.84375-4 0.072-0.33267 0.15625-0.65755 0.15625-1.03125 0-2.977-2.44629-5.34375-5.40625-5.34375zm66.21875 0c1.38962 0 2.53125 1.11946 2.53125 2.5 0 0.17257-0.029 0.33728-0.0625 0.5 0.004 0.0022-0.004 0.02925 0 0.03125 0.83451 0.44498 1.40625 1.30571 1.40625 2.3125 0 1.45755-1.18912 2.65625-2.65625 2.65625-1.03405 0-1.93609-0.61191-2.375-1.46875-0.41547 0.30094-0.91522 0.5-1.46875 0.5-1.38963 0-2.5-1.11946-2.5-2.5 0-1.38055 1.11037-2.5 2.5-2.5 0.05091 0 0.10605-0.003 0.15625 0 0.22281-1.15404 1.24214-2.03125 2.46875-2.03125zm-66.21875 1c2.42572 0 4.40625 1.94963 4.40625 4.375 0 0.45475-0.0904 0.89997-0.21875 1.3125 1.15232 0.83634 1.90625 2.15491 1.90625 3.6875 0 2.54148-2.0519 4.625-4.59375 4.625-1.35822 0-2.56381-0.59565-3.40625-1.53125-0.58455 0.23379-1.20696 0.375-1.875 0.375-2.81281 0-5.125-2.31261-5.125-5.125 0-2.74026 2.19332-4.94967 4.90625-5.0625 0.67272-1.56267 2.19047-2.65625 4-2.65625zm8.21875 13.96875c-1.40505 0-2.45903 0.93132-3.03125 2.125-1.74426 0.21323-3.125 1.64728-3.125 3.4375 0 1.93379 1.58749 3.53125 3.53125 3.53125 0.44778 0 0.77465-0.22393 1.15625-0.375 0.67587 0.77145 1.57865 1.34375 2.6875 1.34375 2.02914 0 3.6875-1.66877 3.6875-3.6875 0-1.11638-0.5828-2.01857-1.375-2.6875 0.00386-0.05829 0.03125-0.09305 0.03125-0.15625 0-1.94936-1.61875-3.53125-3.5625-3.53125zm0 1.03125c1.38962 0 2.53125 1.11946 2.53125 2.5 0 0.17257-0.029 0.33728-0.0625 0.5 0.004 0.0022-0.004 0.02925 0 0.03125 0.83451 0.44498 1.40625 1.30571 1.40625 2.3125 0 1.45755-1.18912 2.65625-2.65625 2.65625-1.03405 0-1.93609-0.61191-2.375-1.46875-0.41547 0.30094-0.91522 0.5-1.46875 0.5-1.38963 0-2.5-1.11946-2.5-2.5 0-1.38055 1.11037-2.5 2.5-2.5 0.05091 0 0.10605-0.003 0.15625 0 0.22281-1.15404 1.24214-2.03125 2.46875-2.03125z" transform="translate(311,212.36218)"/>
   <path opacity=".05" style="color:#000000" d="m112.03125 47.375c-0.15203 4.986208-1.78969 9.599749-4.5 13.40625 0.29043 0.223749 0.56134 0.454234 0.84375 0.6875 2.31653-3.730891 3.6875-8.130547 3.6875-12.84375 0-0.422429-0.01008-0.832792-0.03125-1.25zm-104 24.3125c-0.0041355 0.210465-0.03125 0.413555-0.03125 0.625 0 17.58555 14.31078 31.84375 31.9375 31.84375 0.15883 0 0.31047 0.002 0.46875 0-0.002 0.11519-0.03125 0.22795-0.03125 0.34375 0 8.57374 6.96869 15.5 15.5625 15.5 5.21834 0 9.86456-2.56723 12.6875-6.5 5.37768 4.07732 12.06826 6.5 19.34375 6.5 17.68945 0 32.03125-14.28936 32.03125-31.9375 0-0.249286-0.02555-0.502115-0.03125-0.75-0.6666 17.06074-14.73582 30.6875-32 30.6875-7.27549 0-13.96607-2.42268-19.34375-6.5-2.82294 3.93277-7.46916 6.5-12.6875 6.5-8.59381 0-15.5625-6.92626-15.5625-15.5 0-0.1158 0.02925-0.22856 0.03125-0.34375-0.15828 0.002-0.30992 0-0.46875 0-17.16939 0-31.1903546-13.515624-31.90625-30.46875zm32.65625 76.34375c-0.199156 1.57616-0.870975 3.02727-1.84375 4.1875 0.005 0.0056-0.005 0.02525 0 0.03125 0.267412 0.29115 0.495713 0.61116 0.71875 0.9375 0.734998-1.21031 1.1875-2.62316 1.1875-4.125 0-0.35351-0.017516-0.68985-0.0625-1.03125zm-24.625 2.59375c-0.040474 0.329-0.0625 0.65983-0.0625 1 0 4.51761 3.67666 8.21376 8.25 8.28125 0.0686 4.50156 3.78535 8.09375 8.375 8.09375 4.63249 0 8.375-3.65898 8.375-8.21875 0-0.33014-0.024536-0.64889-0.0625-0.96875-0.516065 4.06585-4.036484 7.1875-8.3125 7.1875-4.58965 0-8.3064-3.59219-8.375-8.09375-4.232157-0.06246-7.694166-3.22855-8.1875-7.28125zm43.875 2.34375c-0.027922 0.37477-0.03125 0.74323-0.03125 1.125 0 2.68729 0.700629 5.1967 1.9375 7.375 0.278773-0.2403 0.551689-0.46274 0.84375-0.6875-1.595987-2.23902-2.584376-4.90218-2.75-7.8125zm64.03125 14.8125c-0.59056 10.29456-9.17856 18.46875-19.65625 18.46875-0.0979 0-0.18373 0.00093-0.28125 0 0.00094 0.071 0.03125 0.14749 0.03125 0.21875 0 5.27616-4.29936 9.53125-9.59375 9.53125-3.21486 0-6.07338-1.57984-7.8125-4-3.31304 2.50912-7.45529 4-11.9375 4-10.557399 0-19.159808-8.26662-19.6875-18.65625-0.016507 0.32953-0.03125 0.66633-0.03125 1 0 10.86039 8.82079 19.65625 19.71875 19.65625 4.48221 0 8.62446-1.49088 11.9375-4 1.73912 2.42016 4.59764 4 7.8125 4 5.29439 0 9.59375-4.25509 9.59375-9.53125 0-0.07126-0.03031-0.14775-0.03125-0.21875 0.09752 0.00093 0.18335 0 0.28125 0 10.8593 0 19.6875-8.77187 19.6875-19.59375 0-0.29125-0.01858-0.58681-0.03125-0.875zm-117.9375 41.5c-0.0087303 0.22889-0.03125 0.45651-0.03125 0.6875 0 6.6707 3.7019343 12.46866 9.15625 15.5625 0.212438-0.54339 0.460035-1.0764 0.71875-1.59375-5.480605-2.78546-9.3705239-8.25669-9.84375-14.65625zm64.9375 8.34375c-0.580244 11.40587-10.043028 20.49759-21.6875 20.5625-2.57537 6.88447-9.24643 11.8125-17.09375 11.8125-9.755772 0-17.722263-7.58599-18.21875-17.125-0.022335 0.35405-0.03125 0.70305-0.03125 1.0625 0 9.97835 8.17431 18.0625 18.25 18.0625 7.84732 0 14.51838-4.92803 17.09375-11.8125 12.0201-0.067 21.71875-9.76777 21.71875-21.6875 0-0.29079-0.019813-0.58703-0.03125-0.875zm45.125 1.9375c-0.16723 1.50496-0.71931 2.88284-1.5625 4.0625 0.2743 0.21051 0.52725 0.45364 0.78125 0.6875 0.5419-1.11851 0.84375-2.35461 0.84375-3.6875 0-0.36485-0.01878-0.70932-0.0625-1.0625zm-37.03125 8.46875c-0.029086 0.3286-0.0625 0.66395-0.0625 1 0 6.2564 5.111 11.34375 11.40625 11.34375 0.0567 0 0.09972 0.00054 0.15625 0-0.00056 0.0411 0 0.05253 0 0.09375 0 3.05028 2.49328 5.53125 5.5625 5.53125 1.86368 0 3.52307-0.91334 4.53125-2.3125 1.92061 1.45059 4.30787 2.3125 6.90625 2.3125 6.31767 0 11.4375-5.09634 11.4375-11.375 0-0.28772-0.0412-0.56144-0.0625-0.84375-0.58562 5.73336-5.45218 10.21875-11.375 10.21875-2.59838 0-4.98564-0.86191-6.90625-2.3125-1.00818 1.39916-2.66757 2.3125-4.53125 2.3125-3.06922 0-5.5625-2.48097-5.5625-5.53125 0-0.04122-0.00056-0.05265 0-0.09375-0.05653 0.00054-0.09955 0-0.15625 0-5.954811 0-10.831715-4.55613-11.34375-10.34375zm-12.84375 49.875c-0.133054 0.30005-0.21875 0.62622-0.21875 0.96875 0 1.4062 1.21859 2.5625 2.71875 2.5625 0.35629 0 0.68823-0.07061 1-0.1875 0.4493 0.4678 1.11936 0.75 1.84375 0.75 1.35565 0 2.4375-1.04176 2.4375-2.3125 0-0.35865-0.097163-0.70198-0.25-1-0.39222 0.77259-1.214663 1.3125-2.1875 1.3125-0.72439 0-1.39445-0.2822-1.84375-0.75-0.31177 0.1169-0.64371 0.1875-1 0.1875-1.115023 0-2.080841-0.62584-2.5-1.53125zm-33.03125 1.4375c-0.028574 0.11856-0.058271 0.2297-0.09375 0.34375 0.054139 0.03929 0.103906 0.08361 0.15625 0.125-0.020717-0.15709-0.025501-0.31747-0.0625-0.46875zm-13.09375 3.40625c-0.061412 0.31362-0.09375 0.63676-0.09375 0.96875 0 2.81239 2.31219 5.125 5.125 5.125 0.66804 0 1.29045-0.14121 1.875-0.375 0.84244 0.9356 2.04803 1.53125 3.40625 1.53125 2.54185 0 4.59375-2.08352 4.59375-4.625 0-0.35036-0.050445-0.67521-0.125-1-0.453859 2.06679-2.269344 3.625-4.46875 3.625-1.35822 0-2.56381-0.59565-3.40625-1.53125-0.58455 0.23379-1.20696 0.375-1.875 0.375-2.461209 0-4.550226-1.76702-5.03125-4.09375zm94 1.8125c-0.16723 1.50495-0.71932 2.88284-1.5625 4.0625 0.27431 0.21051 0.52725 0.45364 0.78125 0.6875 0.5419-1.11852 0.84375-2.35462 0.84375-3.6875 0-0.36485-0.01878-0.70932-0.0625-1.0625zm-37.03125 8.46875c-0.029086 0.3286-0.0625 0.66395-0.0625 1 0 6.25641 5.11098 11.34375 11.40625 11.34375 0.0568 0 0.0997 0.00054 0.15625 0-0.00055 0.041 0 0.05253 0 0.09375 0 3.05028 2.4933 5.53125 5.5625 5.53125 1.8637 0 3.52306-0.91335 4.53125-2.3125 1.92059 1.45058 4.30785 2.3125 6.90625 2.3125 6.31767 0 11.4375-5.09634 11.4375-11.375 0-0.28772-0.0412-0.56144-0.0625-0.84375-0.58562 5.73336-5.45218 10.21875-11.375 10.21875-2.5984 0-4.98566-0.86192-6.90625-2.3125-1.00819 1.39915-2.66755 2.3125-4.53125 2.3125-3.0692 0-5.5625-2.48097-5.5625-5.53125 0-0.0412-0.00055-0.05275 0-0.09375-0.05655 0.00054-0.09945 0-0.15625 0-5.95483 0-10.831717-4.55612-11.34375-10.34375zm-51.84375 19.875c-0.133054 0.30005-0.21875 0.62622-0.21875 0.96875 0 1.4062 1.21859 2.5625 2.71875 2.5625 0.35629 0 0.68823-0.07061 1-0.1875 0.4493 0.4678 1.11936 0.75 1.84375 0.75 1.35565 0 2.4375-1.04176 2.4375-2.3125 0-0.35865-0.097163-0.70198-0.25-1-0.39222 0.77259-1.214663 1.3125-2.1875 1.3125-0.72439 0-1.39445-0.2822-1.84375-0.75-0.31177 0.1169-0.64371 0.1875-1 0.1875-1.115023 0-2.080841-0.62584-2.5-1.53125zm68 14c-0.133054 0.30005-0.21875 0.62622-0.21875 0.96875 0 1.4062 1.21859 2.5625 2.71875 2.5625 0.35629 0 0.68823-0.07061 1-0.1875 0.4493 0.4678 1.11936 0.75 1.84375 0.75 1.35565 0 2.4375-1.04176 2.4375-2.3125 0-0.35865-0.09716-0.70198-0.25-1-0.39222 0.77259-1.214663 1.3125-2.1875 1.3125-0.72439 0-1.39445-0.2822-1.84375-0.75-0.31177 0.1169-0.64371 0.1875-1 0.1875-1.115023 0-2.080841-0.62584-2.5-1.53125zm-39 8c-0.133054 0.30005-0.21875 0.62622-0.21875 0.96875 0 1.4062 1.21859 2.5625 2.71875 2.5625 0.35629 0 0.68823-0.07061 1-0.1875 0.4493 0.4678 1.11936 0.75 1.84375 0.75 1.35565 0 2.4375-1.04176 2.4375-2.3125 0-0.35865-0.097163-0.70198-0.25-1-0.39222 0.77259-1.214663 1.3125-2.1875 1.3125-0.72439 0-1.39445-0.2822-1.84375-0.75-0.31177 0.1169-0.64371 0.1875-1 0.1875-1.115023 0-2.080841-0.62584-2.5-1.53125zm-5.125 3.65625c-0.167231 1.50495-0.719321 2.88284-1.5625 4.0625 0.274304 0.21051 0.527252 0.45364 0.78125 0.6875 0.541896-1.11852 0.84375-2.35462 0.84375-3.6875 0-0.36485-0.018783-0.70932-0.0625-1.0625zm-37.03125 8.46875c-0.029086 0.3286-0.0625 0.66395-0.0625 1 0 6.25641 5.11098 11.34375 11.40625 11.34375 0.0568 0 0.09971 0.00054 0.15625 0-0.00054 0.041 0 0.05253 0 0.09375 0 3.05028 2.49329 5.53125 5.5625 5.53125 1.86369 0 3.52306-0.91335 4.53125-2.3125 1.9206 1.45058 4.30786 2.3125 6.90625 2.3125 6.31768 0 11.4375-5.09634 11.4375-11.375 0-0.28772-0.041197-0.56144-0.0625-0.84375-0.585616 5.73336-5.452175 10.21875-11.375 10.21875-2.59839 0-4.98565-0.86187-6.90625-2.3125-1.00819 1.39915-2.66756 2.3125-4.53125 2.3125-3.06921 0-5.5625-2.48097-5.5625-5.53125 0-0.0412-0.00054-0.05275 0-0.09375-0.05655 0.00054-0.09945 0-0.15625 0-5.95483 0-10.831717-4.55612-11.34375-10.34375zm68 3.3125c-0.043124 0.34552-0.0625 0.70526-0.0625 1.0625 0 2.41249 1.006336 4.59018 2.625 6.125 0.036639-0.59224 0.12434-1.16532 0.28125-1.71875-1.568858-1.34899-2.60615-3.29335-2.84375-5.46875zm26.875 0.0625c-0.49246 4.06019-3.94655 7.1875-8.125 7.1875-0.09394 0-0.1568 0.003-0.25 0 0.006 0.13143 0 0.27322 0 0.40625 0 4.42646-3.56096 8-7.96875 8-4.037555 0-7.402672-3.00042-7.9375-6.90625-0.035027 0.29557-0.0625 0.59944-0.0625 0.90625 0 4.42646 3.59221 8 8 8s7.96875-3.57354 7.96875-8c0-0.13303 0.006-0.27482 0-0.40625 0.0932 0.003 0.15606 0 0.25 0 4.5153 0 8.1875-3.65306 8.1875-8.1875 0-0.33828-0.0228-0.67236-0.0625-1zm-75.40625 55.9375c-0.133054 0.29712-0.21875 0.62622-0.21875 0.96875 0 1.4062 1.21859 2.5625 2.71875 2.5625 0.35629 0 0.68823-0.0706 1-0.1875 0.4493 0.4678 1.11936 0.78125 1.84375 0.78125 1.35565 0 2.4375-1.04176 2.4375-2.3125 0-0.35865-0.097163-0.70198-0.25-1-0.39222 0.77259-1.214663 1.3125-2.1875 1.3125-0.72439 0-1.39445-0.31345-1.84375-0.78125-0.31177 0.1169-0.64371 0.1875-1 0.1875-1.115023 0-2.080841-0.62584-2.5-1.53125zm52.53125 5c-0.043124 0.34552-0.0625 0.70526-0.0625 1.0625 0 2.41249 1.006336 4.59018 2.625 6.125 0.036639-0.59224 0.12434-1.16532 0.28125-1.71875-1.568858-1.34899-2.60615-3.29335-2.84375-5.46875zm26.875 0.0625c-0.49246 4.06019-3.94655 7.1875-8.125 7.1875-0.09394 0-0.1568 0.003-0.25 0 0.006 0.13143 0 0.27322 0 0.40625 0 4.42646-3.56096 8-7.96875 8-4.037555 0-7.402672-3.00042-7.9375-6.90625-0.035027 0.29557-0.0625 0.59944-0.0625 0.90625 0 4.42646 3.59221 8 8 8s7.96875-3.57354 7.96875-8c0-0.13303 0.006-0.27482 0-0.40625 0.0932 0.003 0.15606 0 0.25 0 4.5153 0 8.1875-3.65306 8.1875-8.1875 0-0.33828-0.0228-0.67236-0.0625-1zm-4.5 19.5625c-0.13305 0.29712-0.21875 0.62622-0.21875 0.96875 0 1.4062 1.24984 2.5625 2.75 2.5625 0.35629 0 0.68823-0.0706 1-0.1875 0.4493 0.4678 1.08811 0.78125 1.8125 0.78125 1.35565 0 2.4375-1.04176 2.4375-2.3125 0-0.35865-0.09716-0.70198-0.25-1-0.39222 0.77259-1.21466 1.3125-2.1875 1.3125-0.72439 0-1.3632-0.31345-1.8125-0.78125-0.31177 0.1169-0.64371 0.1875-1 0.1875-1.11502 0-2.10323-0.62584-2.53125-1.53125zm-80.65625 18.0625c-0.141465 0.30777-0.21875 0.64203-0.21875 1 0 1.4062 1.21859 2.5625 2.71875 2.5625 0.35629 0 0.68823-0.0706 1-0.1875 0.4493 0.4678 1.08811 0.75 1.8125 0.75 1.35565 0 2.46875-1.04176 2.46875-2.3125 0-0.35865-0.08988-0.70198-0.25-1-0.400528 0.77456-1.244377 1.3125-2.21875 1.3125-0.72439 0-1.3632-0.2822-1.8125-0.75-0.31177 0.1169-0.64371 0.1875-1 0.1875-1.12512 0-2.086952-0.64405-2.5-1.5625zm72.40625 15.3125c-0.028574 0.11856-0.058271 0.2297-0.09375 0.34375 0.054139 0.03929 0.103906 0.08361 0.15625 0.125-0.020716-0.15709-0.025501-0.31747-0.0625-0.46875zm-82.125 2c-0.043124 0.34552-0.0625 0.70526-0.0625 1.0625 0 2.41249 1.006336 4.59018 2.625 6.125 0.036639-0.59224 0.12434-1.16532 0.28125-1.71875-1.568858-1.34899-2.60615-3.29335-2.84375-5.46875zm26.875 0.0625c-0.492465 4.06019-3.946553 7.1875-8.125 7.1875-0.09394 0-0.1568 0.003-0.25 0 0.006 0.13143 0 0.27322 0 0.40625 0 4.42646-3.56096 8-7.96875 8-4.037555 0-7.402672-3.00042-7.9375-6.90625-0.035027 0.29557-0.0625 0.59944-0.0625 0.90625 0 4.42646 3.59221 8 8 8s7.96875-3.57354 7.96875-8c0-0.13303 0.006-0.27482 0-0.40625 0.0932 0.003 0.15606 0 0.25 0 4.5153 0 8.1875-3.65306 8.1875-8.1875 0-0.33828-0.022799-0.67236-0.0625-1zm42.15625 1.34375c-0.061412 0.31362-0.09375 0.63676-0.09375 0.96875 0 2.81239 2.31219 5.125 5.125 5.125 0.66805 0 1.29045-0.14121 1.875-0.375 0.84245 0.9356 2.04804 1.53125 3.40625 1.53125 2.54185 0 4.59375-2.08352 4.59375-4.625 0-0.35036-0.050445-0.67521-0.125-1-0.453859 2.06679-2.269344 3.625-4.46875 3.625-1.35821 0-2.5638-0.59565-3.40625-1.53125-0.58455 0.23379-1.20695 0.375-1.875 0.375-2.461209 0-4.550226-1.76702-5.03125-4.09375zm-45.1875 13.25c-0.133054 0.29712-0.21875 0.62622-0.21875 0.96875 0 1.4062 1.21859 2.5625 2.71875 2.5625 0.35629 0 0.68823-0.0706 1-0.1875 0.4493 0.4678 1.11936 0.78125 1.84375 0.78125 1.35565 0 2.4375-1.04175 2.4375-2.3125 0-0.35865-0.097163-0.70198-0.25-1-0.39222 0.77259-1.214663 1.3125-2.1875 1.3125-0.72439 0-1.39445-0.31345-1.84375-0.78125-0.31177 0.1169-0.64371 0.1875-1 0.1875-1.115023 0-2.080841-0.62584-2.5-1.53125zm58.28125 63.34375c-0.028574 0.11856-0.058271 0.2297-0.09375 0.34375 0.054139 0.03929 0.103906 0.08361 0.15625 0.125-0.020717-0.15709-0.025501-0.31747-0.0625-0.46875zm-13.09375 3.40625c-0.061412 0.31362-0.09375 0.63676-0.09375 0.96875 0 2.81239 2.31219 5.125 5.125 5.125 0.66804 0 1.29045-0.14121 1.875-0.375 0.84244 0.9356 2.04803 1.53125 3.40625 1.53125 2.54185 0 4.59375-2.08352 4.59375-4.625 0-0.35036-0.050445-0.67521-0.125-1-0.453859 2.06679-2.269344 3.625-4.46875 3.625-1.35822 0-2.56381-0.59565-3.40625-1.53125-0.58455 0.23379-1.20696 0.375-1.875 0.375-2.461209 0-4.550226-1.76702-5.03125-4.09375zm17.125 1.78125c-0.13608 0.30909-0.21875 0.64026-0.21875 1 0 1.38054 1.11037 2.5 2.5 2.5 0.55353 0 1.05328-0.19906 1.46875-0.5 0.43891 0.85684 1.34095 1.46875 2.375 1.46875 1.46713 0 2.65625-1.1987 2.65625-2.65625 0-0.35006-0.0935-0.66534-0.21875-0.96875-0.40321 0.95204-1.33715 1.625-2.4375 1.625-1.03405 0-1.93609-0.61191-2.375-1.46875-0.41547 0.30094-0.91522 0.5-1.46875 0.5-1.02752 0-1.89509-0.6229-2.28125-1.5zm-79 5c-0.136084 0.30909-0.21875 0.64026-0.21875 1 0 1.38054 1.11037 2.5 2.5 2.5 0.55353 0 1.05328-0.19906 1.46875-0.5 0.43891 0.85684 1.34095 1.46875 2.375 1.46875 1.46713 0 2.65625-1.1987 2.65625-2.65625 0-0.35006-0.093496-0.66534-0.21875-0.96875-0.403212 0.95204-1.337153 1.625-2.4375 1.625-1.03405 0-1.93609-0.61191-2.375-1.46875-0.41547 0.30094-0.91522 0.5-1.46875 0.5-1.027524 0-1.895093-0.6229-2.28125-1.5zm69 43c-0.136084 0.30909-0.21875 0.64026-0.21875 1 0 1.38054 1.11037 2.5 2.5 2.5 0.55353 0 1.05328-0.19906 1.46875-0.5 0.43891 0.85684 1.34095 1.46875 2.375 1.46875 1.46713 0 2.65625-1.1987 2.65625-2.65625 0-0.35006-0.0935-0.66534-0.21875-0.96875-0.40321 0.95204-1.337153 1.625-2.4375 1.625-1.03405 0-1.93609-0.61191-2.375-1.46875-0.41547 0.30094-0.91522 0.5-1.46875 0.5-1.027524 0-1.895093-0.6229-2.28125-1.5zm-57.03125 0.8125c-0.028574 0.11856-0.058271 0.2297-0.09375 0.34375 0.054139 0.03929 0.103906 0.08361 0.15625 0.125-0.020717-0.15709-0.025501-0.31747-0.0625-0.46875zm-13.09375 3.40625c-0.061412 0.31362-0.09375 0.63676-0.09375 0.96875 0 2.81239 2.31219 5.125 5.125 5.125 0.66804 0 1.29045-0.14121 1.875-0.375 0.84244 0.9356 2.04803 1.53125 3.40625 1.53125 2.54185 0 4.59375-2.08352 4.59375-4.625 0-0.35036-0.050445-0.67521-0.125-1-0.453859 2.06679-2.269344 3.625-4.46875 3.625-1.35822 0-2.56381-0.59565-3.40625-1.53125-0.58455 0.23379-1.20696 0.375-1.875 0.375-2.461209 0-4.550226-1.76702-5.03125-4.09375zm12.125 11.78125c-0.136084 0.30909-0.21875 0.64026-0.21875 1 0 1.38054 1.11037 2.5 2.5 2.5 0.55353 0 1.05328-0.19906 1.46875-0.5 0.43891 0.85684 1.34095 1.46875 2.375 1.46875 1.46713 0 2.65625-1.1987 2.65625-2.65625 0-0.35006-0.093496-0.66534-0.21875-0.96875-0.403212 0.95204-1.337153 1.625-2.4375 1.625-1.03405 0-1.93609-0.61191-2.375-1.46875-0.41547 0.30094-0.91522 0.5-1.46875 0.5-1.027524 0-1.895093-0.6229-2.28125-1.5z" transform="translate(311,212.36218)"/>
   <path style="color:#000000" d="m55.71875 16c-16.18363 0-29.45686 12.41434-30.78125 28.21875-10.06394 5.35721-16.9375 15.91875-16.9375 28.09375 0 0.456262 0.0121811 0.92343 0.03125 1.375 0.2339856-11.908101 7.017092-22.204579 16.90625-27.46875 1.32439-15.80441 14.59762-28.21875 30.78125-28.21875 8.97663 0 17.0743 3.80726 22.71875 9.90625 2.81026-1.1186 5.88349-1.75 9.09375-1.75 13.11543 0 23.8281 10.268633 24.5 23.1875 0.00698-0.238951 0.03125-0.478035 0.03125-0.71875 0-13.51772-10.98188-24.46875-24.53125-24.46875-3.21026 0-6.28349 0.6314-9.09375 1.75-5.64445-6.09899-13.74212-9.90625-22.71875-9.90625zm52.65625 47.46875c-0.27653 0.445366-0.54027 0.886275-0.84375 1.3125 7.40158 5.702258 12.20761 14.536331 12.4375 24.53125 0.01642-0.420263 0.03125-0.825719 0.03125-1.25 0-9.906297-4.53157-18.734768-11.625-24.59375zm-13.78125 70.53125c-5.53025 0-10.52262 2.34054-14 6.09375-1.73132-0.68836-3.616-1.09375-5.59375-1.09375-8.34736 0-15.09375 6.77514-15.09375 15.09375 0 0.29113 0.014935 0.58832 0.03125 0.875 0.580478-7.79115 7.098233-13.96875 15.0625-13.96875 1.97775 0 3.86243 0.40539 5.59375 1.09375 3.47738-3.75321 8.46975-6.09375 14-6.09375 9.97025 0 18.15279 7.61796 18.96875 17.34375 5.92471 3.15031 10.05082 9.23949 10.40625 16.3125 0.01704-0.33397 0.03125-0.66182 0.03125-1 0-7.49231-4.23739-14.01575-10.4375-17.3125-0.81591-9.72579-8.9985-17.34375-18.96875-17.34375zm-62.0625 7c-2.40994 0-4.59339 1.02706-6.09375 2.65625-0.66426-0.16658-1.34555-0.25-2.0625-0.25-4.63249 0-8.375 3.65897-8.375 8.21875 0 0.33703 0.022729 0.67328 0.0625 1 0.502052-4.08102 4.025606-7.21875 8.3125-7.21875 0.71695 0 1.39824 0.08342 2.0625 0.25 1.50036-1.62919 3.68381-2.65625 6.09375-2.65625 4.169827 0 7.633967 3.0674 8.15625 7.03125 0.040343-0.31928 0.0625-0.64022 0.0625-0.96875 0-4.45788-3.68978-8.0625-8.21875-8.0625zm7.03125 14.1875c-0.219484 0.36143-0.449747 0.7104-0.71875 1.03125 0.005 0.0055-0.005 0.02525 0 0.03125 1.136449 1.23731 1.886836 2.81917 2.09375 4.5625 0.043022-0.33895 0.0625-0.68037 0.0625-1.03125 0-1.70611-0.538766-3.27875-1.4375-4.59375zm22.28125 8.28125c-4.181602 3.60456-6.84375 8.93228-6.84375 14.875 0 0.27581 0.019982 0.53946 0.03125 0.8125 0.348298-5.85452 3.275331-11.00366 7.65625-14.375-0.302063-0.42376-0.586288-0.85907-0.84375-1.3125zm-37.71875 28.53125c-10.01109 0-18.125 8.05436-18.125 17.96875 0 0.43538 0.0003797 0.85373 0.03125 1.28125 0.3820096-9.58094 8.326483-17.25 18.09375-17.25 6.04391 0 11.36278 2.93418 14.65625 7.4375 3.08401-1.64639 6.62582-2.5625 10.375-2.5625 11.700466 0 21.22826 9.05863 21.8125 20.5 0.011358-0.28705 0.03125-0.58522 0.03125-0.875 0-11.96123-9.76585-21.625-21.84375-21.625-3.74918 0-7.29099 0.91611-10.375 2.5625-3.29347-4.50332-8.61234-7.4375-14.65625-7.4375zm71.90625 17c-5.77986 0-10.49576 4.40853-10.96875 10.03125-3.59428 1.90593-6.0625 5.6685-6.0625 10 0 0.33834 0.033227 0.66912 0.0625 1 0.345818-3.90687 2.684574-7.24194 6-9 0.47299-5.62272 5.18889-10.03125 10.96875-10.03125 3.20595 0 6.10912 1.36147 8.125 3.53125 1.00366-0.39797 2.10348-0.625 3.25-0.625 4.47194 0 8.15498 3.35407 8.6875 7.65625 0.03435-0.30909 0.0625-0.61769 0.0625-0.9375 0-4.80919-3.91094-8.71875-8.75-8.71875-1.14652 0-2.24634 0.22703-3.25 0.625-2.01588-2.16983-4.91905-3.53125-8.125-3.53125zm19.28125 17.3125c-0.2212 0.45658-0.48663 0.90031-0.78125 1.3125 2.48846 1.90976 4.148 4.8244 4.40625 8.125 0.03699-0.37222 0.0625-0.74316 0.0625-1.125 0-3.2936-1.43306-6.23682-3.6875-8.3125zm-100.15625 1.21875c-0.778565 1.99149-1.21875 4.14708-1.21875 6.40625 0 0.27465 0.018995 0.54084 0.03125 0.8125 0.17124-2.43242 0.867841-4.73598 1.90625-6.8125-0.248235-0.12616-0.47728-0.26928-0.71875-0.40625zm78.875 46.46875c-5.77985 0-10.49577 4.40853-10.96875 10.03125-3.59427 1.90594-6.0625 5.66851-6.0625 10 0 0.33834 0.033227 0.66912 0.0625 1 0.345819-3.90686 2.684584-7.24193 6-9 0.47298-5.62272 5.1889-10.03125 10.96875-10.03125 3.20596 0 6.10912 1.36147 8.125 3.53125 1.00367-0.39796 2.10348-0.625 3.25-0.625 4.47194 0 8.15498 3.35406 8.6875 7.65625 0.03435-0.30909 0.0625-0.61769 0.0625-0.9375 0-4.8092-3.91094-8.71875-8.75-8.71875-1.14652 0-2.24633 0.22704-3.25 0.625-2.01588-2.16978-4.91904-3.53125-8.125-3.53125zm-23.28125 1c-0.96509 0-1.76622 0.53117-2.125 1.3125-1.44691 0.0564-2.625 1.19237-2.625 2.5625 0 0.35155 0.081067 0.69385 0.21875 1 0.405416-0.88683 1.331403-1.5206 2.40625-1.5625 0.35878-0.78133 1.15991-1.3125 2.125-1.3125 1.29372 0 2.34375 0.97481 2.34375 2.1875 0 0.22738-0.02525 0.44999-0.09375 0.65625 0.326931 0.22245 0.576285 0.50502 0.75 0.84375 0.077169-0.15201 0.144292-0.30161 0.1875-0.46875s0.0625-0.35183 0.0625-0.53125c0-0.76629-0.38543-1.42558-1-1.84375 0.0685-0.20626 0.09375-0.42887 0.09375-0.65625 0-1.21269-1.05003-2.1875-2.34375-2.1875zm-41.84375 1c-1.80953 0-3.32728 1.09358-4 2.65625-2.71293 0.11283-4.90625 2.32224-4.90625 5.0625 0 0.34073 0.029094 0.67716 0.09375 1 0.456906-2.2602 2.438686-3.96377 4.8125-4.0625 0.67272-1.56267 2.19047-2.65625 4-2.65625 2.067827 0 3.811548 1.42324 4.28125 3.34375 0.07478-0.31028 0.125-0.63972 0.125-0.96875 0-2.42537-1.98053-4.375-4.40625-4.375zm4.34375 5.8125c0.024801 0.18806 0.0625 0.36752 0.0625 0.5625 0 0.45475-0.09042 0.89997-0.21875 1.3125 0.888891 0.64515 1.529678 1.59157 1.78125 2.6875 0.070665-0.32179 0.125-0.65761 0.125-1 0-1.46058-0.688243-2.72283-1.75-3.5625zm80.0625 9.5c-0.2212 0.45658-0.48663 0.90031-0.78125 1.3125 2.48847 1.90975 4.148 4.82439 4.40625 8.125 0.03699-0.37222 0.0625-0.74316 0.0625-1.125 0-3.2936-1.43305-6.23682-3.6875-8.3125zm-83.5625 18.6875c-0.96509 0-1.76622 0.53117-2.125 1.3125-1.44691 0.0564-2.625 1.19237-2.625 2.5625 0 0.35155 0.081067 0.69385 0.21875 1 0.405416-0.88683 1.331403-1.5206 2.40625-1.5625 0.35878-0.78133 1.15991-1.3125 2.125-1.3125 1.29372 0 2.34375 0.97481 2.34375 2.1875 0 0.22738-0.02525 0.44999-0.09375 0.65625 0.326931 0.22245 0.576285 0.50502 0.75 0.84375 0.077169-0.15201 0.144292-0.30161 0.1875-0.46875s0.0625-0.35183 0.0625-0.53125c0-0.76629-0.38543-1.42558-1-1.84375 0.0685-0.20626 0.09375-0.42887 0.09375-0.65625 0-1.21269-1.05003-2.1875-2.34375-2.1875zm68 14c-0.96509 0-1.76622 0.53117-2.125 1.3125-1.44691 0.0564-2.625 1.19237-2.625 2.5625 0 0.35155 0.081067 0.69385 0.21875 1 0.405416-0.88683 1.331403-1.5206 2.40625-1.5625 0.35878-0.78133 1.15991-1.3125 2.125-1.3125 1.29372 0 2.34375 0.97481 2.34375 2.1875 0 0.22738-0.02525 0.44999-0.09375 0.65625 0.32693 0.22245 0.57629 0.50502 0.75 0.84375 0.07717-0.15201 0.14429-0.30161 0.1875-0.46875s0.0625-0.35183 0.0625-0.53125c0-0.76629-0.38543-1.42558-1-1.84375 0.0685-0.20626 0.09375-0.42887 0.09375-0.65625 0-1.21269-1.05003-2.1875-2.34375-2.1875zm-68.71875 4c-5.77986 0-10.49576 4.40853-10.96875 10.03125-3.59426 1.90594-6.0625 5.66851-6.0625 10 0 0.33834 0.033227 0.66912 0.0625 1 0.345821-3.90686 2.684593-7.24193 6-9 0.47299-5.62272 5.18889-10.03125 10.96875-10.03125 3.20596 0 6.10912 1.36142 8.125 3.53125 1.00367-0.39796 2.10348-0.625 3.25-0.625 4.471943 0 8.154975 3.35406 8.6875 7.65625 0.034346-0.30909 0.0625-0.61769 0.0625-0.9375 0-4.8092-3.91094-8.71875-8.75-8.71875-1.14652 0-2.24633 0.22704-3.25 0.625-2.01588-2.16983-4.91904-3.53125-8.125-3.53125zm29.71875 4c-0.96509 0-1.76622 0.53117-2.125 1.3125-0.542591 0.02115-1.049714 0.18855-1.46875 0.46875-0.139679 0.0934-0.256153 0.19692-0.375 0.3125-0.475386 0.46231-0.78125 1.09618-0.78125 1.78125 0 0.35155 0.081067 0.69385 0.21875 1 0.405416-0.88683 1.331403-1.5206 2.40625-1.5625 0.35878-0.78133 1.15991-1.3125 2.125-1.3125 1.29372 0 2.34375 0.97481 2.34375 2.1875 0 0.22738-0.02525 0.44999-0.09375 0.65625 0.326931 0.22245 0.576285 0.50502 0.75 0.84375 0.077169-0.15201 0.144292-0.30161 0.1875-0.46875s0.0625-0.35183 0.0625-0.53125c0-0.76629-0.38543-1.42558-1-1.84375 0.0685-0.20626 0.09375-0.42887 0.09375-0.65625 0-1.21269-1.05003-2.1875-2.34375-2.1875zm29.625 11c-4.6228 0-8.375 3.76385-8.375 8.40625 0 0.31953 0.028557 0.62673 0.0625 0.9375 0.517283-4.14459 4.045428-7.34375 8.3125-7.34375 2.05281 0 3.91889 0.7371 5.375 1.96875 1.39479-1.11165 3.1435-1.78125 5.0625-1.78125 4.17845 0 7.63254 3.15457 8.125 7.21875 0.0397-0.32732 0.0625-0.66172 0.0625-1 0-4.53444-3.6722-8.21875-8.1875-8.21875-1.919 0-3.66771 0.6696-5.0625 1.78125-1.45611-1.23165-3.32219-1.96875-5.375-1.96875zm-40.0625 2.3125c-0.221204 0.45658-0.486635 0.90031-0.78125 1.3125 2.488456 1.90975 4.148 4.82439 4.40625 8.125 0.03699-0.37222 0.0625-0.74316 0.0625-1.125 0-3.2936-1.433058-6.23682-3.6875-8.3125zm34.3125 14.21875c-0.009625 0.15558-0.03125 0.31008-0.03125 0.46875 0 0.3718 0.013457 0.73559 0.0625 1.09375 0.052041-0.43914 0.131577-0.86356 0.25-1.28125-0.100855-0.08672-0.184773-0.18977-0.28125-0.28125zm-46.5625 43.9375c-0.96509 0-1.76622 0.53117-2.125 1.3125-1.44691 0.0564-2.625 1.16112-2.625 2.53125 0 0.35155 0.081067 0.69385 0.21875 1 0.405682-0.87737 1.331853-1.48937 2.40625-1.53125 0.35878-0.78133 1.15991-1.3125 2.125-1.3125 1.29372 0 2.34375 0.97481 2.34375 2.1875 0 0.22738-0.02525 0.44999-0.09375 0.65625 0.326931 0.22245 0.576285 0.50502 0.75 0.84375 0.154339-0.30402 0.25-0.64116 0.25-1 0-0.76629-0.38543-1.42558-1-1.84375 0.0685-0.20626 0.09375-0.42887 0.09375-0.65625 0-1.21269-1.05003-2.1875-2.34375-2.1875zm56.3125 0.53125c-4.6228 0-8.375 3.76385-8.375 8.40625 0 0.31953 0.028557 0.62673 0.0625 0.9375 0.517283-4.14459 4.045428-7.34375 8.3125-7.34375 2.05281 0 3.91889 0.7371 5.375 1.96875 1.39479-1.11165 3.1435-1.78125 5.0625-1.78125 4.17845 0 7.63254 3.15457 8.125 7.21875 0.0397-0.32732 0.0625-0.66172 0.0625-1 0-4.53444-3.6722-8.21875-8.1875-8.21875-1.919 0-3.66771 0.6696-5.0625 1.78125-1.45611-1.23165-3.32219-1.96875-5.375-1.96875zm-5.75 16.53125c-0.009625 0.15558-0.03125 0.31008-0.03125 0.46875 0 0.3718 0.013457 0.73559 0.0625 1.09375 0.052041-0.43914 0.131577-0.86356 0.25-1.28125-0.100855-0.08672-0.184773-0.18977-0.28125-0.28125zm24.375 7.5625c-0.96509 0-1.79747 0.53117-2.15625 1.3125-1.44691 0.0564-2.625 1.16112-2.625 2.53125 0 0.35155 0.07814 0.69385 0.21875 1 0.40568-0.87737 1.33185-1.48937 2.40625-1.53125 0.35878-0.78133 1.19116-1.3125 2.15625-1.3125 1.29372 0 2.34375 0.97481 2.34375 2.1875 0 0.22737-0.0565 0.44998-0.125 0.65625 0.32693 0.22245 0.57629 0.50502 0.75 0.84375 0.15434-0.30402 0.25-0.64116 0.25-1 0-0.7663-0.38543-1.42558-1-1.84375 0.0685-0.20627 0.125-0.42888 0.125-0.65625 0-1.21269-1.05003-2.1875-2.34375-2.1875zm-80.6875 18.0625c-0.96509 0-1.79747 0.56242-2.15625 1.34375-1.44691 0.0564-2.59375 1.16112-2.59375 2.53125 0 0.35155 0.081067 0.69385 0.21875 1 0.399995-0.87023 1.306119-1.48959 2.375-1.53125 0.35878-0.78133 1.19116-1.34375 2.15625-1.34375 1.29372 0 2.34375 0.97481 2.34375 2.1875 0 0.22738-0.0565 0.44998-0.125 0.65625 0.326931 0.22245 0.599257 0.50502 0.78125 0.84375 0.156728-0.30309 0.25-0.6426 0.25-1 0-0.7663-0.41668-1.42558-1.03125-1.84375 0.0685-0.20627 0.125-0.42887 0.125-0.65625 0-1.21269-1.05003-2.1875-2.34375-2.1875zm-5.9375 12.84375c-4.6228 0-8.375 3.76385-8.375 8.40625 0 0.31953 0.028557 0.62673 0.0625 0.9375 0.517283-4.14459 4.045428-7.34375 8.3125-7.34375 2.05281 0 3.91889 0.7371 5.375 1.96875 1.39479-1.11165 3.1435-1.78125 5.0625-1.78125 4.178447 0 7.632535 3.15457 8.125 7.21875 0.039701-0.32732 0.0625-0.66172 0.0625-1 0-4.53444-3.6722-8.21875-8.1875-8.21875-1.919 0-3.66771 0.6696-5.0625 1.78125-1.45611-1.23165-3.32219-1.96875-5.375-1.96875zm69.53125 2c-1.80952 0-3.32727 1.09358-4 2.65625-2.71292 0.11283-4.90625 2.32224-4.90625 5.0625 0 0.34073 0.029094 0.67716 0.09375 1 0.456908-2.2602 2.438695-3.96377 4.8125-4.0625 0.67273-1.56267 2.19048-2.65625 4-2.65625 2.067835 0 3.81155 1.42324 4.28125 3.34375 0.07478-0.31028 0.125-0.63973 0.125-0.96875 0-2.42537-1.98052-4.375-4.40625-4.375zm4.34375 5.8125c0.024801 0.18806 0.0625 0.36752 0.0625 0.5625 0 0.45475-0.09042 0.89997-0.21875 1.3125 0.888891 0.64515 1.529678 1.59157 1.78125 2.6875 0.070665-0.32179 0.125-0.65761 0.125-1 0-1.46058-0.688243-2.72283-1.75-3.5625zm-79.625 8.71875c-0.009625 0.15558-0.03125 0.31008-0.03125 0.46875 0 0.3718 0.013457 0.73559 0.0625 1.09375 0.052041-0.43914 0.131577-0.86356 0.25-1.28125-0.100855-0.08672-0.184773-0.18977-0.28125-0.28125zm25.8125 2.59375c-0.96509 0-1.76622 0.53117-2.125 1.3125-1.44691 0.0564-2.625 1.16112-2.625 2.53125 0 0.35155 0.081067 0.69385 0.21875 1 0.405682-0.87737 1.331853-1.48937 2.40625-1.53125 0.35878-0.78133 1.15991-1.3125 2.125-1.3125 1.29372 0 2.34375 0.97481 2.34375 2.1875 0 0.22737-0.02525 0.44998-0.09375 0.65625 0.326931 0.22245 0.576285 0.50502 0.75 0.84375 0.154339-0.30402 0.25-0.64116 0.25-1 0-0.76629-0.38543-1.42558-1-1.84375 0.0685-0.20627 0.09375-0.42888 0.09375-0.65625 0-1.21269-1.05003-2.1875-2.34375-2.1875zm49.46875 62.875c-1.80953 0-3.32728 1.09358-4 2.65625-2.71293 0.11283-4.90625 2.32224-4.90625 5.0625 0 0.34073 0.029094 0.67716 0.09375 1 0.456906-2.2602 2.438686-3.96377 4.8125-4.0625 0.67272-1.56267 2.19047-2.65625 4-2.65625 2.067827 0 3.811548 1.42324 4.28125 3.34375 0.07478-0.31028 0.125-0.63972 0.125-0.96875 0-2.42537-1.98053-4.375-4.40625-4.375zm13.21875 5c-1.22661 0-2.24594 0.87721-2.46875 2.03125-0.0502-0.003-0.10534 0-0.15625 0-1.38963 0-2.5 1.11945-2.5 2.5 0 0.35974 0.08267 0.69091 0.21875 1 0.38616-0.8771 1.25373-1.5 2.28125-1.5 0.05091 0 0.10605-0.003 0.15625 0 0.22281-1.15404 1.24214-2.03125 2.46875-2.03125 1.38962 0 2.53125 1.11946 2.53125 2.5 0 0.17257-0.029 0.33728-0.0625 0.5 0.004 0.0022-0.004 0.02925 0 0.03125 0.53596 0.28578 0.95016 0.75519 1.1875 1.3125 0.12724-0.31001 0.21875-0.64599 0.21875-1 0-1.00679-0.57174-1.86752-1.40625-2.3125-0.004-0.002 0.004-0.02905 0-0.03125 0.0335-0.16272 0.0625-0.32743 0.0625-0.5 0-1.38054-1.14163-2.5-2.53125-2.5zm-8.875 0.8125c0.024801 0.18806 0.0625 0.36752 0.0625 0.5625 0 0.45475-0.09042 0.89997-0.21875 1.3125 0.888891 0.64515 1.529678 1.59157 1.78125 2.6875 0.070665-0.32179 0.125-0.65761 0.125-1 0-1.46058-0.688243-2.72283-1.75-3.5625zm-70.125 4.1875c-1.22661 0-2.24594 0.87721-2.46875 2.03125-0.0502-0.003-0.10534 0-0.15625 0-1.38963 0-2.5 1.11945-2.5 2.5 0 0.35974 0.082666 0.69091 0.21875 1 0.386157-0.8771 1.253726-1.5 2.28125-1.5 0.05091 0 0.10605-0.003 0.15625 0 0.22281-1.15404 1.24214-2.03125 2.46875-2.03125 1.38962 0 2.53125 1.11946 2.53125 2.5 0 0.17257-0.029 0.33728-0.0625 0.5 0.004 0.0022-0.004 0.02925 0 0.03125 0.535957 0.28578 0.950163 0.75519 1.1875 1.3125 0.127243-0.31001 0.21875-0.64599 0.21875-1 0-1.00679-0.57174-1.86752-1.40625-2.3125-0.004-0.002 0.004-0.02905 0-0.03125 0.0335-0.16272 0.0625-0.32743 0.0625-0.5 0-1.38054-1.14163-2.5-2.53125-2.5zm69 43c-1.22661 0-2.24594 0.87721-2.46875 2.03125-0.0502-0.003-0.10534 0-0.15625 0-1.38963 0-2.5 1.11945-2.5 2.5 0 0.35974 0.082666 0.69091 0.21875 1 0.386157-0.8771 1.253726-1.5 2.28125-1.5 0.05091 0 0.10605-0.003 0.15625 0 0.22281-1.15404 1.24214-2.03125 2.46875-2.03125 1.38962 0 2.53125 1.11946 2.53125 2.5 0 0.17257-0.029 0.33728-0.0625 0.5 0.004 0.0022-0.004 0.02925 0 0.03125 0.53596 0.28578 0.95016 0.75519 1.1875 1.3125 0.12724-0.31001 0.21875-0.64599 0.21875-1 0-1.00679-0.57174-1.86752-1.40625-2.3125-0.004-0.002 0.004-0.02905 0-0.03125 0.0335-0.16272 0.0625-0.32743 0.0625-0.5 0-1.38054-1.14163-2.5-2.53125-2.5zm-66.21875 1c-1.80953 0-3.32728 1.09358-4 2.65625-2.71293 0.11283-4.90625 2.32224-4.90625 5.0625 0 0.34073 0.029094 0.67716 0.09375 1 0.456906-2.2602 2.438686-3.96377 4.8125-4.0625 0.67272-1.56267 2.19047-2.65625 4-2.65625 2.067827 0 3.811548 1.42324 4.28125 3.34375 0.07478-0.31028 0.125-0.63972 0.125-0.96875 0-2.42537-1.98053-4.375-4.40625-4.375zm4.34375 5.8125c0.024801 0.18806 0.0625 0.36752 0.0625 0.5625 0 0.45475-0.09042 0.89997-0.21875 1.3125 0.888891 0.64515 1.529678 1.59157 1.78125 2.6875 0.070665-0.32179 0.125-0.65761 0.125-1 0-1.46058-0.688243-2.72283-1.75-3.5625zm3.875 9.1875c-1.22661 0-2.24594 0.87721-2.46875 2.03125-0.0502-0.003-0.10534 0-0.15625 0-1.38963 0-2.5 1.11945-2.5 2.5 0 0.35974 0.082666 0.69091 0.21875 1 0.386157-0.8771 1.253726-1.5 2.28125-1.5 0.05091 0 0.10605-0.003 0.15625 0 0.22281-1.15404 1.24214-2.03125 2.46875-2.03125 1.38962 0 2.53125 1.11946 2.53125 2.5 0 0.17257-0.029 0.33728-0.0625 0.5 0.004 0.0022-0.004 0.02925 0 0.03125 0.535957 0.28578 0.950163 0.75519 1.1875 1.3125 0.127243-0.31001 0.21875-0.64599 0.21875-1 0-1.00679-0.57174-1.86752-1.40625-2.3125-0.004-0.002 0.004-0.02905 0-0.03125 0.0335-0.16272 0.0625-0.32743 0.0625-0.5 0-1.38054-1.14163-2.5-2.53125-2.5z" transform="translate(311,212.36218)" fill="#fff"/>
  </g>
 </g>
</svg>
