<?xml version="1.0" encoding="UTF-8" standalone="no"?>
<!-- Created with Inkscape (http://www.inkscape.org/) -->

<svg
   xmlns:dc="http://purl.org/dc/elements/1.1/"
   xmlns:cc="http://creativecommons.org/ns#"
   xmlns:rdf="http://www.w3.org/1999/02/22-rdf-syntax-ns#"
   xmlns:svg="http://www.w3.org/2000/svg"
   xmlns="http://www.w3.org/2000/svg"
   xmlns:xlink="http://www.w3.org/1999/xlink"
   xmlns:sodipodi="http://sodipodi.sourceforge.net/DTD/sodipodi-0.dtd"
   xmlns:inkscape="http://www.inkscape.org/namespaces/inkscape"
   width="32px"
   height="32px"
   id="svg4131"
   version="1.1"
   inkscape:version="0.48.0 r9654"
   sodipodi:docname="plank.svg">
  <defs
     id="defs4133">
    <linearGradient
       y2="-61.256123"
       x2="19.874987"
       y1="38.245197"
       x1="19.874987"
       gradientTransform="matrix(-0.29999995,0,0,0.29999995,34.258887,18.300002)"
       gradientUnits="userSpaceOnUse"
       id="linearGradient3208-31"
       xlink:href="#linearGradient3707-319-631-407-1-846-5-4-5-44"
       inkscape:collect="always" />
    <linearGradient
       id="linearGradient3707-319-631-407-1-846-5-4-5-44">
      <stop
         offset="0"
         style="stop-color:#365a7c;stop-opacity:1"
         id="stop3788-4-8-9-7" />
      <stop
         offset="1"
         style="stop-color:#5ea1ca;stop-opacity:1;"
         id="stop3790-2-1-9-6" />
    </linearGradient>
    <linearGradient
       y2="-61.256123"
       x2="19.874987"
       y1="38.245197"
       x1="19.874987"
       gradientTransform="matrix(-0.29999995,0,0,0.29999995,28.258887,18.300002)"
       gradientUnits="userSpaceOnUse"
       id="linearGradient3208-3"
       xlink:href="#linearGradient3707-319-631-407-1-846-5-4-5-4"
       inkscape:collect="always" />
    <linearGradient
       id="linearGradient3707-319-631-407-1-846-5-4-5-4">
      <stop
         offset="0"
         style="stop-color:#365a7c;stop-opacity:1"
         id="stop3788-4-8-9-8" />
      <stop
         offset="1"
         style="stop-color:#5ea1ca;stop-opacity:1;"
         id="stop3790-2-1-9-10" />
    </linearGradient>
    <linearGradient
       inkscape:collect="always"
       xlink:href="#linearGradient3707-319-631-407-324-0"
       id="linearGradient3232"
       gradientUnits="userSpaceOnUse"
       gradientTransform="matrix(0.08948479,0,0,0.09288826,4.6557887,2.9927407)"
       x1="193.82301"
       y1="226.15622"
       x2="193.82301"
       y2="-21.453117" />
    <linearGradient
       id="linearGradient3707-319-631-407-324-0">
      <stop
         offset="0"
         style="stop-color:#185f9a;stop-opacity:1;"
         id="stop3760-4" />
      <stop
         offset="1"
         style="stop-color:#599ec9;stop-opacity:1;"
         id="stop3762-4" />
    </linearGradient>
    <linearGradient
       y2="-61.256123"
       x2="19.874987"
       y1="38.245197"
       x1="19.874987"
       gradientTransform="matrix(-0.29999995,0,0,0.29999995,22.258887,18.300002)"
       gradientUnits="userSpaceOnUse"
       id="linearGradient3208"
       xlink:href="#linearGradient3707-319-631-407-1-846-5-4-5-6"
       inkscape:collect="always" />
    <linearGradient
       id="linearGradient3707-319-631-407-1-846-5-4-5-6">
      <stop
         offset="0"
         style="stop-color:#365a7c;stop-opacity:1"
         id="stop3788-4-8-9-1" />
      <stop
         offset="1"
         style="stop-color:#5ea1ca;stop-opacity:1;"
         id="stop3790-2-1-9-1" />
    </linearGradient>
    <linearGradient
       inkscape:collect="always"
       xlink:href="#linearGradient3707-319-631-407-1-846-5-4-5"
       id="linearGradient3190"
       gradientUnits="userSpaceOnUse"
       gradientTransform="matrix(-0.29999995,0,0,0.29999995,16.258887,18.300002)"
       x1="19.874987"
       y1="38.245197"
       x2="19.874987"
       y2="-61.256123" />
    <linearGradient
       id="linearGradient3707-319-631-407-1-846-5-4-5">
      <stop
         offset="0"
         style="stop-color:#365a7c;stop-opacity:1"
         id="stop3788-4-8-9" />
      <stop
         offset="1"
         style="stop-color:#5ea1ca;stop-opacity:1;"
         id="stop3790-2-1-9" />
    </linearGradient>
    <linearGradient
       inkscape:collect="always"
       xlink:href="#linearGradient8265-821-176-38-919-66-249-7-7"
       id="linearGradient3174"
       gradientUnits="userSpaceOnUse"
       gradientTransform="matrix(0.52104027,0,0,0.81327108,3.4706604,0.354424)"
       x1="16.626165"
       y1="15.298182"
       x2="20.054544"
       y2="24.627615" />
    <linearGradient
       id="linearGradient8265-821-176-38-919-66-249-7-7">
      <stop
         id="stop2687-1-9"
         style="stop-color:#ffffff;stop-opacity:1"
         offset="0" />
      <stop
         id="stop2689-5-4"
         style="stop-color:#ffffff;stop-opacity:0"
         offset="1" />
    </linearGradient>
    <linearGradient
       y2="43"
       x2="23.99999"
       y1="4.999989"
       x1="23.99999"
       gradientTransform="matrix(0.62162164,0,0,0.62162164,1.0810837,2.0810873)"
       gradientUnits="userSpaceOnUse"
       id="linearGradient3141"
       xlink:href="#linearGradient3924"
       inkscape:collect="always" />
    <linearGradient
       id="linearGradient3924">
      <stop
         id="stop3926"
         style="stop-color:#ffffff;stop-opacity:1;"
         offset="0" />
      <stop
         offset="0.06316455"
         style="stop-color:#ffffff;stop-opacity:0.23529412;"
         id="stop3928" />
      <stop
         id="stop3930"
         style="stop-color:#ffffff;stop-opacity:0.15686275;"
         offset="0.95056331" />
      <stop
         id="stop3932"
         style="stop-color:#ffffff;stop-opacity:0.39215687;"
         offset="1" />
    </linearGradient>
    <radialGradient
       inkscape:collect="always"
       xlink:href="#linearGradient2867-449-88-871-390-598-476-591-434-148-57-177-8"
       id="radialGradient3166-9"
       gradientUnits="userSpaceOnUse"
       gradientTransform="matrix(1.2454146e-8,1.4980705,-1.58478,-2.7600178e-8,29.391093,-6.355641)"
       cx="7.4956832"
       cy="8.4497671"
       fx="7.4956832"
       fy="8.4497671"
       r="19.99999" />
    <linearGradient
       id="linearGradient2867-449-88-871-390-598-476-591-434-148-57-177-8">
      <stop
         offset="0"
         style="stop-color:#90dbec;stop-opacity:1;"
         id="stop3750-4" />
      <stop
         offset="0.26238"
         style="stop-color:#55c1ec;stop-opacity:1;"
         id="stop3752-8" />
      <stop
         offset="0.704952"
         style="stop-color:#3689e6;stop-opacity:1;"
         id="stop3754-1" />
      <stop
         offset="1"
         style="stop-color:#2b63a0;stop-opacity:1;"
         id="stop3756-0" />
    </linearGradient>
    <linearGradient
       inkscape:collect="always"
       xlink:href="#linearGradient3707-319-631-407-324-0"
       id="linearGradient3168-3"
       gradientUnits="userSpaceOnUse"
       gradientTransform="matrix(0.64102567,0,0,0.64102567,0.6153854,1.6153843)"
       x1="24"
       y1="44"
       x2="24"
       y2="3.8990016" />
    <radialGradient
       inkscape:collect="always"
       xlink:href="#linearGradient3688-166-749"
       id="radialGradient2976"
       gradientUnits="userSpaceOnUse"
       gradientTransform="matrix(2.003784,0,0,1.4,27.98813,-17.4)"
       cx="4.9929786"
       cy="43.5"
       fx="4.9929786"
       fy="43.5"
       r="2.5" />
    <linearGradient
       id="linearGradient3688-166-749">
      <stop
         id="stop2883"
         style="stop-color:#181818;stop-opacity:1"
         offset="0" />
      <stop
         id="stop2885"
         style="stop-color:#181818;stop-opacity:0"
         offset="1" />
    </linearGradient>
    <radialGradient
       inkscape:collect="always"
       xlink:href="#linearGradient3688-464-309"
       id="radialGradient2978"
       gradientUnits="userSpaceOnUse"
       gradientTransform="matrix(2.003784,0,0,1.4,-20.01187,-104.4)"
       cx="4.9929786"
       cy="43.5"
       fx="4.9929786"
       fy="43.5"
       r="2.5" />
    <linearGradient
       id="linearGradient3688-464-309">
      <stop
         id="stop2889"
         style="stop-color:#181818;stop-opacity:1"
         offset="0" />
      <stop
         id="stop2891"
         style="stop-color:#181818;stop-opacity:0"
         offset="1" />
    </linearGradient>
    <linearGradient
       inkscape:collect="always"
       xlink:href="#linearGradient3702-501-757"
       id="linearGradient2980"
       gradientUnits="userSpaceOnUse"
       x1="25.058096"
       y1="47.027729"
       x2="25.058096"
       y2="39.999443" />
    <linearGradient
       id="linearGradient3702-501-757">
      <stop
         id="stop2895"
         style="stop-color:#181818;stop-opacity:0"
         offset="0" />
      <stop
         id="stop2897"
         style="stop-color:#181818;stop-opacity:1"
         offset="0.5" />
      <stop
         id="stop2899"
         style="stop-color:#181818;stop-opacity:0"
         offset="1" />
    </linearGradient>
  </defs>
  <sodipodi:namedview
     id="base"
     pagecolor="#ffffff"
     bordercolor="#666666"
     borderopacity="1.0"
     inkscape:pageopacity="0.0"
     inkscape:pageshadow="2"
     inkscape:zoom="11.197802"
     inkscape:cx="16"
     inkscape:cy="16"
     inkscape:current-layer="layer1"
     showgrid="true"
     inkscape:grid-bbox="true"
     inkscape:document-units="px"
     inkscape:window-width="444"
     inkscape:window-height="421"
     inkscape:window-x="0"
     inkscape:window-y="294"
     inkscape:window-maximized="0" />
  <metadata
     id="metadata4136">
    <rdf:RDF>
      <cc:Work
         rdf:about="">
        <dc:format>image/svg+xml</dc:format>
        <dc:type
           rdf:resource="http://purl.org/dc/dcmitype/StillImage" />
        <dc:title></dc:title>
      </cc:Work>
    </rdf:RDF>
  </metadata>
  <g
     id="layer1"
     inkscape:label="Layer 1"
     inkscape:groupmode="layer">
    <g
       style="display:inline"
       id="g2036"
       transform="matrix(0.6999997,0,0,0.3333336,-0.8000003,15.33333)">
      <g
         style="opacity:0.4"
         id="g3712"
         transform="matrix(1.052632,0,0,1.285713,-1.263158,-13.42854)">
        <rect
           style="fill:url(#radialGradient2976);fill-opacity:1;stroke:none"
           id="rect2801"
           y="40"
           x="38"
           height="7"
           width="5" />
        <rect
           style="fill:url(#radialGradient2978);fill-opacity:1;stroke:none"
           id="rect3696"
           transform="scale(-1,-1)"
           y="-47"
           x="-10"
           height="7"
           width="5" />
        <rect
           style="fill:url(#linearGradient2980);fill-opacity:1;stroke:none"
           id="rect3700"
           y="40"
           x="10"
           height="7.0000005"
           width="28" />
      </g>
    </g>
    <rect
       style="color:#000000;fill:url(#radialGradient3166-9);fill-opacity:1;fill-rule:nonzero;stroke:url(#linearGradient3168-3);stroke-width:1;stroke-linecap:round;stroke-linejoin:round;stroke-miterlimit:4;stroke-opacity:1;stroke-dasharray:none;stroke-dashoffset:0;marker:none;visibility:visible;display:inline;overflow:visible;enable-background:accumulate"
       id="rect5505"
       y="4.5"
       x="3.5"
       ry="2"
       rx="2"
       height="25"
       width="25" />
    <rect
       style="opacity:0.5;fill:none;stroke:url(#linearGradient3141);stroke-width:1;stroke-linecap:round;stroke-linejoin:round;stroke-miterlimit:4;stroke-opacity:1;stroke-dasharray:none;stroke-dashoffset:0"
       id="rect6741-7"
       y="5.5"
       x="4.5"
       ry="1"
       rx="1"
       height="23"
       width="23" />
    <path
       inkscape:connector-curvature="0"
       style="opacity:0.2;fill:url(#linearGradient3174);fill-opacity:1;fill-rule:evenodd;stroke:none"
       id="path3333"
       d="M 5.3578979,5 C 4.9289359,5 4,5.5702913 4,6.125 L 4.0079806,20 C 4.6984029,19.984887 27.475954,14.470682 28,14.205444 L 28,6.125 C 28,5.7009978 26.957334,5 26.585897,5 z"
       sodipodi:nodetypes="ccccccc" />
    <path
       style="opacity:0.7;fill:#ffffff;fill-opacity:0.58823529;stroke:#ffffff;stroke-width:0.99999988px;stroke-linecap:butt;stroke-linejoin:miter;stroke-opacity:1"
       d="m 4.5,27.5 23,0 -1.314285,-3 -20.3714287,0 z"
       id="path4306"
       inkscape:connector-curvature="0"
       sodipodi:nodetypes="ccccc" />
    <path
       style="opacity:0.3;color:#000000;fill:url(#linearGradient3190);fill-opacity:1;fill-rule:nonzero;stroke:none;stroke-width:1;marker:none;visibility:visible;display:inline;overflow:visible;enable-background:accumulate"
       d="m 9.118401,21.000001 -4.2368038,0 C 4.3931925,21.000001 4,21.393194 4,21.881598 l 0,4.236805 C 4,26.606808 4.3931925,27 4.8815972,27 L 9.118401,27 C 9.606807,27 10,26.606808 10,26.118403 l 0,-4.236805 C 10,21.393194 9.606807,21.000001 9.118401,21.000001 z"
       id="path3184"
       inkscape:connector-curvature="0" />
    <path
       style="color:#000000;fill:#f7f7f7;fill-opacity:1;fill-rule:nonzero;stroke:#ffffff;stroke-width:0.98542714;stroke-linecap:butt;stroke-linejoin:miter;stroke-miterlimit:4;stroke-opacity:1;stroke-dashoffset:0;marker:none;visibility:visible;display:inline;overflow:visible;enable-background:accumulate"
       d="m 8.206706,22.492713 -2.4134109,0 c -0.1665219,0 -0.3005814,0.13406 -0.3005814,0.300581 l 0,2.413411 c 0,0.166522 0.1340595,0.300581 0.3005814,0.300581 l 2.4134109,0 c 0.1665209,0 0.3005805,-0.134059 0.3005805,-0.300581 l 0,-2.413411 c 0,-0.166521 -0.1340596,-0.300581 -0.3005805,-0.300581 z"
       id="path3176"
       inkscape:connector-curvature="0" />
    <path
       inkscape:connector-curvature="0"
       d="m 16.011977,6.9999975 c -1.106078,0 -2.002557,0.8960167 -2.002225,2 -2.57e-4,0.857887 0.553598,1.5703115 1.313959,1.8541675 5.41e-4,0.27289 0.0025,0.883763 0,1.145833 l -2.961621,0 c -0.197362,0 -0.354561,0.202856 -0.354561,0.4 l 0,0.245832 c 0,0.197144 0.157198,0.354168 0.354561,0.354168 l 2.940765,0 c -0.0042,2.144697 0.02086,4.433614 0.02086,7.416667 0.0053,0.492031 0.01923,0.987327 0,1.479165 0.005,0.0796 -0.03985,0.161312 -0.104281,0.208333 -0.182391,0.136262 -0.401568,0.181151 -0.625695,0.187502 -0.356395,-0.0022 -0.576697,-0.09315 -0.917686,-0.187502 -0.770066,-0.225179 -1.505064,-0.53986 -2.210788,-0.916665 -0.297133,-0.164733 -0.590742,-0.327928 -0.855117,-0.541668 -0.113951,-0.09722 -0.241533,-0.235167 -0.229422,-0.395832 0.01539,-0.121625 0.07461,-0.248583 0.208566,-0.270833 0.120731,-0.01912 0.226945,0.04304 0.333702,0.08333 0.09203,0.03969 0.160718,-0.06934 0.145997,-0.145835 -0.01481,-0.201525 -0.08331,-0.388058 -0.187709,-0.562498 -0.21722,-0.357288 -0.549888,-0.625653 -0.896833,-0.854164 -0.370425,-0.236559 -0.766432,-0.496651 -1.0011113,-0.875 -0.04668,-0.06992 -0.103974,-0.183012 -0.208565,-0.145833 -0.145401,0.04716 -0.220777,0.189658 -0.291991,0.3125 -0.200371,0.381308 -0.305934,0.790036 -0.396274,1.208333 -0.07426,0.33282 -0.08851,0.681712 -0.06257,1.020834 0.02686,0.339313 0.05029,0.683129 0.187709,0.999998 0.08654,0.208235 0.244552,0.378721 0.396273,0.541668 0.09681,-0.102361 0.192947,-0.212234 0.291991,-0.3125 0.1283513,-0.12885 0.2918533,-0.212508 0.4797003,-0.1875 0.25567,0.03291 0.487344,0.185231 0.688263,0.333334 0.28301,0.220075 0.545906,0.452985 0.83426,0.666666 0.456282,0.3487 0.963805,0.606573 1.480812,0.854165 0.430738,0.200031 0.866966,0.399824 1.313959,0.562502 0.08005,0.03496 0.168781,0.03337 0.250277,0.0625 0.804485,0.334576 1.487084,0.718779 2.043938,1.416665 7.76e-4,0.0096 -8.22e-4,0.03254 0,0.04167 0.0064,-0.0083 0.01443,-0.01265 0.02086,-0.02083 0.0064,0.0082 0.01447,0.01256 0.02086,0.02083 0.0042,-0.01927 -0.0041,-0.04314 0,-0.0625 0.555109,-0.689793 1.244332,-1.063286 2.043937,-1.395833 0.0815,-0.02913 0.170228,-0.02754 0.250277,-0.0625 0.446995,-0.162676 0.883221,-0.362469 1.31396,-0.562501 0.517008,-0.247592 1.02453,-0.505465 1.480813,-0.854166 0.288352,-0.21368 0.551249,-0.44659 0.834258,-0.666665 0.20092,-0.148103 0.432595,-0.300427 0.688266,-0.333335 0.187846,-0.02501 0.351348,0.05865 0.479698,0.1875 0.09904,0.100267 0.195178,0.21014 0.291992,0.3125 0.15172,-0.162946 0.30973,-0.333432 0.396273,-0.541667 0.137421,-0.31687 0.160854,-0.660685 0.187708,-0.999998 0.02594,-0.339121 0.01169,-0.688014 -0.06257,-1.020835 -0.09034,-0.418296 -0.195903,-0.827024 -0.396273,-1.208333 -0.07122,-0.122841 -0.146592,-0.265337 -0.291992,-0.3125 -0.104591,-0.03718 -0.161882,0.07591 -0.208564,0.145833 -0.23468,0.378349 -0.630688,0.638441 -1.001112,0.875 -0.346948,0.228512 -0.679613,0.496876 -0.896829,0.854167 -0.104403,0.174441 -0.172896,0.360974 -0.18771,0.562499 -0.01472,0.0765 0.05396,0.185523 0.145996,0.145834 0.106758,-0.0403 0.212972,-0.102454 0.333704,-0.08333 0.133955,0.02225 0.193173,0.149209 0.208566,0.270833 0.01211,0.160666 -0.115473,0.298617 -0.229422,0.395833 -0.264375,0.213739 -0.557986,0.376934 -0.855117,0.541667 -0.705725,0.376806 -1.440722,0.691487 -2.210789,0.916666 -0.340988,0.09435 -0.561291,0.185297 -0.917686,0.187501 -0.224126,-0.0064 -0.443305,-0.05124 -0.625694,-0.187501 -0.06443,-0.04702 -0.109309,-0.128729 -0.104284,-0.208333 -0.01923,-0.491839 -0.0053,-0.987134 0,-1.479166 2e-6,-2.983052 0.02507,-5.271969 0.02086,-7.416665 l 2.940766,0 c 0.197362,0 0.354561,-0.157025 0.354561,-0.354169 l 0,-0.245833 c 0,-0.197143 -0.157199,-0.4 -0.354561,-0.4 l -2.961624,0 c -0.0025,-0.262069 -5.39e-4,-0.872942 0,-1.145833 0.760354,-0.283862 1.314212,-0.9962855 1.313952,-1.8541725 3.33e-4,-1.1039833 -0.89615,-2 -2.002223,-2 z m -0.04171,0.9791666 c 0.53693,0 0.980418,0.4224194 0.980255,0.9583337 1.62e-4,0.5359147 -0.443325,0.9791667 -0.980255,0.9791667 -0.536932,0 -0.980417,-0.443252 -0.980255,-0.9791667 -1.62e-4,-0.5359143 0.443323,-0.9583337 0.980255,-0.9583337 z"
       id="path2773"
       style="opacity:0.4;fill:#ffffff;fill-opacity:1;fill-rule:nonzero;stroke:none" />
    <path
       style="opacity:0.3;color:#000000;fill:url(#linearGradient3208);fill-opacity:1;fill-rule:nonzero;stroke:none;stroke-width:1;marker:none;visibility:visible;display:inline;overflow:visible;enable-background:accumulate"
       d="m 15.118401,21.000001 -4.236804,0 C 10.393193,21.000001 10,21.393194 10,21.881598 l 0,4.236805 C 10,26.606808 10.393193,27 10.881597,27 l 4.236804,0 C 15.606807,27 16,26.606808 16,26.118403 l 0,-4.236805 c 0,-0.488404 -0.393193,-0.881597 -0.881599,-0.881597 z"
       id="path3184-5"
       inkscape:connector-curvature="0" />
    <path
       inkscape:connector-curvature="0"
       d="m 16.011977,5.9999975 c -1.106078,0 -2.000332,0.8960167 -2,2 -2.2e-4,0.733262 0.407649,1.343559 1,1.6875 l 0,1.3125005 -2.65625,0 c -0.197362,0 -0.34375,0.209106 -0.34375,0.40625 l 0,0.25 c 0,0.197143 0.146387,0.34375 0.34375,0.34375 l 2.65625,0 0,9.1875 c -0.134459,0.05296 -0.258326,0.08956 -0.40625,0.09375 -0.356395,-0.0022 -0.596511,-0.09315 -0.9375,-0.1875 -0.770066,-0.22518 -1.481776,-0.529445 -2.1875,-0.90625 -0.297133,-0.164733 -0.610625,-0.317511 -0.875,-0.53125 -0.113951,-0.09721 -0.230861,-0.245585 -0.21875,-0.40625 0.01539,-0.121625 0.05354,-0.259001 0.1875,-0.28125 0.120731,-0.01912 0.236993,0.05345 0.34375,0.09375 0.09203,0.03969 0.170971,-0.07975 0.15625,-0.15625 -0.01481,-0.201526 -0.0831,-0.38806 -0.1875,-0.5625 -0.217216,-0.357293 -0.559304,-0.615239 -0.90625,-0.84375 -0.370424,-0.236559 -0.765321,-0.496651 -1.0000003,-0.875 -0.04668,-0.06992 -0.114158,-0.193429 -0.21875,-0.15625 -0.1454,0.04716 -0.210035,0.189658 -0.28125,0.3125 -0.20037,0.381308 -0.31591,0.800453 -0.40625,1.21875 -0.07427,0.33282 -0.08844,0.692129 -0.0625,1.03125 0.02686,0.339313 0.05008,0.683129 0.1875,1 0.08654,0.208234 0.254529,0.368303 0.40625,0.53125 0.09681,-0.102361 0.182207,-0.212234 0.28125,-0.3125 0.1283523,-0.12885 0.3121533,-0.212508 0.5000003,-0.1875 0.25567,0.03291 0.486581,0.195647 0.6875,0.34375 0.28301,0.220075 0.524146,0.442569 0.8125,0.65625 0.456282,0.3487 0.982993,0.596157 1.5,0.84375 0.430738,0.20003 0.865507,0.399823 1.3125,0.5625 0.08005,0.03496 0.168504,0.03337 0.25,0.0625 0.804485,0.334575 1.474396,0.739612 2.03125,1.4375 0.0036,-0.0032 0.02804,0.0041 0.03125,0 0.0064,0.0082 0.02486,0.02298 0.03125,0.03125 0.0042,-0.01927 -0.0041,-0.04314 0,-0.0625 0.555108,-0.689794 1.231645,-1.073704 2.03125,-1.40625 0.0815,-0.02913 0.169951,-0.02754 0.25,-0.0625 0.446996,-0.162678 0.881761,-0.36247 1.3125,-0.5625 0.517008,-0.247593 1.043717,-0.49505 1.5,-0.84375 0.288353,-0.213681 0.529491,-0.436175 0.8125,-0.65625 0.20092,-0.148103 0.431829,-0.310843 0.6875,-0.34375 0.187847,-0.02501 0.37165,0.05865 0.5,0.1875 0.09904,0.100266 0.184436,0.210139 0.28125,0.3125 0.15172,-0.162947 0.319707,-0.323016 0.40625,-0.53125 0.137422,-0.31687 0.160646,-0.660687 0.1875,-1 0.02594,-0.339121 0.01176,-0.69843 -0.0625,-1.03125 -0.09034,-0.418297 -0.20588,-0.837441 -0.40625,-1.21875 -0.07122,-0.122842 -0.13585,-0.265338 -0.28125,-0.3125 -0.104591,-0.03718 -0.172068,0.08633 -0.21875,0.15625 -0.234681,0.378349 -0.629576,0.638441 -1,0.875 -0.346949,0.228511 -0.689034,0.486458 -0.90625,0.84375 -0.104403,0.174438 -0.172686,0.360974 -0.1875,0.5625 -0.01472,0.0765 0.06422,0.195938 0.15625,0.15625 0.106758,-0.0403 0.223018,-0.112871 0.34375,-0.09375 0.133955,0.02225 0.172107,0.159625 0.1875,0.28125 0.01211,0.160665 -0.104801,0.309034 -0.21875,0.40625 -0.264375,0.21374 -0.577869,0.366517 -0.875,0.53125 -0.705726,0.376805 -1.417433,0.68107 -2.1875,0.90625 -0.340987,0.09435 -0.581105,0.185296 -0.9375,0.1875 -0.147923,-0.0042 -0.271792,-0.04079 -0.40625,-0.09375 l 0,-9.1875 2.65625,0 c 0.197362,0 0.34375,-0.146607 0.34375,-0.34375 l 0,-0.25 c 0,-0.197144 -0.146388,-0.40625 -0.34375,-0.40625 l -2.65625,0 0,-1.3125005 c 0.592352,-0.343941 1.000222,-0.954238 1,-1.6875 3.34e-4,-1.1039833 -0.893927,-2 -2,-2 z m -0.03125,0.96875 c 0.53693,-4e-7 0.968913,0.4328357 0.96875,0.96875 1.63e-4,0.535915 -0.43182,0.96875 -0.96875,0.96875 -0.536932,0 -1.000162,-0.432835 -1,-0.96875 -1.62e-4,-0.535914 0.463068,-0.96875 1,-0.96875 z"
       id="path1919"
       style="fill:url(#linearGradient3232);fill-opacity:1;fill-rule:nonzero;stroke:none" />
    <path
       style="color:#000000;fill:#f7f7f7;fill-opacity:1;fill-rule:nonzero;stroke:#ffffff;stroke-width:0.98542714;stroke-linecap:butt;stroke-linejoin:miter;stroke-miterlimit:4;stroke-opacity:1;stroke-dashoffset:0;marker:none;visibility:visible;display:inline;overflow:visible;enable-background:accumulate"
       d="m 14.206706,22.492713 -2.413411,0 c -0.166522,0 -0.300581,0.13406 -0.300581,0.300581 l 0,2.413411 c 0,0.166522 0.134059,0.300581 0.300581,0.300581 l 2.413411,0 c 0.166521,0 0.300581,-0.134059 0.300581,-0.300581 l 0,-2.413411 c 0,-0.166521 -0.13406,-0.300581 -0.300581,-0.300581 z"
       id="path3176-9"
       inkscape:connector-curvature="0" />
    <path
       style="opacity:0.3;color:#000000;fill:url(#linearGradient3208-3);fill-opacity:1;fill-rule:nonzero;stroke:none;stroke-width:1;marker:none;visibility:visible;display:inline;overflow:visible;enable-background:accumulate"
       d="m 21.118401,21.000001 -4.236804,0 C 16.393193,21.000001 16,21.393194 16,21.881598 l 0,4.236805 C 16,26.606808 16.393193,27 16.881597,27 l 4.236804,0 C 21.606807,27 22,26.606808 22,26.118403 l 0,-4.236805 c 0,-0.488404 -0.393193,-0.881597 -0.881599,-0.881597 z"
       id="path3184-0"
       inkscape:connector-curvature="0" />
    <path
       style="color:#000000;fill:#f7f7f7;fill-opacity:1;fill-rule:nonzero;stroke:#ffffff;stroke-width:0.98542714;stroke-linecap:butt;stroke-linejoin:miter;stroke-miterlimit:4;stroke-opacity:1;stroke-dashoffset:0;marker:none;visibility:visible;display:inline;overflow:visible;enable-background:accumulate"
       d="m 20.206706,22.492713 -2.413411,0 c -0.166522,0 -0.300581,0.13406 -0.300581,0.300581 l 0,2.413411 c 0,0.166522 0.134059,0.300581 0.300581,0.300581 l 2.413411,0 c 0.166521,0 0.300581,-0.134059 0.300581,-0.300581 l 0,-2.413411 c 0,-0.166521 -0.13406,-0.300581 -0.300581,-0.300581 z"
       id="path3176-4"
       inkscape:connector-curvature="0" />
    <path
       style="opacity:0.3;color:#000000;fill:url(#linearGradient3208-31);fill-opacity:1;fill-rule:nonzero;stroke:none;stroke-width:1;marker:none;visibility:visible;display:inline;overflow:visible;enable-background:accumulate"
       d="m 27.118401,21.000001 -4.236804,0 C 22.393193,21.000001 22,21.393194 22,21.881598 l 0,4.236805 C 22,26.606808 22.393193,27 22.881597,27 l 4.236804,0 C 27.606807,27 28,26.606808 28,26.118403 l 0,-4.236805 c 0,-0.488404 -0.393193,-0.881597 -0.881599,-0.881597 z"
       id="path3184-7"
       inkscape:connector-curvature="0" />
    <path
       style="color:#000000;fill:#f7f7f7;fill-opacity:1;fill-rule:nonzero;stroke:#ffffff;stroke-width:0.98542714;stroke-linecap:butt;stroke-linejoin:miter;stroke-miterlimit:4;stroke-opacity:1;stroke-dashoffset:0;marker:none;visibility:visible;display:inline;overflow:visible;enable-background:accumulate"
       d="m 26.206706,22.492713 -2.413411,0 c -0.166522,0 -0.300581,0.13406 -0.300581,0.300581 l 0,2.413411 c 0,0.166522 0.134059,0.300581 0.300581,0.300581 l 2.413411,0 c 0.166521,0 0.300581,-0.134059 0.300581,-0.300581 l 0,-2.413411 c 0,-0.166521 -0.13406,-0.300581 -0.300581,-0.300581 z"
       id="path3176-5"
       inkscape:connector-curvature="0" />
  </g>
</svg>
